<?xml version="1.0" encoding="UTF-8" standalone="no"?>
<!-- Created with Inkscape (http://www.inkscape.org/) -->

<svg
   xmlns:dc="http://purl.org/dc/elements/1.1/"
   xmlns:cc="http://creativecommons.org/ns#"
   xmlns:rdf="http://www.w3.org/1999/02/22-rdf-syntax-ns#"
   xmlns:svg="http://www.w3.org/2000/svg"
   xmlns="http://www.w3.org/2000/svg"
   xmlns:sodipodi="http://sodipodi.sourceforge.net/DTD/sodipodi-0.dtd"
   xmlns:inkscape="http://www.inkscape.org/namespaces/inkscape"
   width="210mm"
   height="297mm"
   viewBox="0 0 210 297"
   version="1.1"
   id="svg7911"
   inkscape:export-filename="C:\Users\HP\Desktop\brave\llll.png"
   inkscape:export-xdpi="9.9495916"
   inkscape:export-ydpi="9.9495916"
   inkscape:version="0.92.1 r15371"
   sodipodi:docname="brave.svg">
  <defs
     id="defs7905">
    <filter
       inkscape:collect="always"
       style="color-interpolation-filters:sRGB"
       id="filter5809"
       x="-0.13504515"
       width="1.2700903"
       y="-0.12908915"
       height="1.2581783">
      <feGaussianBlur
         inkscape:collect="always"
         stdDeviation="1.0518211"
         id="feGaussianBlur5811" />
    </filter>
    <filter
       inkscape:collect="always"
       style="color-interpolation-filters:sRGB"
       id="filter5809-9"
       x="-0.13504516"
       width="1.2700903"
       y="-0.12908915"
       height="1.2581784">
      <feGaussianBlur
         inkscape:collect="always"
         stdDeviation="1.0518211"
         id="feGaussianBlur5811-6" />
    </filter>
    <filter
       inkscape:collect="always"
       style="color-interpolation-filters:sRGB"
       id="filter5809-3"
       x="-0.13504516"
       width="1.2700903"
       y="-0.12908915"
       height="1.2581784">
      <feGaussianBlur
         inkscape:collect="always"
         stdDeviation="1.0518211"
         id="feGaussianBlur5811-9" />
    </filter>
  </defs>
  <sodipodi:namedview
     id="base"
     pagecolor="#ffffff"
     bordercolor="#666666"
     borderopacity="1.0"
     inkscape:pageopacity="0.0"
     inkscape:pageshadow="2"
     inkscape:zoom="0.35"
     inkscape:cx="-540"
     inkscape:cy="861.17632"
     inkscape:document-units="mm"
     inkscape:current-layer="layer1"
     showgrid="false"
     inkscape:window-width="1366"
     inkscape:window-height="748"
     inkscape:window-x="-8"
     inkscape:window-y="-8"
     inkscape:window-maximized="1" />
  <metadata
     id="metadata7908">
    <rdf:RDF>
      <cc:Work
         rdf:about="">
        <dc:format>image/svg+xml</dc:format>
        <dc:type
           rdf:resource="http://purl.org/dc/dcmitype/StillImage" />
        <dc:title />
      </cc:Work>
    </rdf:RDF>
  </metadata>
  <g
     inkscape:label="Layer 1"
     inkscape:groupmode="layer"
     id="layer1">
    <path
       id="rect4603-9"
       style="opacity:1;fill:#ffff00;fill-opacity:1;stroke-width:0.23205499"
       d="m -211.38347,-9.7471973 c -43.97375,0 -79.37552,35.4012553 -79.37552,79.3750133 0,43.973784 35.40177,79.375024 79.37552,79.375024 43.97376,0 79.375,-35.40124 79.375,-79.375024 0,-31.239777 -17.87214,-58.143233 -43.98698,-71.1098723 -0.76888,0.77368901 -3.65952,3.840319 -4.12533,3.447329 -1.23706,-0.93152 -0.90823,-0.43238 -0.83561,-0.55655 -0.0205,-0.007 -0.041,-0.013 -0.0615,-0.0196 -0.20559,-0.0663 -0.4136,-0.1253 -0.62011,-0.18862 -0.28519,-0.0831 -0.57032,-0.16711 -0.85524,-0.25113999 -0.0491,-0.0145 -0.0978,-0.0302 -0.14676,-0.045 -0.12509,-0.0282 -0.25436,-0.0639 -0.38914,-0.1111 -0.11877,-0.0417 -0.12622,-0.0446 -0.17983,-0.0636 -0.091,-0.0283 -0.18237,-0.0554 -0.27337,-0.0837 -0.3228,-0.1003 -0.64694,-0.19619 -0.97048,-0.29403 -0.22183,-0.0687 -0.11185,-0.0342 -0.32918,-0.10234 -0.15835,-0.0497 -0.29894,-0.10822 -0.4315,-0.17053 -0.0184,-0.005 -0.0364,-0.0111 -0.0548,-0.0161 -0.22711,-0.0577 -0.45539,-0.11043 -0.68471,-0.15867 -0.24594,-0.0533 -0.49306,-0.101009 -0.73794,-0.159139 -0.27156,-0.066 -0.54162,-0.137771 -0.80667,-0.226861 -0.27487,-0.0937 -0.54693,-0.19576 -0.81649,-0.30387 -0.2631,-0.105539 -0.52502,-0.21394 -0.78496,-0.32711001 -0.0556,-0.0238 -0.11039,-0.049 -0.16588,-0.0729 -0.017,0.006 -0.0336,0.0114 -0.0506,0.0172 -0.1808,0.0556 -0.36537,0.0945 -0.55242,0.12142 -0.28547,0.0389 -0.56889,0.005 -0.84853,-0.0542 -0.25753,-0.0617 -0.50017,-0.16806 -0.74156,-0.2744 -0.20053,-0.0902 -0.40125,-0.18097 -0.60099,-0.27286 -0.18874,-0.0866 -0.37673,-0.17442 -0.5669,-0.25787 -0.16121,-0.0724 -0.32487,-0.13885 -0.49144,-0.19793 -0.13744,-0.0485 -0.27797,-0.0879 -0.42013,-0.12039 -0.0915,-0.0185 -0.0407,-0.008 -0.15193,-0.0315 -0.24819,-0.0518 -0.46169,-0.12557 -0.65112,-0.21187 -0.14119,0.0752 -0.2991,0.0726 -0.48266,0.0243 -1.08045,1.72937001 -3.08995,0.73033 -2.21537,-1.52445 0.0267,-0.0687 0.92221,-1.1062 0.94563,-1.17608 0.0244,-0.0675 -0.34329,-3.12219 -0.33223,-3.19315 0.019,-0.11737 -0.44617,3.71925 -0.43563,3.6008 0.80854,-5.4940797 0.54659,-3.78085 0.0259,-0.35862 0.005,-0.13605 0.01,-0.27226 0.016,-0.40825 0.006,-0.12399 -0.22778,1.65915 -0.21963,1.5353 0.40239,0.0737 9.41702,3.88751001 8.72445,3.18256001 -0.0635,2.29612999 -8.37288,-4.36086001 -8.24438,-6.12036001 0.0358,-0.0927 0.0726,-0.18516 0.108,-0.27803 0.043,-0.11472 0.0891,-0.22812 0.13901,-0.34002 0.004,-0.009 -0.004,0.009 0,0 -0.0852,-0.22018 -0.11949,-0.50934 -0.11369,-0.81338 -4.84264,-0.91882 -9.84008,-1.40922 -14.95824,-1.40922 z m 19.25205,2.34355 c -2.6e-4,0 -7.9e-4,0.003 -0.001,0.003 8e-4,0 0.002,0 0.003,-0.003 -5.3e-4,-1.3e-4 -10e-4,0 -0.002,0 z m 16.13597,5.921591 c -0.013,0.0254 -2.53356,2.45619901 -2.54676,2.48159901 -0.004,0.006 -2.39662,5.98481999 -2.40162,5.99181999 0.0253,-0.0417 4.65421,-6.22620999 4.67342,-6.25908999 z"
       inkscape:connector-curvature="0"
       sodipodi:nodetypes="csssccccccccccccccccccccccccccccccccccccccccccccccsccsccccc" />
    <rect
       style="opacity:1;fill:#0000ff;fill-opacity:1;stroke-width:0.22057386"
       id="rect4603-5-7-6"
       width="150.3618"
       height="151.43158"
       x="-286.7117"
       y="-6.4639521"
       ry="75.71579"
       clip-path="none" />
    <ellipse
       id="circle5420-4-1-2"
       cy="34.863453"
       cx="-262.14243"
       style="fill:#ffff00;fill-opacity:1;stroke-width:0.18612109"
       transform="matrix(0.99902801,0.04407987,-0.04150396,0.99913834,0,0)"
       rx="1.7111621"
       ry="1.7633668" />
    <path
       style="opacity:1;fill:#666666;fill-opacity:0.74479167;fill-rule:evenodd;stroke:#000000;stroke-width:0.08166416px;stroke-linecap:butt;stroke-linejoin:miter;stroke-opacity:1"
       d="m -200.33458,143.89645 -21.72486,-13.87715 -4.15051,27.11858 z"
       id="path4489-5-7"
       inkscape:connector-curvature="0" />
    <path
       style="opacity:0.25;fill:#ffff00;fill-opacity:0.74479167;fill-rule:evenodd;stroke:#000000;stroke-width:0.08166416px;stroke-linecap:butt;stroke-linejoin:miter;stroke-opacity:1"
       d="m -175.50197,159.17948 3.21884,-24.06317 -28.05145,8.78014 z"
       id="path4487-8-7"
       inkscape:connector-curvature="0" />
    <path
       style="fill:#ffff00;fill-rule:evenodd;stroke:#000000;stroke-width:0.07315124px;stroke-linecap:butt;stroke-linejoin:miter;stroke-opacity:1"
       d="m -198.14392,146.03638 -20.03306,-12.16493 -3.73861,23.63373 z"
       id="path4489-5"
       inkscape:connector-curvature="0" />
    <path
       style="fill:#ffff00;fill-rule:evenodd;stroke:#000000;stroke-width:0.07231891px;stroke-linecap:butt;stroke-linejoin:miter;stroke-opacity:1"
       d="m -175.50197,159.17948 2.85749,-20.73371 -25.49401,7.48614 z"
       id="path4487-8"
       inkscape:connector-curvature="0" />
    <text
       xml:space="preserve"
       style="font-style:normal;font-variant:normal;font-weight:normal;font-stretch:normal;font-size:78.19579315px;line-height:125%;font-family:'Showcard Gothic';-inkscape-font-specification:'Showcard Gothic, Normal';font-variant-ligatures:normal;font-variant-caps:normal;font-variant-numeric:normal;font-feature-settings:normal;text-align:start;letter-spacing:0px;word-spacing:0px;writing-mode:lr-tb;text-anchor:start;fill:#505089;fill-opacity:1;stroke:none;stroke-width:1.95494652px;stroke-linecap:butt;stroke-linejoin:miter;stroke-opacity:1"
       x="-339.40063"
       y="81.230949"
       id="text7563"
       transform="scale(0.96106726,1.0405099)"><tspan
         sodipodi:role="line"
         id="tspan7561"
         x="-339.40063"
         y="81.230949"
         style="font-style:normal;font-variant:normal;font-weight:normal;font-stretch:normal;font-size:78.19579315px;font-family:'Showcard Gothic';-inkscape-font-specification:'Showcard Gothic, Normal';font-variant-ligatures:normal;font-variant-caps:normal;font-variant-numeric:normal;font-feature-settings:normal;text-align:start;writing-mode:lr-tb;text-anchor:start;fill:#505089;fill-opacity:1;stroke-width:1.95494652px">BRAVE</tspan></text>
    <text
       xml:space="preserve"
       style="font-style:normal;font-variant:normal;font-weight:normal;font-stretch:normal;font-size:76.48454285px;line-height:125%;font-family:'Showcard Gothic';-inkscape-font-specification:'Showcard Gothic, Normal';font-variant-ligatures:normal;font-variant-caps:normal;font-variant-numeric:normal;font-feature-settings:normal;text-align:start;letter-spacing:0px;word-spacing:0px;writing-mode:lr-tb;text-anchor:start;fill:#ffff00;fill-opacity:1;stroke:none;stroke-width:1.91216385px;stroke-linecap:butt;stroke-linejoin:miter;stroke-opacity:1"
       x="-336.98569"
       y="77.724617"
       id="text7563-8"
       transform="scale(0.94003489,1.0637903)"><tspan
         sodipodi:role="line"
         id="tspan7561-5"
         x="-336.98569"
         y="77.724617"
         style="font-style:normal;font-variant:normal;font-weight:normal;font-stretch:normal;font-size:76.48454285px;font-family:'Showcard Gothic';-inkscape-font-specification:'Showcard Gothic, Normal';font-variant-ligatures:normal;font-variant-caps:normal;font-variant-numeric:normal;font-feature-settings:normal;text-align:start;writing-mode:lr-tb;text-anchor:start;fill:#ffff00;stroke-width:1.91216385px">BRAVE</tspan></text>
    <text
       xml:space="preserve"
       style="font-style:normal;font-variant:normal;font-weight:normal;font-stretch:normal;font-size:51.15023804px;line-height:125%;font-family:'Cooper Black';-inkscape-font-specification:'Cooper Black, Normal';font-variant-ligatures:normal;font-variant-caps:normal;font-variant-numeric:normal;font-feature-settings:normal;text-align:start;letter-spacing:0px;word-spacing:0px;writing-mode:lr-tb;text-anchor:start;fill:#000000;fill-opacity:1;stroke:none;stroke-width:33.01799393px;stroke-linecap:butt;stroke-linejoin:miter;stroke-opacity:1"
       x="-373.8089"
       y="107.58099"
       id="text7563-8-4"
       transform="scale(0.81904863,1.2209287)"><tspan
         sodipodi:role="line"
         id="tspan7561-5-5"
         x="-373.8089"
         y="107.58099"
         style="font-style:normal;font-variant:normal;font-weight:normal;font-stretch:normal;font-size:51.15023804px;font-family:'Cooper Black';-inkscape-font-specification:'Cooper Black, Normal';font-variant-ligatures:normal;font-variant-caps:normal;font-variant-numeric:normal;font-feature-settings:normal;text-align:start;writing-mode:lr-tb;text-anchor:start;fill:#000000;stroke-width:33.01799393px">FASHION</tspan></text>
    <path
       sodipodi:type="star"
       style="opacity:0.74;fill:#ffff00;fill-opacity:1;stroke:#00ff00;stroke-width:0.26458332;filter:url(#filter5809)"
       id="path5723"
       sodipodi:sides="5"
       sodipodi:cx="-97.517859"
       sodipodi:cy="105.74405"
       sodipodi:r1="10.282064"
       sodipodi:r2="5.1410317"
       sodipodi:arg1="1.2722974"
       sodipodi:arg2="1.9006159"
       inkscape:flatsided="false"
       inkscape:rounded="0"
       inkscape:randomized="0"
       d="m -94.494051,115.57143 -4.688847,-4.96345 -6.746952,1.04871 3.27159,-5.99315 -3.0823,-6.092659 6.710795,1.259479 4.841981,-4.81418 0.875916,6.77155 6.074811,3.11733 -6.169452,2.92557 z"
       inkscape:transform-center-x="-0.9344098"
       inkscape:transform-center-y="0.049754769" />
    <path
       sodipodi:type="star"
       style="opacity:0.73999999;fill:#ffff00;fill-opacity:1;stroke:#00ff00;stroke-width:0.26458332;filter:url(#filter5809-9)"
       id="path5723-9"
       sodipodi:sides="5"
       sodipodi:cx="-314.65466"
       sodipodi:cy="110.98596"
       sodipodi:r1="10.282065"
       sodipodi:r2="5.1410317"
       sodipodi:arg1="1.2722974"
       sodipodi:arg2="1.9006159"
       inkscape:flatsided="false"
       inkscape:rounded="0"
       inkscape:randomized="0"
       d="m -311.63085,120.81334 -4.68885,-4.96344 -6.74695,1.0487 3.27159,-5.99314 -3.08231,-6.09267 6.7108,1.25948 4.84198,-4.81418 0.87592,6.77155 6.07481,3.11734 -6.16945,2.92557 z"
       inkscape:transform-center-x="-0.49814216"
       inkscape:transform-center-y="-0.27681355"
       transform="matrix(0.38396813,0.59536349,-0.77258239,0.29589155,-103.8828,256.89214)" />
    <path
       sodipodi:type="star"
       style="opacity:0.73999999;fill:#0000ff;fill-opacity:1;stroke:#00ff00;stroke-width:0.26458332;filter:url(#filter5809-3)"
       id="path5723-1"
       sodipodi:sides="5"
       sodipodi:cx="-237.54751"
       sodipodi:cy="-15.25809"
       sodipodi:r1="10.282065"
       sodipodi:r2="5.1410317"
       sodipodi:arg1="1.2722974"
       sodipodi:arg2="1.9006159"
       inkscape:flatsided="false"
       inkscape:rounded="0"
       inkscape:randomized="0"
       d="m -234.52371,-5.4307077 -4.68884,-4.9634483 -6.74695,1.0487082 3.27158,-5.9931492 -3.0823,-6.092661 6.7108,1.259478 4.84198,-4.81418 0.87592,6.771549 6.07481,3.117335 -6.16945,2.925569 z"
       inkscape:transform-center-x="-0.9344098"
       inkscape:transform-center-y="0.049754769" />
  </g>
</svg>
