<?xml version="1.0" encoding="UTF-8" standalone="no"?>
<!-- Created with Inkscape (http://www.inkscape.org/) -->

<svg
   xmlns:dc="http://purl.org/dc/elements/1.1/"
   xmlns:cc="http://creativecommons.org/ns#"
   xmlns:rdf="http://www.w3.org/1999/02/22-rdf-syntax-ns#"
   xmlns:svg="http://www.w3.org/2000/svg"
   xmlns="http://www.w3.org/2000/svg"
   xmlns:sodipodi="http://sodipodi.sourceforge.net/DTD/sodipodi-0.dtd"
   xmlns:inkscape="http://www.inkscape.org/namespaces/inkscape"
   width="210mm"
   height="297mm"
   viewBox="0 0 210 297"
   version="1.1"
   id="svg7911"
   inkscape:export-filename="C:\Users\HP\Desktop\brave\llll.png"
   inkscape:export-xdpi="9.9495916"
   inkscape:export-ydpi="9.9495916"
   inkscape:version="0.92.1 r15371"
   sodipodi:docname="bravenn.svg">
  <defs
     id="defs7905">
    <filter
       inkscape:collect="always"
       style="color-interpolation-filters:sRGB"
       id="filter6914"
       x="-0.035417203"
       width="1.0708344"
       y="-0.0366023"
       height="1.0732046">
      <feGaussianBlur
         inkscape:collect="always"
         stdDeviation="0.32894185"
         id="feGaussianBlur6916" />
    </filter>
    <filter
       inkscape:collect="always"
       style="color-interpolation-filters:sRGB"
       id="filter5809"
       x="-0.13504516"
       width="1.2700903"
       y="-0.12908915"
       height="1.2581784">
      <feGaussianBlur
         inkscape:collect="always"
         stdDeviation="1.0518211"
         id="feGaussianBlur5811" />
    </filter>
    <filter
       inkscape:collect="always"
       style="color-interpolation-filters:sRGB"
       id="filter5809-4"
       x="-0.13504516"
       width="1.2700903"
       y="-0.12908915"
       height="1.2581784">
      <feGaussianBlur
         inkscape:collect="always"
         stdDeviation="1.0518211"
         id="feGaussianBlur5811-5" />
    </filter>
    <filter
       inkscape:collect="always"
       style="color-interpolation-filters:sRGB"
       id="filter5809-3"
       x="-0.13504516"
       width="1.2700903"
       y="-0.12908915"
       height="1.2581784">
      <feGaussianBlur
         inkscape:collect="always"
         stdDeviation="1.0518211"
         id="feGaussianBlur5811-9" />
    </filter>
  </defs>
  <sodipodi:namedview
     id="base"
     pagecolor="#ffffff"
     bordercolor="#666666"
     borderopacity="1.0"
     inkscape:pageopacity="0.0"
     inkscape:pageshadow="2"
     inkscape:zoom="0.7"
     inkscape:cx="-2284.686"
     inkscape:cy="645.06238"
     inkscape:document-units="mm"
     inkscape:current-layer="layer1"
     showgrid="false"
     inkscape:window-width="1362"
     inkscape:window-height="744"
     inkscape:window-x="-8"
     inkscape:window-y="-8"
     inkscape:window-maximized="0"
     showguides="true" />
  <metadata
     id="metadata7908">
    <rdf:RDF>
      <cc:Work
         rdf:about="">
        <dc:format>image/svg+xml</dc:format>
        <dc:type
           rdf:resource="http://purl.org/dc/dcmitype/StillImage" />
        <dc:title />
      </cc:Work>
    </rdf:RDF>
  </metadata>
  <g
     inkscape:label="Layer 1"
     inkscape:groupmode="layer"
     id="layer1">
    <path
       style="opacity:1;fill:#b3b3b3;fill-opacity:1;stroke:#00ff00;stroke-width:0.26112646"
       id="path6950"
       sodipodi:type="arc"
       sodipodi:cx="-618.46167"
       sodipodi:cy="91.204208"
       sodipodi:rx="119.20221"
       sodipodi:ry="120.27303"
       sodipodi:start="0"
       sodipodi:end="6.1074307"
       sodipodi:open="true"
       d="M -499.25946,91.204208 A 119.20221,120.27303 0 0 1 -613.22577,211.36116 119.20221,120.27303 0 0 1 -737.20391,101.75988 119.20221,120.27303 0 0 1 -634.12896,-28.025438 119.20221,120.27303 0 0 1 -501.09579,70.174328" />
    <path
       sodipodi:type="star"
       style="opacity:1;fill:#e1fe03;fill-opacity:0.98823529;stroke:#00ff00;stroke-width:0.26458332"
       id="path6271"
       sodipodi:sides="5"
       sodipodi:cx="-640.29169"
       sodipodi:cy="78.529762"
       sodipodi:r1="13.20214"
       sodipodi:r2="6.6010704"
       sodipodi:arg1="1.1583859"
       sodipodi:arg2="1.7867044"
       inkscape:flatsided="false"
       inkscape:rounded="0"
       inkscape:randomized="0"
       d="m -635.00002,90.625 -6.70584,-5.647429 -8.45387,2.322499 3.29881,-8.122788 -4.82122,-7.322409 8.74462,0.62727 5.47419,-6.847997 2.10566,8.510462 8.20445,3.090115 -7.44324,4.632484 z"
       inkscape:transform-center-x="-0.62842389"
       inkscape:transform-center-y="-0.30919165"
       transform="matrix(0.71901029,0,0,0.7726104,-273.65165,0.72637342)"
       inkscape:export-filename="C:\Users\HP\Desktop\brave\tie2s.png"
       inkscape:export-xdpi="10.277267"
       inkscape:export-ydpi="10.277267" />
    <path
       id="rect4603-9"
       style="opacity:1;fill:#ffff00;fill-opacity:1;stroke-width:0.23205499"
       d="m -620.89621,5.2004723 c -43.97374,0 -79.37552,35.4012577 -79.37552,79.3750157 0,43.973782 35.40178,79.375012 79.37552,79.375012 43.97376,0 79.37501,-35.40123 79.37501,-79.375012 0,-31.239777 -17.87214,-58.143235 -43.98698,-71.109874 -0.76888,0.773689 -3.65953,3.840319 -4.12534,3.44733 -1.23705,-0.931524 -0.90823,-0.432382 -0.83561,-0.556551 -0.0205,-0.007 -0.041,-0.01299 -0.0615,-0.01961 -0.20559,-0.0663 -0.4136,-0.125299 -0.62011,-0.188619 -0.2852,-0.0831 -0.57032,-0.167111 -0.85525,-0.25114 -0.0491,-0.0145 -0.0978,-0.0302 -0.14676,-0.045 -0.12508,-0.0282 -0.25435,-0.0639 -0.38913,-0.111102 -0.11878,-0.0417 -0.12623,-0.0446 -0.17984,-0.0636 -0.091,-0.0283 -0.18236,-0.0554 -0.27337,-0.0837 -0.3228,-0.100301 -0.64693,-0.196192 -0.97047,-0.294032 -0.22184,-0.0687 -0.11185,-0.0342 -0.32919,-0.102338 -0.15835,-0.0497 -0.29894,-0.10822 -0.43149,-0.170532 -0.0184,-0.005 -0.0364,-0.01111 -0.0548,-0.01611 -0.22711,-0.0577 -0.45539,-0.110429 -0.68471,-0.158668 -0.24595,-0.0533 -0.49307,-0.10101 -0.73795,-0.159139 -0.27156,-0.066 -0.54161,-0.137771 -0.80667,-0.226859 -0.27487,-0.0937 -0.54693,-0.19576 -0.81648,-0.303874 -0.26311,-0.105537 -0.52502,-0.213937 -0.78496,-0.327108 -0.0556,-0.0238 -0.11039,-0.049 -0.16588,-0.0729 -0.017,0.006 -0.0336,0.0114 -0.0506,0.0172 -0.18079,0.0556 -0.36536,0.0945 -0.55241,0.121417 -0.28547,0.0389 -0.5689,0.005 -0.84853,-0.0542 -0.25754,-0.0617 -0.50017,-0.16806 -0.74156,-0.2744 -0.20054,-0.0902 -0.40126,-0.18097 -0.601,-0.27286 -0.18874,-0.0866 -0.37672,-0.17442 -0.56689,-0.25787 -0.16121,-0.0724 -0.32488,-0.13885 -0.49144,-0.19793 -0.13744,-0.0485 -0.27798,-0.0879 -0.42014,-0.12039 -0.0915,-0.0185 -0.0407,-0.008 -0.15192,-0.0315 -0.24819,-0.0518 -0.46169,-0.12557 -0.65113,-0.21187 -0.14119,0.0752 -0.29909,0.0726 -0.48265,0.0243 -1.08045,1.72937 -3.08995,0.73033 -2.21538,-1.52445 0.0267,-0.0687 0.92221,-1.1061997 0.94564,-1.1760797 0.0244,-0.0675 -0.3433,-3.12219 -0.33223,-3.19315 0.019,-0.11737 -0.44618,3.7192497 -0.43564,3.6007997 0.80854,-5.4940787 0.54659,-3.7808497 0.0259,-0.3586197 0.005,-0.13605 0.01,-0.27226 0.016,-0.40825 0.006,-0.12399 -0.22778,1.6591497 -0.21962,1.5352997 0.40239,0.0737 9.41701,3.887511 8.72445,3.18256 -0.0635,2.296131 -8.37289,-4.3608597 -8.24439,-6.1203597 0.0358,-0.0927 0.0726,-0.18516 0.108,-0.27803 0.043,-0.11472 0.0891,-0.22812 0.13901,-0.34002 0.004,-0.009 -0.004,0.009 0,0 -0.0852,-0.22018 -0.11948,-0.50934 -0.11368,-0.81338 -4.84265,-0.918801 -9.84009,-1.409201 -14.95825,-1.409201 z m 19.25206,2.34355 c -2.6e-4,0 -7.9e-4,0.003 -10e-4,0.003 8e-4,0 0.002,0 0.003,-0.003 -5.3e-4,-1.29e-4 -10e-4,0 -0.002,0 z m 16.13597,5.9215917 c -0.013,0.0254 -2.53357,2.456198 -2.54677,2.481598 -0.004,0.006 -2.39661,5.984823 -2.40162,5.991821 0.0253,-0.0417 4.65422,-6.22621 4.67342,-6.259089 z"
       inkscape:connector-curvature="0"
       sodipodi:nodetypes="csssccccccccccccccccccccccccccccccccccccccccccccccsccsccccc"
       inkscape:export-filename="C:\Users\HP\Desktop\brave\tie2s.png"
       inkscape:export-xdpi="10.277267"
       inkscape:export-ydpi="10.277267" />
    <rect
       style="opacity:1;fill:#0000ff;fill-opacity:1;stroke-width:0.22057386"
       id="rect4603-5-7-6"
       width="150.3618"
       height="151.43158"
       x="-696.22437"
       y="8.4837179"
       ry="75.71579"
       clip-path="none"
       inkscape:export-filename="C:\Users\HP\Desktop\brave\tie2s.png"
       inkscape:export-xdpi="10.277267"
       inkscape:export-ydpi="10.277267" />
    <ellipse
       id="circle5420-4-1-2"
       cy="53.657143"
       cx="-670.20264"
       style="fill:#ffff00;fill-opacity:1;stroke-width:0.18612109"
       transform="matrix(0.99902801,0.04407987,-0.04150396,0.99913834,0,0)"
       rx="1.7111621"
       ry="1.7633668"
       inkscape:export-filename="C:\Users\HP\Desktop\brave\tie2s.png"
       inkscape:export-xdpi="10.277267"
       inkscape:export-ydpi="10.277267" />
    <text
       xml:space="preserve"
       style="font-style:normal;font-variant:normal;font-weight:normal;font-stretch:normal;font-size:78.19579315px;line-height:125%;font-family:'Showcard Gothic';-inkscape-font-specification:'Showcard Gothic, Normal';font-variant-ligatures:normal;font-variant-caps:normal;font-variant-numeric:normal;font-feature-settings:normal;text-align:start;letter-spacing:0px;word-spacing:0px;writing-mode:lr-tb;text-anchor:start;fill:#505089;fill-opacity:1;stroke:none;stroke-width:1.95494652px;stroke-linecap:butt;stroke-linejoin:miter;stroke-opacity:1"
       x="-764.39026"
       y="81.990425"
       id="text7563"
       transform="scale(0.96106727,1.0405099)"
       inkscape:export-filename="C:\Users\HP\Desktop\brave\tie2s.png"
       inkscape:export-xdpi="10.277267"
       inkscape:export-ydpi="10.277267"><tspan
         sodipodi:role="line"
         id="tspan7561"
         x="-764.39026"
         y="81.990425"
         style="font-style:normal;font-variant:normal;font-weight:normal;font-stretch:normal;font-size:78.19579315px;font-family:'Showcard Gothic';-inkscape-font-specification:'Showcard Gothic, Normal';font-variant-ligatures:normal;font-variant-caps:normal;font-variant-numeric:normal;font-feature-settings:normal;text-align:start;writing-mode:lr-tb;text-anchor:start;fill:#505089;fill-opacity:1;stroke-width:1.95494652px">BRAVE</tspan></text>
    <text
       xml:space="preserve"
       style="font-style:normal;font-variant:normal;font-weight:normal;font-stretch:normal;font-size:76.48454285px;line-height:125%;font-family:'Showcard Gothic';-inkscape-font-specification:'Showcard Gothic, Normal';font-variant-ligatures:normal;font-variant-caps:normal;font-variant-numeric:normal;font-feature-settings:normal;text-align:start;letter-spacing:0px;word-spacing:0px;writing-mode:lr-tb;text-anchor:start;fill:#ffff00;fill-opacity:1;stroke:none;stroke-width:1.91216385px;stroke-linecap:butt;stroke-linejoin:miter;stroke-opacity:1"
       x="-771.48413"
       y="78.467491"
       id="text7563-8"
       transform="scale(0.94003489,1.0637903)"
       inkscape:export-filename="C:\Users\HP\Desktop\brave\tie2s.png"
       inkscape:export-xdpi="10.277267"
       inkscape:export-ydpi="10.277267"><tspan
         sodipodi:role="line"
         id="tspan7561-5"
         x="-771.48413"
         y="78.467491"
         style="font-style:normal;font-variant:normal;font-weight:normal;font-stretch:normal;font-size:76.48454285px;font-family:'Showcard Gothic';-inkscape-font-specification:'Showcard Gothic, Normal';font-variant-ligatures:normal;font-variant-caps:normal;font-variant-numeric:normal;font-feature-settings:normal;text-align:start;writing-mode:lr-tb;text-anchor:start;fill:#ffff00;stroke-width:1.91216385px">BRAVE</tspan></text>
    <path
       sodipodi:type="star"
       style="opacity:0.73999999;fill:#0000ff;fill-opacity:1;stroke:#00ff00;stroke-width:0.26458332;filter:url(#filter5809-3)"
       id="path5723-1"
       sodipodi:sides="5"
       sodipodi:cx="-647.0602"
       sodipodi:cy="-0.31042059"
       sodipodi:r1="10.282066"
       sodipodi:r2="5.1410317"
       sodipodi:arg1="1.2722974"
       sodipodi:arg2="1.9006159"
       inkscape:flatsided="false"
       inkscape:rounded="0"
       inkscape:randomized="0"
       d="m -644.03637,9.5169627 -4.68885,-4.9634491 -6.74695,1.0487086 3.27159,-5.99314965 -3.08231,-6.09266225 6.7108,1.2594789 4.84199,-4.8141812 0.87591,6.7715507 6.07481,3.11733476 -6.16945,2.92556944 z"
       inkscape:transform-center-x="-0.9344098"
       inkscape:transform-center-y="0.049754769"
       inkscape:export-filename="C:\Users\HP\Desktop\brave\tie2s.png"
       inkscape:export-xdpi="10.277267"
       inkscape:export-ydpi="10.277267" />
    <path
       sodipodi:type="star"
       style="opacity:0.73999999;fill:#0000ff;fill-opacity:1;stroke:#00ff00;stroke-width:0.26458332;filter:url(#filter5809-4)"
       id="path5723-4"
       sodipodi:sides="5"
       sodipodi:cx="-97.51786"
       sodipodi:cy="105.74405"
       sodipodi:r1="10.282064"
       sodipodi:r2="5.1410317"
       sodipodi:arg1="1.2722974"
       sodipodi:arg2="1.9006159"
       inkscape:flatsided="false"
       inkscape:rounded="0"
       inkscape:randomized="0"
       d="m -94.494051,115.57143 -4.688847,-4.96345 -6.746952,1.04871 3.27159,-5.99315 -3.0823,-6.092659 6.710795,1.259479 4.841981,-4.81418 0.875916,6.77155 6.074811,3.11733 -6.169452,2.92557 z"
       inkscape:transform-center-x="-0.92556202"
       inkscape:transform-center-y="0.05840698"
       transform="matrix(0.99052989,0,0,1.1738469,-441.12341,43.034336)"
       inkscape:export-filename="C:\Users\HP\Desktop\brave\tie2s.png"
       inkscape:export-xdpi="10.277267"
       inkscape:export-ydpi="10.277267" />
    <path
       sodipodi:type="star"
       style="opacity:0.73999999;fill:#ffff00;fill-opacity:1;stroke:#00ff00;stroke-width:0.26458332;filter:url(#filter5809)"
       id="path5723"
       sodipodi:sides="5"
       sodipodi:cx="-514.77572"
       sodipodi:cy="103.60714"
       sodipodi:r1="10.282066"
       sodipodi:r2="5.1410317"
       sodipodi:arg1="1.2722974"
       sodipodi:arg2="1.9006159"
       inkscape:flatsided="false"
       inkscape:rounded="0"
       inkscape:randomized="0"
       d="m -511.75189,113.43452 -4.68884,-4.96345 -6.74695,1.04871 3.27158,-5.99315 -3.0823,-6.092659 6.7108,1.259478 4.84198,-4.814181 0.87592,6.771552 6.07481,3.11733 -6.16945,2.92557 z"
       inkscape:transform-center-x="-0.9344098"
       inkscape:transform-center-y="0.049754769"
       inkscape:export-filename="C:\Users\HP\Desktop\brave\tie2s.png"
       inkscape:export-xdpi="10.277267"
       inkscape:export-ydpi="10.277267" />
    <text
       xml:space="preserve"
       style="font-style:normal;font-variant:normal;font-weight:normal;font-stretch:normal;font-size:56.9412384px;line-height:125%;font-family:'Cooper Black';-inkscape-font-specification:'Cooper Black, Normal';font-variant-ligatures:normal;font-variant-caps:normal;font-variant-numeric:normal;font-feature-settings:normal;text-align:start;letter-spacing:0px;word-spacing:0px;writing-mode:lr-tb;text-anchor:start;fill:#ffffff;fill-opacity:1;stroke:none;stroke-width:36.75614166px;stroke-linecap:butt;stroke-linejoin:miter;stroke-opacity:1"
       x="-937.56024"
       y="109.53129"
       id="text7563-8-4-3"
       transform="scale(0.77674331,1.2874266)"
       inkscape:export-filename="C:\Users\HP\Desktop\brave\tie2s.png"
       inkscape:export-xdpi="10.277267"
       inkscape:export-ydpi="10.277267"><tspan
         sodipodi:role="line"
         id="tspan7561-5-5-1"
         x="-937.56024"
         y="109.53129"
         style="font-style:normal;font-variant:normal;font-weight:normal;font-stretch:normal;font-size:56.9412384px;font-family:'Cooper Black';-inkscape-font-specification:'Cooper Black, Normal';font-variant-ligatures:normal;font-variant-caps:normal;font-variant-numeric:normal;font-feature-settings:normal;text-align:start;writing-mode:lr-tb;text-anchor:start;fill:#ffffff;stroke-width:36.75614166px">FASHION</tspan></text>
    <text
       xml:space="preserve"
       style="font-style:normal;font-variant:normal;font-weight:normal;font-stretch:normal;font-size:56.9412384px;line-height:125%;font-family:'Cooper Black';-inkscape-font-specification:'Cooper Black, Normal';font-variant-ligatures:normal;font-variant-caps:normal;font-variant-numeric:normal;font-feature-settings:normal;text-align:start;letter-spacing:0px;word-spacing:0px;writing-mode:lr-tb;text-anchor:start;fill:#000000;fill-opacity:1;stroke:none;stroke-width:36.75614166px;stroke-linecap:butt;stroke-linejoin:miter;stroke-opacity:1"
       x="-935.72021"
       y="109.44779"
       id="text7563-8-4-3-8"
       transform="scale(0.77674331,1.2874266)"
       inkscape:export-filename="C:\Users\HP\Desktop\brave\tie2s.png"
       inkscape:export-xdpi="10.277267"
       inkscape:export-ydpi="10.277267"><tspan
         sodipodi:role="line"
         id="tspan7561-5-5-1-8"
         x="-935.72021"
         y="109.44779"
         style="font-style:normal;font-variant:normal;font-weight:normal;font-stretch:normal;font-size:56.9412384px;font-family:'Cooper Black';-inkscape-font-specification:'Cooper Black, Normal';font-variant-ligatures:normal;font-variant-caps:normal;font-variant-numeric:normal;font-feature-settings:normal;text-align:start;writing-mode:lr-tb;text-anchor:start;fill:#000000;stroke-width:36.75614166px">FASHION</tspan></text>
    <path
       sodipodi:type="star"
       style="opacity:1;fill:#505089;fill-opacity:1;stroke:#00ff00;stroke-width:0.26458332;filter:url(#filter6914)"
       id="path5828"
       sodipodi:sides="5"
       sodipodi:cx="-573.38891"
       sodipodi:cy="2.434214"
       sodipodi:r1="11.735537"
       sodipodi:r2="5.8677678"
       sodipodi:arg1="-0.26060239"
       sodipodi:arg2="0.36771614"
       inkscape:flatsided="false"
       inkscape:rounded="0"
       inkscape:randomized="0"
       d="m -562.04963,-0.58959536 -5.86377,5.13318506 0.90433,7.7405173 -6.69396,-3.9905384 -7.08221,3.2520234 1.72668,-7.5994733 -5.28138,-5.7306562 7.7611,-0.7061944 3.81814,-6.793764 3.06995,7.1630214 z"
       inkscape:transform-center-x="-0.19413575"
       inkscape:transform-center-y="-0.93440818"
       inkscape:export-filename="C:\Users\HP\Desktop\brave\tie2s.png"
       inkscape:export-xdpi="10.277267"
       inkscape:export-ydpi="10.277267" />
    <g
       id="g6544"
       transform="matrix(0.08279418,0.03494716,-0.02936653,0.06957297,-438.9878,-102.51961)"
       inkscape:export-filename="C:\Users\HP\Desktop\brave\tie2s.png"
       inkscape:export-xdpi="10.277267"
       inkscape:export-ydpi="10.277267">
      <g
         id="g6478" />
      <g
         id="g6480" />
      <g
         id="g6482" />
      <g
         id="g6484" />
      <g
         id="g6486" />
      <g
         id="g6488" />
      <g
         id="g6490" />
      <g
         id="g6492" />
      <g
         id="g6494" />
      <g
         id="g6496" />
      <g
         id="g6498" />
      <g
         id="g6500" />
      <g
         id="g6502" />
      <g
         id="g6504" />
      <g
         id="g6506" />
      <g
         id="g6688"
         transform="matrix(1.7560626,-0.88208686,0.68327277,1.926377,-1232.8889,3969.9665)">
        <g
           id="g6621">
          <path
             id="path6597"
             d="m 152.885,320.616 c -28.828,17.343 -64.427,34.669 -95.407,37.702 2.948,6.918 5.714,11.964 7.867,15.427 1.227,-0.876 2.725,-1.396 4.348,-1.396 23.144,0 55.768,-25.279 83.192,-51.733 z"
             style="fill:#505089;fill-opacity:1"
             inkscape:connector-curvature="0" />
          <path
             id="path6599"
             d="m 69.692,97.66 c -1.623,0 -3.121,-0.521 -4.348,-1.397 -2.155,3.467 -4.922,8.516 -7.872,15.439 30.981,3.032 66.582,20.347 95.414,37.692 C 125.461,122.94 92.837,97.66 69.692,97.66 Z"
             style="fill:#505089;fill-opacity:1"
             inkscape:connector-curvature="0" />
          <path
             id="path6601"
             d="m 400.308,372.34 c 1.621,0 3.118,0.519 4.344,1.394 2.153,-3.463 4.918,-8.508 7.865,-15.425 -30.979,-3.034 -66.575,-20.359 -95.401,-37.701 27.425,26.453 60.048,51.732 83.192,51.732 z"
             style="fill:#505089;fill-opacity:1"
             inkscape:connector-curvature="0" />
          <path
             id="path6603"
             d="m 317.122,149.376 c 28.828,-17.343 64.423,-34.655 95.401,-37.685 -2.949,-6.92 -5.716,-11.969 -7.87,-15.435 -1.227,0.875 -2.724,1.395 -4.346,1.395 -23.141,0 -55.762,25.274 -83.185,51.725 z"
             style="fill:#505089;fill-opacity:1"
             inkscape:connector-curvature="0" />
          <path
             id="path6605"
             d="m 430.76,126.855 c -23.16,-3.558 -57.171,7.168 -98.705,31.179 -27.438,15.862 -50.253,33.034 -57.957,39.007 v 75.909 c 7.704,5.973 30.519,23.145 57.957,39.007 41.528,24.008 75.527,34.734 98.697,31.181 C 436.33,332.17 455,291.248 455,234.995 c 0,-56.447 -18.651,-97.199 -24.24,-108.14 z m -70.617,142.713 c -1.111,3.041 -3.985,4.927 -7.045,4.927 -0.854,0 -1.725,-0.147 -2.574,-0.458 l -46.501,-16.999 c -3.891,-1.422 -5.891,-5.729 -4.469,-9.619 1.422,-3.89 5.729,-5.894 9.619,-4.469 l 46.501,16.999 c 3.89,1.422 5.89,5.728 4.469,9.619 z m -4.469,-59.527 -46.501,16.999 c -0.85,0.311 -1.72,0.458 -2.574,0.458 -3.061,0 -5.934,-1.886 -7.045,-4.927 -1.422,-3.891 0.578,-8.197 4.469,-9.619 l 46.501,-16.999 c 3.893,-1.422 8.197,0.58 9.619,4.469 1.421,3.891 -0.579,8.197 -4.469,9.619 z"
             style="fill:#ffff00;fill-opacity:1"
             inkscape:connector-curvature="0" />
          <path
             id="path6607"
             d="m 442.155,116.372 c -1.052,-1.803 -2.807,-3.086 -4.845,-3.542 -7.727,-1.726 -16.076,-1.992 -24.788,-1.14 -30.978,3.03 -66.572,20.343 -95.401,37.685 27.423,-26.451 60.043,-51.726 83.185,-51.726 1.622,0 3.119,-0.52 4.346,-1.395 1.907,-1.36 3.154,-3.585 3.154,-6.105 0,-4.142 -3.357,-7.5 -7.5,-7.5 -23.323,0 -54.048,18.068 -91.322,53.701 -22.187,21.211 -39.853,42.122 -45.965,49.554 h -56.05 c -6.12,-7.442 -23.78,-28.343 -45.956,-49.544 -37.273,-35.632 -67.997,-53.7 -91.321,-53.7 -4.143,0 -7.5,3.358 -7.5,7.5 0,2.519 1.246,4.743 3.152,6.103 1.227,0.876 2.725,1.397 4.348,1.397 23.145,0 55.769,25.28 83.194,51.734 -28.832,-17.345 -64.433,-34.661 -95.414,-37.692 -8.71,-0.852 -17.058,-0.586 -24.783,1.138 -2.038,0.455 -3.793,1.738 -4.845,3.542 C 26.708,118.332 0,164.933 0,235.005 c 0,70.072 26.708,116.673 27.845,118.623 1.052,1.803 2.807,3.086 4.845,3.542 4.955,1.106 10.154,1.617 15.552,1.617 3.024,0 6.107,-0.161 9.237,-0.467 30.98,-3.034 66.579,-20.359 95.407,-37.702 -27.425,26.454 -60.049,51.733 -83.193,51.733 -1.623,0 -3.121,0.52 -4.348,1.396 -1.906,1.36 -3.152,3.584 -3.152,6.104 0,4.142 3.357,7.5 7.5,7.5 23.323,0 54.048,-18.068 91.322,-53.701 22.176,-21.201 39.836,-42.102 45.956,-49.544 h 56.066 c 6.128,7.451 23.782,28.343 45.948,49.534 37.274,35.634 67.999,53.702 91.322,53.702 4.143,0 7.5,-3.358 7.5,-7.5 0,-2.521 -1.248,-4.746 -3.156,-6.106 -1.226,-0.874 -2.723,-1.394 -4.344,-1.394 -23.144,0 -55.767,-25.278 -83.191,-51.732 28.826,17.342 64.422,34.666 95.401,37.701 3.132,0.307 6.216,0.468 9.241,0.468 5.394,0 10.601,-0.511 15.552,-1.617 2.038,-0.455 3.793,-1.738 4.845,-3.542 C 443.292,351.67 470,305.069 470,234.997 470,164.923 443.292,118.322 442.155,116.372 Z m -110.1,195.584 C 304.617,296.094 281.802,278.922 274.098,272.949 V 197.04 c 7.704,-5.973 30.519,-23.144 57.957,-39.007 41.534,-24.011 75.545,-34.736 98.705,-31.179 5.589,10.94 24.24,51.693 24.24,108.14 0,56.253 -18.67,97.175 -24.248,108.142 -23.17,3.554 -57.169,-7.172 -98.697,-31.18 z M 39.24,343.145 C 33.651,332.204 15,291.452 15,235.005 15,178.752 33.67,137.83 39.248,126.863 c 23.168,-3.551 57.169,7.173 98.697,31.181 27.438,15.862 50.253,33.034 57.957,39.007 v 75.909 c -7.704,5.973 -30.519,23.144 -57.957,39.007 -41.534,24.01 -75.544,34.734 -98.705,31.178 z M 259.098,200.906 v 68.198 h -48.195 v -68.198 z"
             style="fill:#081c1f"
             inkscape:connector-curvature="0" />
          <path
             id="path6609"
             d="M 355.674,259.949 309.173,242.95 c -3.891,-1.425 -8.197,0.579 -9.619,4.469 -1.422,3.891 0.578,8.197 4.469,9.619 l 46.501,16.999 c 0.85,0.311 1.72,0.458 2.574,0.458 3.06,0 5.934,-1.886 7.045,-4.927 1.421,-3.891 -0.579,-8.197 -4.469,-9.619 z"
             style="fill:#081c1f"
             inkscape:connector-curvature="0" />
          <path
             id="path6611"
             d="m 350.523,195.953 -46.501,16.999 c -3.891,1.422 -5.891,5.729 -4.469,9.619 1.111,3.041 3.984,4.927 7.045,4.927 0.854,0 1.725,-0.147 2.574,-0.458 l 46.501,-16.999 c 3.891,-1.422 5.891,-5.729 4.469,-9.619 -1.421,-3.889 -5.726,-5.891 -9.619,-4.469 z"
             style="fill:#081c1f"
             inkscape:connector-curvature="0" />
          <rect
             id="rect6613"
             height="68.197998"
             width="48.195"
             style="fill:#0000ff;fill-opacity:1"
             y="200.90601"
             x="210.90199" />
          <path
             id="path6615"
             d="M 195.902,272.959 V 197.05 C 188.198,191.077 165.383,173.905 137.945,158.043 96.417,134.035 62.416,123.312 39.248,126.862 33.67,137.83 15,178.752 15,235.005 c 0,56.447 18.651,97.199 24.24,108.14 23.161,3.557 57.171,-7.168 98.705,-31.179 27.439,-15.862 50.253,-33.034 57.957,-39.007 z M 109.72,200.846 c 1.193,-3.967 5.376,-6.215 9.343,-5.021 l 56.501,16.999 c 3.966,1.193 6.214,5.376 5.021,9.343 -0.977,3.246 -3.955,5.341 -7.179,5.341 -0.716,0 -1.443,-0.103 -2.164,-0.32 l -56.501,-16.999 c -3.967,-1.193 -6.215,-5.376 -5.021,-9.343 z m 7.178,73.659 c -3.224,0 -6.202,-2.095 -7.179,-5.341 -1.193,-3.966 1.055,-8.149 5.021,-9.343 l 56.501,-16.998 c 3.964,-1.195 8.148,1.055 9.343,5.021 1.193,3.966 -1.055,8.149 -5.021,9.343 l -56.501,16.998 c -0.72,0.217 -1.448,0.32 -2.164,0.32 z"
             style="fill:#ffff00;fill-opacity:1"
             inkscape:connector-curvature="0" />
          <path
             id="path6617"
             d="m 114.74,210.189 56.501,16.999 c 0.721,0.217 1.448,0.32 2.164,0.32 3.224,0 6.202,-2.095 7.179,-5.341 1.193,-3.966 -1.055,-8.149 -5.021,-9.343 l -56.501,-16.999 c -3.967,-1.193 -8.149,1.054 -9.343,5.021 -1.193,3.967 1.055,8.15 5.021,9.343 z"
             style="fill:#081c1f"
             inkscape:connector-curvature="0" />
          <path
             id="path6619"
             d="m 180.584,246.64713 c -1.194,-3.967 -5.379,-6.216 -9.343,-5.021 l -56.501,16.998 c -3.966,1.193 -6.214,5.376 -5.021,9.343 0.977,3.246 3.955,5.341 7.179,5.341 0.716,0 1.443,-0.103 2.164,-0.32 l 56.501,-16.998 c 3.966,-1.194 6.214,-5.377 5.021,-9.343 z"
             style="fill:#081c1f"
             inkscape:connector-curvature="0" />
        </g>
        <g
           id="g6623" />
        <g
           id="g6625" />
        <g
           id="g6627" />
        <g
           id="g6629" />
        <g
           id="g6631" />
        <g
           id="g6633" />
        <g
           id="g6635" />
        <g
           id="g6637" />
        <g
           id="g6639" />
        <g
           id="g6641" />
        <g
           id="g6643" />
        <g
           id="g6645" />
        <g
           id="g6647" />
        <g
           id="g6649" />
        <g
           id="g6651" />
      </g>
      <path
         style="opacity:0.85;fill:#aa00d4;fill-opacity:1;stroke:#00ff00;stroke-width:2.85714293"
         d=""
         id="path6793"
         inkscape:connector-curvature="0"
         transform="matrix(2.7124159,-1.3624722,1.1449022,3.2278664,1203.0865,483.09713)" />
      <path
         style="opacity:0.85;fill:#aa00d4;fill-opacity:1;stroke:#00ff00;stroke-width:2.85714293"
         d=""
         id="path6795"
         inkscape:connector-curvature="0"
         transform="matrix(2.7124159,-1.3624722,1.1449022,3.2278664,1203.0865,483.09713)" />
    </g>
  </g>
</svg>
