<?xml version="1.0" encoding="UTF-8" standalone="no"?>
<!-- Created with Inkscape (http://www.inkscape.org/) -->

<svg
   xmlns:dc="http://purl.org/dc/elements/1.1/"
   xmlns:cc="http://creativecommons.org/ns#"
   xmlns:rdf="http://www.w3.org/1999/02/22-rdf-syntax-ns#"
   xmlns:svg="http://www.w3.org/2000/svg"
   xmlns="http://www.w3.org/2000/svg"
   xmlns:sodipodi="http://sodipodi.sourceforge.net/DTD/sodipodi-0.dtd"
   xmlns:inkscape="http://www.inkscape.org/namespaces/inkscape"
   width="210mm"
   height="297mm"
   viewBox="0 0 210 297"
   version="1.1"
   id="svg10928"
   inkscape:version="0.92.1 r15371"
   sodipodi:docname="svg fun emotion.svg"
   inkscape:export-filename="C:\wamp64\www\fan\svg\super png\laugh2k.png"
   inkscape:export-xdpi="5.9990711"
   inkscape:export-ydpi="5.9990711">
  <defs
     id="defs10922">
    <filter
       inkscape:collect="always"
       style="color-interpolation-filters:sRGB"
       id="filter16428-1"
       x="-0.023666667"
       width="1.0473332"
       y="-0.024342857"
       height="1.0486857">
      <feGaussianBlur
         inkscape:collect="always"
         stdDeviation="1.6101785"
         id="feGaussianBlur16430-2" />
    </filter>
  </defs>
  <sodipodi:namedview
     id="base"
     pagecolor="#ffffff"
     bordercolor="#666666"
     borderopacity="1.0"
     inkscape:pageopacity="0.0"
     inkscape:pageshadow="2"
     inkscape:zoom="0.028284271"
     inkscape:cx="2824.3511"
     inkscape:cy="-20889.28"
     inkscape:document-units="mm"
     inkscape:current-layer="layer1"
     showgrid="false"
     inkscape:window-width="1366"
     inkscape:window-height="748"
     inkscape:window-x="-8"
     inkscape:window-y="-8"
     inkscape:window-maximized="1"
     showguides="true"
     inkscape:guide-bbox="true">
    <sodipodi:guide
       position="-170.84523,369.66072"
       orientation="0,1"
       id="guide5197"
       inkscape:locked="false" />
  </sodipodi:namedview>
  <metadata
     id="metadata10925">
    <rdf:RDF>
      <cc:Work
         rdf:about="">
        <dc:format>image/svg+xml</dc:format>
        <dc:type
           rdf:resource="http://purl.org/dc/dcmitype/StillImage" />
        <dc:title />
      </cc:Work>
    </rdf:RDF>
  </metadata>
  <g
     inkscape:label="Layer 1"
     inkscape:groupmode="layer"
     id="layer1">
    <path
       style="opacity:1;fill:#ffe600;fill-opacity:1;stroke-width:0.37188879;filter:url(#filter16428-1)"
       id="path10300-9-0-7"
       sodipodi:type="arc"
       sodipodi:cx="-150.43452"
       sodipodi:cy="83.065475"
       sodipodi:rx="81.642853"
       sodipodi:ry="79.374992"
       sodipodi:start="0"
       sodipodi:end="6.1074307"
       sodipodi:open="true"
       d="M -68.791672,83.065475 A 81.642853,79.374992 0 0 1 -146.8484,162.36386 81.642853,79.374992 0 0 1 -231.76234,90.031762 81.642853,79.374992 0 0 1 -161.16522,4.3790731 81.642853,79.374992 0 0 1 -70.04939,69.186665"
       transform="matrix(10.586452,0,0,11.153734,883.90183,5305.6983)" />
    <path
       style="opacity:1;fill:#ffe680;fill-opacity:1;stroke-width:3.72539926"
       id="path10300-9-0-3-1"
       sodipodi:type="arc"
       sodipodi:cx="-708.66589"
       sodipodi:cy="6235.1694"
       sodipodi:rx="802.06055"
       sodipodi:ry="810.80127"
       sodipodi:start="0"
       sodipodi:end="6.1074307"
       sodipodi:open="true"
       d="M 93.394653,6235.1694 A 802.06055,810.80127 0 0 1 -673.43577,7045.1882 802.06055,810.80127 0 0 1 -1507.6315,6306.3288 802.06055,810.80127 0 0 1 -814.08437,5431.402 802.06055,810.80127 0 0 1 81.038811,6093.3999" />
    <path
       id="path4576-4-9"
       d="m -702.59825,6949.6556 c -288.26731,0 -550.03745,-258.8697 -560.18835,-553.9553 -0.2228,-6.41 2.0388,-12.6304 6.2629,-17.2461 4.2242,-4.6156 10.0386,-7.2128 16.1228,-7.2128 h 1064.37938 c 12.05553,0 21.94863,10.0576 22.39668,22.7591 4.48167,130.4973 -48.25545,265.7872 -144.72216,371.1531 -107.32294,117.2523 -254.6554,184.502 -404.25125,184.502 z"
       style="fill:#e8d174;fill-opacity:1;stroke-width:2.87506628"
       inkscape:connector-curvature="0" />
    <path
       id="path4580-8-6"
       d="m -179.34597,6393.6478 c 9.33289,271.5008 -237.07662,531.1968 -526.58784,531.1968 -289.38785,0 -528.45889,-259.696 -537.79179,-531.1968 z"
       style="fill:#f5f5f5;stroke-width:2.87506628"
       inkscape:connector-curvature="0" />
    <path
       id="path4588-4-3"
       d="m -274.44552,6693.7151 c 10.64389,-14.9682 20.50326,-30.4085 29.54504,-46.2736 h -7.13703 v -253.7937 h -22.40801 v 253.7937 h -201.67189 v -253.7937 h -22.40801 v 253.7937 h -201.67194 v -253.7937 h -22.40807 v 253.7937 h -201.67173 v -253.7937 h -22.40794 v 253.7937 h -201.6719 v -253.7937 h -22.4078 v 247.5023 c 7.0247,12.2293 14.4978,24.2106 22.4078,35.9089 v -6.0202 h 201.6719 v 190.8885 c 7.37216,4.0252 14.84522,7.8736 22.40794,11.5562 v -202.4447 h 201.67173 v 253.3218 c 5.55731,0.1877 11.08079,0.472 16.67162,0.472 1.91593,0 3.82051,-0.1561 5.73645,-0.1755 v -253.6047 h 201.67194 v 208.17 c 7.55159,-3.4231 15.03568,-6.988 22.40801,-10.7656 v -197.4044 h 201.67189 z"
       style="fill:#e6e6e6;stroke-width:2.87506628"
       inkscape:connector-curvature="0" />
    <path
       id="path4739-5"
       d="m -587.46987,6045.9061 c -19.48613,0 -35.27968,-20.7937 -35.27968,-46.4491 0,-59.7647 -36.93784,-108.3815 -82.31934,-108.3815 -45.38142,0 -82.31926,48.6168 -82.31926,108.3815 0,25.6554 -15.79363,46.4491 -35.27976,46.4491 -19.48613,0 -35.27968,-20.7937 -35.27968,-46.4491 0,-110.9826 68.58374,-201.2799 152.8787,-201.2799 84.29504,0 152.87878,90.2973 152.87878,201.2799 0,25.6554 -15.79355,46.4491 -35.27976,46.4491 z"
       style="fill:#263740;stroke-width:3.37342"
       inkscape:connector-curvature="0" />
    <path
       id="path4741-8"
       d="m -787.38815,5988.015 c 0,150.7896 -97.66604,259.171 -195.82598,259.171 H -1359.531 c -53.9897,0 -98.1717,-58.8356 -98.1717,-129.9184 v -344.6685 c 0,-71.0827 44.182,-129.2526 98.1717,-129.2526 h 474.48857 c 54.01318,0 97.67772,58.1699 97.67772,129.2526 z"
       style="fill:#263740;stroke-width:3.37342"
       inkscape:connector-curvature="0" />
    <path
       id="path4745-8"
       d="m -1359.531,6185.2538 c -27.7063,0 -51.1321,-31.1365 -51.1321,-67.9862 v -344.6685 c 0,-37.113 22.9319,-67.3204 51.1321,-67.3204 h 474.48857 c 27.92971,0 50.63806,30.192 50.63806,67.3204 v 215.4159 c -0.0117,117.981 -76.94499,197.2388 -148.78623,197.2388 z"
       style="fill:#c2e2f2;stroke-width:3.37342"
       inkscape:connector-curvature="0" />
    <path
       id="path4747-1"
       d="m -622.74955,5988.015 c 0,150.7896 97.66604,259.171 195.82598,259.171 h 376.316845 c 53.9896563,0 98.17169,-58.8356 98.17169,-129.9184 v -344.6685 c 0,-71.0827 -44.1820337,-129.2526 -98.17169,-129.2526 H -525.08351 c -54.01334,0 -97.6778,58.1699 -97.6778,129.2526 z"
       style="fill:#263740;stroke-width:3.37342"
       inkscape:connector-curvature="0" />
    <path
       id="path4749-4"
       d="m -426.92357,6185.2538 c -71.85309,0 -148.78641,-79.2578 -148.78641,-197.2388 v -215.4159 c 0,-37.113 22.7202,-67.3204 50.62647,-67.3204 h 474.488546 c 28.188457,0 51.14387651,30.192 51.14387651,67.3204 v 344.6685 c 0,36.8497 -23.41402051,67.9862 -51.14387651,67.9862 z"
       style="fill:#c2e2f2;stroke-width:3.37342"
       inkscape:connector-curvature="0" />
    <rect
       id="rect4755-7"
       height="92.898399"
       width="258.7179"
       style="fill:#263740;stroke-width:3.37342"
       y="5674.3135"
       x="-834.42773" />
    <path
       id="path4757-9"
       d="m -1167.3624,5705.2787 -240.3136,433.5878 c 7.0089,26.5845 26.0952,46.3873 48.145,46.3873 h 23.0847 l 134.5122,-242.6973 131.5086,-237.2778 z"
       style="fill:#daeaf2;stroke-width:3.37342"
       inkscape:connector-curvature="0"
       sodipodi:nodetypes="ccscccc" />
    <polygon
       transform="matrix(2.939976,0,0,3.8707666,-1457.7027,5147.8883)"
       id="polygon4759-5"
       points="16,216.3 16,239.556 85.728,144 68.756,144 "
       style="fill:#daeaf2" />
    <path
       id="path4761-0"
       d="m -381.94203,6185.2538 240.06665,-479.9751 h -96.9251 l -234.5983,469.044 c 15.19381,7.0139 30.94032,10.9311 46.47521,10.9311 z"
       style="fill:#daeaf2;stroke-width:3.37342"
       inkscape:connector-curvature="0" />
  </g>
</svg>
