<?xml version="1.0" encoding="UTF-8" standalone="no"?>
<!-- Created with Inkscape (http://www.inkscape.org/) -->

<svg
   xmlns:dc="http://purl.org/dc/elements/1.1/"
   xmlns:cc="http://creativecommons.org/ns#"
   xmlns:rdf="http://www.w3.org/1999/02/22-rdf-syntax-ns#"
   xmlns:svg="http://www.w3.org/2000/svg"
   xmlns="http://www.w3.org/2000/svg"
   xmlns:sodipodi="http://sodipodi.sourceforge.net/DTD/sodipodi-0.dtd"
   xmlns:inkscape="http://www.inkscape.org/namespaces/inkscape"
   width="210mm"
   height="297mm"
   viewBox="0 0 210 297"
   version="1.1"
   id="svg6902"
   inkscape:version="0.92.1 r15371"
   sodipodi:docname="Svg care  emotion.svg"
   inkscape:export-filename="C:\wamp64\www\fan\svg\super png\oo2ffks.png"
   inkscape:export-xdpi="5.7454967"
   inkscape:export-ydpi="5.7454967">
  <defs
     id="defs6896">
    <filter
       inkscape:collect="always"
       style="color-interpolation-filters:sRGB"
       id="filter6939-5-4"
       x="-0.11022518"
       width="1.2204504"
       y="-0.13096564"
       height="1.2619313">
      <feGaussianBlur
         inkscape:collect="always"
         stdDeviation="3.2080122"
         id="feGaussianBlur6941-5-7" />
    </filter>
    <filter
       inkscape:collect="always"
       style="color-interpolation-filters:sRGB"
       id="filter6714-0-2"
       x="-0.023666667"
       width="1.0473332"
       y="-0.024342857"
       height="1.0486857">
      <feGaussianBlur
         inkscape:collect="always"
         stdDeviation="1.6101785"
         id="feGaussianBlur6716-0-1" />
    </filter>
  </defs>
  <sodipodi:namedview
     id="base"
     pagecolor="#ffffff"
     bordercolor="#666666"
     borderopacity="1.0"
     inkscape:pageopacity="0.0"
     inkscape:pageshadow="2"
     inkscape:zoom="0.087499999"
     inkscape:cx="-4208.379"
     inkscape:cy="4070.6988"
     inkscape:document-units="mm"
     inkscape:current-layer="layer1"
     showgrid="false"
     inkscape:window-width="1366"
     inkscape:window-height="748"
     inkscape:window-x="-8"
     inkscape:window-y="-8"
     inkscape:window-maximized="1" />
  <metadata
     id="metadata6899">
    <rdf:RDF>
      <cc:Work
         rdf:about="">
        <dc:format>image/svg+xml</dc:format>
        <dc:type
           rdf:resource="http://purl.org/dc/dcmitype/StillImage" />
        <dc:title />
      </cc:Work>
    </rdf:RDF>
  </metadata>
  <g
     inkscape:label="Layer 1"
     inkscape:groupmode="layer"
     id="layer1">
    <path
       style="opacity:1;fill:#808d79;fill-opacity:1;stroke-width:0.37188879;filter:url(#filter6714-0-2)"
       id="path10300-9-0-8-7"
       sodipodi:type="arc"
       sodipodi:cx="-165.96481"
       sodipodi:cy="157.14882"
       sodipodi:rx="81.642853"
       sodipodi:ry="79.374992"
       sodipodi:start="0"
       sodipodi:end="6.1074307"
       sodipodi:open="true"
       d="m -84.32196,157.14882 a 81.642853,79.374992 0 0 1 -78.05673,79.29838 81.642853,79.374992 0 0 1 -84.91394,-72.33209 81.642853,79.374992 0 0 1 70.59712,-85.652693 81.642853,79.374992 0 0 1 91.115831,64.807593"
       transform="matrix(2.4558211,0,0,2.5341436,-1125.4915,-1579.8805)" />
    <path
       style="opacity:1;fill:#dee3db;fill-opacity:1;stroke-width:0.85526663"
       id="path10300-9-0-3-1-0"
       sodipodi:type="arc"
       sodipodi:cx="-1533.0714"
       sodipodi:cy="-1180.9656"
       sodipodi:rx="186.06017"
       sodipodi:ry="184.21515"
       sodipodi:start="0"
       sodipodi:end="6.1074307"
       sodipodi:open="true"
       d="m -1347.0112,-1180.9656 a 186.06017,184.21515 0 0 1 -177.8876,184.03738 186.06017,184.21515 0 0 1 -193.5148,-167.86988 186.06017,184.21515 0 0 1 160.8875,-198.7845 186.06017,184.21515 0 0 1 207.6486,150.4068" />
    <path
       id="path5663-5-0-9"
       d="m -1420.9836,-1231.3644 c -1.4887,0 -3.0007,-0.3976 -4.392,-1.23 -24.5837,-14.7282 -54.7415,-13.3795 -55.0507,-13.367 -3.3878,0.171 -6.5925,-1.7104 -8.2526,-4.8717 -1.6575,-3.1557 -1.4887,-7.039 0.4338,-10.0194 0.9782,-1.5158 24.4942,-36.9909 70.6818,-26.3917 4.8375,1.1112 7.907,6.1776 6.864,11.3157 -1.0457,5.1422 -5.8287,8.4097 -10.648,7.2943 -16.1571,-3.7176 -28.5562,0.036 -37.2011,5.1091 12.2562,1.8346 27.7365,5.8145 41.9684,14.343 4.3088,2.5815 5.8313,8.3863 3.4034,12.9681 -1.6419,3.1047 -4.6803,4.8496 -7.807,4.8496 z"
       style="fill:#272525;stroke-width:1.33911824"
       inkscape:connector-curvature="0" />
    <ellipse
       id="circle5665-1-4-3"
       cy="-1256.355"
       cx="-1604.1998"
       style="fill:#ffffff;fill-opacity:0.98823529;stroke-width:1.33911824"
       rx="40.308281"
       ry="42.835827" />
    <ellipse
       id="circle5667-9-0-2"
       cy="-1256.355"
       cx="-1604.1998"
       style="fill:#272525;stroke-width:1.33911824"
       rx="20.15414"
       ry="21.417913" />
    <path
       style="opacity:1;fill:#818d79;fill-opacity:0.98823529;stroke-width:0.2455623"
       id="path10300-9-0-3-8-9-6-1"
       sodipodi:type="arc"
       sodipodi:cx="-1525.6455"
       sodipodi:cy="-1089.6897"
       sodipodi:rx="53.32159"
       sodipodi:ry="52.990242"
       sodipodi:start="0"
       sodipodi:end="6.1074307"
       sodipodi:open="true"
       d="m -1472.3239,-1089.6897 a 53.32159,52.990242 0 0 1 -50.9795,52.9391 53.32159,52.990242 0 0 1 -55.4579,-48.2884 53.32159,52.990242 0 0 1 46.1075,-57.1812 53.32159,52.990242 0 0 1 59.5085,43.2651" />
    <path
       id="path5233-2-0-5"
       d="m -121.36362,164.01551 c -17.04658,-9.02441 -34.92501,-1.29858 -34.92501,17.99168 0,19.29024 24.34167,33.86667 34.92501,37.04167 10.58332,-3.175 34.924996,-17.75143 34.924996,-37.04167 0,-19.29026 -17.878436,-27.01609 -34.924996,-17.99168 z"
       style="fill:#d40000;fill-opacity:1;stroke-width:0.26458332;filter:url(#filter6939-5-4)"
       inkscape:connector-curvature="0"
       transform="matrix(2.6012161,0,0,2.8870286,-1141.166,-1639.3419)" />
    <path
       id="path5233-2-7-5-6"
       d="m -1457.944,-1145.6092 c -34.5985,-17.0643 -70.8853,-2.4554 -70.8853,34.0206 0,36.476 49.4049,64.0387 70.8853,70.0423 21.4805,-6.0036 70.8855,-33.5663 70.8855,-70.0423 0,-36.476 -36.287,-51.0849 -70.8855,-34.0206 z"
       style="opacity:0.68000034;fill:#d40000;fill-opacity:0.99447512;stroke-width:0.51833147"
       inkscape:connector-curvature="0" />
  </g>
</svg>
