<?xml version="1.0" encoding="UTF-8" standalone="no"?>
<!-- Created with Inkscape (http://www.inkscape.org/) -->

<svg
   xmlns:dc="http://purl.org/dc/elements/1.1/"
   xmlns:cc="http://creativecommons.org/ns#"
   xmlns:rdf="http://www.w3.org/1999/02/22-rdf-syntax-ns#"
   xmlns:svg="http://www.w3.org/2000/svg"
   xmlns="http://www.w3.org/2000/svg"
   xmlns:sodipodi="http://sodipodi.sourceforge.net/DTD/sodipodi-0.dtd"
   xmlns:inkscape="http://www.inkscape.org/namespaces/inkscape"
   width="210mm"
   height="297mm"
   viewBox="0 0 210 297"
   version="1.1"
   id="svg8"
   inkscape:version="0.92.1 r15371"
   sodipodi:docname="original emoji.svg">
  <defs
     id="defs2" />
  <sodipodi:namedview
     id="base"
     pagecolor="#ffffff"
     bordercolor="#666666"
     borderopacity="1.0"
     inkscape:pageopacity="0.0"
     inkscape:pageshadow="2"
     inkscape:zoom="0.12374369"
     inkscape:cx="-143.83393"
     inkscape:cy="565.0915"
     inkscape:document-units="mm"
     inkscape:current-layer="layer1"
     showgrid="false"
     inkscape:window-width="1366"
     inkscape:window-height="748"
     inkscape:window-x="-8"
     inkscape:window-y="-8"
     inkscape:window-maximized="1" />
  <metadata
     id="metadata5">
    <rdf:RDF>
      <cc:Work
         rdf:about="">
        <dc:format>image/svg+xml</dc:format>
        <dc:type
           rdf:resource="http://purl.org/dc/dcmitype/StillImage" />
        <dc:title></dc:title>
      </cc:Work>
    </rdf:RDF>
  </metadata>
  <g
     inkscape:label="Layer 1"
     inkscape:groupmode="layer"
     id="layer1">
    <g
       id="g4651"
       transform="matrix(0.26458333,0,0,0.26458333,-303.59048,-61.019044)">
      <circle
         id="circle4572"
         r="256"
         cy="256"
         cx="256"
         style="fill:#ffc200" />
      <g
         id="g4578">
        <path
           id="path4574"
           d="M 256,0 C 249.26,0 242.608,0.34 236,0.852 368.032,11.064 472,121.348 472,256 472,390.652 368.032,500.928 236,511.148 242.608,511.656 249.26,512 256,512 397.392,512 512,397.392 512,256 512,114.608 397.392,0 256,0 Z"
           style="fill:#f2b800"
           inkscape:connector-curvature="0" />
        <path
           id="path4576"
           d="M 260,456 C 157.084,456 63.628,368.28 60.004,268.288 c -0.08,-2.172 0.728,-4.28 2.236,-5.844 C 63.748,260.88 65.824,260 67.996,260 h 380 c 4.304,0 7.836,3.408 7.996,7.712 1.6,44.22 -17.228,90.064 -51.668,125.768 C 366.008,433.212 313.408,456 260,456 Z"
           style="fill:#f2b800"
           inkscape:connector-curvature="0" />
      </g>
      <path
         id="path4580"
         d="M 448,268 C 451.332,360 363.36,448 260,448 156.684,448 71.332,360 68,268 Z"
         style="fill:#f5f5f5"
         inkscape:connector-curvature="0" />
      <g
         id="g4586">
        <path
           id="path4582"
           d="m 208,168 c -6.628,0 -12,-5.372 -12,-12 0,-19.848 -16.152,-36 -36,-36 -19.848,0 -36,16.152 -36,36 0,6.628 -5.372,12 -12,12 -6.628,0 -12,-5.372 -12,-12 0,-33.084 26.916,-60 60,-60 33.084,0 60,26.916 60,60 0,6.628 -5.372,12 -12,12 z"
           style="fill:#263740"
           inkscape:connector-curvature="0" />
        <path
           id="path4584"
           d="m 408,168 c -6.628,0 -12,-5.372 -12,-12 0,-19.848 -16.152,-36 -36,-36 -19.848,0 -36,16.152 -36,36 0,6.628 -5.372,12 -12,12 -6.628,0 -12,-5.372 -12,-12 0,-33.084 26.916,-60 60,-60 33.084,0 60,26.916 60,60 0,6.628 -5.372,12 -12,12 z"
           style="fill:#263740"
           inkscape:connector-curvature="0" />
      </g>
      <path
         id="path4588"
         d="m 414.048,369.68 c 3.8,-5.072 7.32,-10.304 10.548,-15.68 h -2.548 v -86 h -8 v 86 h -72 v -86 h -8 v 86 h -72 v -86 h -8 v 86 h -72 v -86 h -8 v 86 h -72 v -86 h -8 v 83.868 c 2.508,4.144 5.176,8.204 8,12.168 v -2.04 h 72 v 64.684 c 2.632,1.364 5.3,2.668 8,3.916 v -68.6 h 72 v 85.84 c 1.984,0.064 3.956,0.16 5.952,0.16 0.684,0 1.364,-0.052 2.048,-0.06 V 362 h 72 v 70.54 c 2.696,-1.16 5.368,-2.368 8,-3.648 V 362 h 72 z"
         style="fill:#e6e6e6"
         inkscape:connector-curvature="0" />
      <g
         id="g4590" />
      <g
         id="g4592" />
      <g
         id="g4594" />
      <g
         id="g4596" />
      <g
         id="g4598" />
      <g
         id="g4600" />
      <g
         id="g4602" />
      <g
         id="g4604" />
      <g
         id="g4606" />
      <g
         id="g4608" />
      <g
         id="g4610" />
      <g
         id="g4612" />
      <g
         id="g4614" />
      <g
         id="g4616" />
      <g
         id="g4618" />
    </g>
    <g
       id="g4729"
       transform="matrix(0.26458333,0,0,0.26458333,-309.63166,105.92627)">
      <circle
         id="circle4653"
         r="256"
         cy="256"
         cx="256"
         style="fill:#273b7a" />
      <path
         id="path4655"
         d="M 154.721,355.837 305.99,507.106 C 407.273,487.055 487.057,407.269 507.108,305.987 L 357.136,156.015 Z"
         style="fill:#121149"
         inkscape:connector-curvature="0" />
      <circle
         id="circle4657"
         r="142.222"
         cy="256"
         cx="256"
         style="fill:#ffc61b" />
      <path
         id="path4659"
         d="M 398.222,256 C 398.222,177.454 334.548,113.778 256,113.778 v 284.444 c 78.548,0 142.222,-63.676 142.222,-142.222 z"
         style="fill:#eaa22f"
         inkscape:connector-curvature="0" />
      <path
         id="path4661"
         d="m 378.683,181.01 h -91.51 c -8.316,0 -15.479,4.96 -18.735,12.067 h -24.876 c -3.256,-7.108 -10.421,-12.067 -18.737,-12.067 h -91.51 c -11.367,0 -20.614,9.249 -20.614,20.616 v 11.276 c 0,36.597 29.774,66.37 66.37,66.37 33.377,0 61.066,-24.769 65.683,-56.889 h 22.494 c 4.617,32.12 32.306,56.889 65.683,56.889 36.597,0 66.37,-29.774 66.37,-66.37 V 201.626 C 399.3,190.259 390.051,181.01 378.683,181.01 Z"
         style="fill:#59595b"
         inkscape:connector-curvature="0" />
      <path
         id="path4663"
         d="m 378.683,181.01 h -91.51 c -8.316,0 -15.479,4.96 -18.735,12.067 h -11.862 v 29.306 h 10.671 c 4.617,32.12 32.306,56.889 65.683,56.889 36.597,0 66.37,-29.774 66.37,-66.37 v -11.276 c 0,-11.367 -9.249,-20.616 -20.617,-20.616 z"
         style="fill:#272525"
         inkscape:connector-curvature="0" />
      <path
         id="path4665"
         d="m 255.998,319.29 c -20.551,0 -38.857,-12.943 -44.52,-31.473 -1.114,-3.641 0.936,-7.497 4.579,-8.609 3.644,-1.117 7.497,0.938 8.609,4.579 3.908,12.784 16.791,21.713 31.332,21.713 14.543,0 27.426,-8.928 31.332,-21.713 1.114,-3.639 4.961,-5.699 8.609,-4.579 3.641,1.114 5.692,4.967 4.579,8.609 -5.661,18.53 -23.967,31.473 -44.52,31.473 z"
         style="fill:#c92f00"
         inkscape:connector-curvature="0" />
      <path
         id="path4667"
         d="m 295.939,279.207 c -3.648,-1.119 -7.497,0.94 -8.609,4.579 -3.906,12.784 -16.789,21.713 -31.332,21.713 -0.048,0 -0.095,-0.005 -0.141,-0.005 v 13.791 c 0.048,0 0.095,0.005 0.141,0.005 20.552,0 38.859,-12.943 44.52,-31.473 1.114,-3.643 -0.936,-7.498 -4.579,-8.61 z"
         style="fill:#930000"
         inkscape:connector-curvature="0" />
      <g
         id="g4669" />
      <g
         id="g4671" />
      <g
         id="g4673" />
      <g
         id="g4675" />
      <g
         id="g4677" />
      <g
         id="g4679" />
      <g
         id="g4681" />
      <g
         id="g4683" />
      <g
         id="g4685" />
      <g
         id="g4687" />
      <g
         id="g4689" />
      <g
         id="g4691" />
      <g
         id="g4693" />
      <g
         id="g4695" />
      <g
         id="g4697" />
    </g>
    <g
       id="g4837"
       transform="matrix(0.26458333,0,0,0.26458333,-330.04881,254.2131)">
      <circle
         id="circle4731"
         r="248"
         cy="256"
         cx="256"
         style="fill:#ffc200" />
      <g
         id="g4737">
        <path
           id="path4733"
           d="M 256,8 C 249.256,8 242.6,8.344 236,8.872 363.592,19.068 464,125.772 464,256 464,386.228 363.592,492.928 236,503.128 242.6,503.656 249.256,504 256,504 392.96,504 504,392.968 504,256 504,119.032 392.96,8 256,8 Z"
           style="fill:#f2b800"
           inkscape:connector-curvature="0" />
        <path
           id="path4735"
           d="m 41.392,292 h 128 c 31.776,0 63.336,-25.392 66.316,-61.416 0.184,-0.832 0.292,-1.692 0.292,-2.584 0,-15.44 12.564,-28 28,-28 15.436,0 28,12.56 28,28 0,0.888 0.108,1.748 0.292,2.584 2.98,36.032 34.54,61.416 66.316,61.416 h 128 c 5.484,0 10.656,-1.38 15.24,-3.772 C 503.22,277.672 504,266.928 504,256 504,212.46 492.748,171.564 473.04,136 H 325.22 c -8.224,0 -15.728,3.028 -21.52,8 h -79.4 c -5.792,-4.972 -13.296,-8 -21.52,-8 H 41.392 c -0.844,0 -1.672,0.064 -2.5,0.128 C 19.228,171.664 8,212.512 8,256 c 0,1.624 0.084,3.228 0.116,4.836 C 9.368,278.1 23.836,292 41.392,292 Z m 250.68,-124 c -0.016,0.464 -0.072,0.92 -0.072,1.392 v 14.86 C 283.908,179.056 274.312,176 264,176 c -10.312,0 -19.908,3.056 -28,8.252 v -14.86 c 0,-0.468 -0.056,-0.924 -0.072,-1.392 z"
           style="fill:#f2b800"
           inkscape:connector-curvature="0" />
      </g>
      <g
         id="g4743">
        <path
           id="path4739"
           d="m 296,232 c -6.628,0 -12,-5.372 -12,-12 0,-15.44 -12.564,-28 -28,-28 -15.436,0 -28,12.56 -28,28 0,6.628 -5.372,12 -12,12 -6.628,0 -12,-5.372 -12,-12 0,-28.672 23.328,-52 52,-52 28.672,0 52,23.328 52,52 0,6.628 -5.372,12 -12,12 z"
           style="fill:#263740"
           inkscape:connector-curvature="0" />
        <path
           id="path4741"
           d="M 228,217.044 C 228,256 194.78,284 161.392,284 h -128 C 15.028,284 0,268.8 0,250.436 V 161.392 C 0,143.028 15.028,128 33.392,128 h 161.392 c 18.372,0 33.224,15.028 33.224,33.392 z"
           style="fill:#263740"
           inkscape:connector-curvature="0" />
      </g>
      <path
         id="path4745"
         d="M 33.392,268 C 23.968,268 16,259.956 16,250.436 V 161.392 C 16,151.804 23.8,144 33.392,144 h 161.392 c 9.5,0 17.224,7.8 17.224,17.392 v 55.652 C 212.004,247.524 185.836,268 161.4,268 Z"
         style="fill:#c2e2f2"
         inkscape:connector-curvature="0" />
      <path
         id="path4747"
         d="M 284,217.044 C 284,256 317.22,284 350.608,284 h 128 C 496.972,284 512,268.8 512,250.436 V 161.392 C 512,143.028 496.972,128 478.608,128 H 317.22 c -18.372,0 -33.224,15.028 -33.224,33.392 z"
         style="fill:#263740"
         inkscape:connector-curvature="0" />
      <path
         id="path4749"
         d="M 350.608,268 C 326.168,268 300,247.524 300,217.044 V 161.392 C 300,151.804 307.728,144 317.22,144 h 161.392 c 9.588,0 17.396,7.8 17.396,17.392 v 89.044 c 0,9.52 -7.964,17.564 -17.396,17.564 z"
         style="fill:#c2e2f2"
         inkscape:connector-curvature="0" />
      <path
         id="path4751"
         d="m 256,461.916 c -61.608,0 -120.028,-26.048 -160.28,-71.452 -3.936,-4.44 -5.916,-10.164 -5.568,-16.1 0.36,-5.936 3.004,-11.376 7.448,-15.32 4.08,-3.616 9.32,-5.608 14.764,-5.608 6.368,0 12.436,2.74 16.66,7.5 31.812,35.884 78.088,56.46 126.968,56.46 48.752,0 94.932,-20.468 126.696,-56.156 4.232,-4.744 10.288,-7.46 16.636,-7.46 5.452,0 10.712,2 14.788,5.632 4.444,3.948 7.08,9.396 7.42,15.328 0.352,5.936 -1.64,11.656 -5.584,16.096 -40.196,45.168 -98.504,71.08 -159.948,71.08 z"
         style="fill:#f2b800"
         inkscape:connector-curvature="0" />
      <path
         id="path4753"
         d="m 256,450.78 c -58.42,0 -113.808,-24.672 -151.952,-67.704 -4.08,-4.592 -3.656,-11.632 0.94,-15.712 4.604,-4.084 11.636,-3.656 15.712,0.944 33.924,38.272 83.244,60.212 135.3,60.212 51.928,0 101.14,-21.828 135.012,-59.888 4.084,-4.584 11.116,-5 15.716,-0.916 4.588,4.084 5,11.12 0.916,15.712 C 369.548,426.236 314.28,450.78 256,450.78 Z"
         style="fill:#f5f5f5"
         inkscape:connector-curvature="0" />
      <rect
         id="rect4755"
         height="24"
         width="88"
         style="fill:#263740"
         y="136"
         x="212" />
      <g
         id="g4765">
        <path
           id="path4757"
           d="M 98.756,144 17.016,256.016 C 19.4,262.884 25.892,268 33.392,268 h 7.852 l 90.484,-124 z"
           style="fill:#daeaf2"
           inkscape:connector-curvature="0" />
        <polygon
           id="polygon4759"
           points="68.756,144 16,216.3 16,239.556 85.728,144 "
           style="fill:#daeaf2" />
        <path
           id="path4761"
           d="M 365.908,268 447.564,144 H 414.596 L 334.8,265.176 c 5.168,1.812 10.524,2.824 15.808,2.824 z"
           style="fill:#daeaf2"
           inkscape:connector-curvature="0" />
        <path
           id="path4763"
           d="m 313.772,251.536 c 3.304,3.5 7.044,6.504 11.076,8.948 L 401.564,144 h -16.976 z"
           style="fill:#daeaf2"
           inkscape:connector-curvature="0" />
      </g>
      <g
         id="g4767" />
      <g
         id="g4769" />
      <g
         id="g4771" />
      <g
         id="g4773" />
      <g
         id="g4775" />
      <g
         id="g4777" />
      <g
         id="g4779" />
      <g
         id="g4781" />
      <g
         id="g4783" />
      <g
         id="g4785" />
      <g
         id="g4787" />
      <g
         id="g4789" />
      <g
         id="g4791" />
      <g
         id="g4793" />
      <g
         id="g4795" />
    </g>
    <g
       id="g4963"
       transform="matrix(0.26458333,0,0,0.26458333,41.853692,271.9891)">
      <circle
         id="circle4839"
         r="240"
         cy="240"
         cx="256"
         style="fill:#ffc200" />
      <path
         id="path4841"
         d="M 256,0 C 249.256,0 242.6,0.348 236,0.896 359.176,11.068 456,114.192 456,240 456,365.808 359.176,468.932 236,479.104 242.6,479.652 249.256,480 256,480 388.548,480 496,372.552 496,240 496,107.448 388.548,0 256,0 Z"
         style="fill:#f2b800"
         inkscape:connector-curvature="0" />
      <g
         id="g4847">
        <rect
           id="rect4843"
           height="24"
           width="80"
           style="fill:#263740"
           y="168"
           x="216" />
        <circle
           id="circle4845"
           r="112"
           cy="192"
           cx="392"
           style="fill:#263740" />
      </g>
      <path
         id="path4849"
         d="m 392,288 c -52.928,0 -96,-43.064 -96,-96 0,-52.936 43.072,-96 96,-96 52.928,0 96,43.064 96,96 0,52.936 -43.072,96 -96,96 z"
         style="fill:#c2e2f2"
         inkscape:connector-curvature="0" />
      <g
         id="g4855">
        <circle
           id="circle4851"
           r="8"
           cy="140"
           cx="348"
           style="fill:#daeaf2" />
        <circle
           id="circle4853"
           r="16"
           cy="176"
           cx="348"
           style="fill:#daeaf2" />
      </g>
      <circle
         id="circle4857"
         r="12"
         cy="220"
         cx="371"
         style="fill:#242424" />
      <circle
         id="circle4859"
         r="112"
         cy="192"
         cx="120"
         style="fill:#263740" />
      <path
         id="path4861"
         d="m 120,288 c -52.932,0 -96,-43.064 -96,-96 0,-52.936 43.068,-96 96,-96 52.932,0 96,43.064 96,96 0,52.936 -43.068,96 -96,96 z"
         style="fill:#c2e2f2"
         inkscape:connector-curvature="0" />
      <g
         id="g4867">
        <circle
           id="circle4863"
           r="8"
           cy="140"
           cx="72"
           style="fill:#daeaf2" />
        <circle
           id="circle4865"
           r="16"
           cy="176"
           cx="72"
           style="fill:#daeaf2" />
      </g>
      <circle
         id="circle4869"
         r="12"
         cy="220"
         cx="141"
         style="fill:#242424" />
      <path
         id="path4871"
         d="m 256.152,428 c -61.608,0 -120.028,-26.048 -160.28,-71.452 -3.94,-4.436 -5.92,-10.164 -5.568,-16.096 0.36,-5.932 3.004,-11.38 7.448,-15.32 4.08,-3.616 9.32,-5.608 14.768,-5.608 6.368,0 12.436,2.74 16.66,7.5 31.812,35.884 78.088,56.46 126.968,56.46 48.752,0 94.928,-20.468 126.696,-56.156 4.228,-4.748 10.288,-7.46 16.636,-7.46 5.456,0 10.712,2 14.792,5.628 4.436,3.952 7.076,9.396 7.416,15.332 0.356,5.936 -1.636,11.656 -5.588,16.096 C 375.908,402.092 317.6,428 256.152,428 Z"
         style="fill:#f2b800"
         inkscape:connector-curvature="0" />
      <path
         id="path4873"
         d="m 256.152,416.868 c -58.424,0 -113.808,-24.676 -151.952,-67.704 -4.08,-4.596 -3.656,-11.632 0.94,-15.712 4.604,-4.084 11.636,-3.656 15.712,0.94 33.924,38.264 83.244,60.216 135.3,60.216 51.932,0 101.14,-21.828 135.012,-59.896 4.084,-4.584 11.116,-5 15.712,-0.916 4.596,4.084 5.008,11.12 0.916,15.712 -38.092,42.812 -93.364,67.36 -151.64,67.36 z"
         style="fill:#f5f5f5"
         inkscape:connector-curvature="0" />
      <path
         id="path4875"
         d="m 360,504 c 0,4.4 -3.6,8 -8,8 l -64,-24 c -4.4,0 -8,-3.6 -8,-8 v -16 c 0,-4.4 3.6,-8 8,-8 l 64,-24 c 4.4,0 8,3.6 8,8 z"
         style="fill:#263740"
         inkscape:connector-curvature="0" />
      <path
         id="path4877"
         d="m 352,432 -3.584,1.344 C 350.572,434.78 352,437.232 352,440 v 64 c 0,2.768 -1.428,5.22 -3.584,6.656 L 352,512 c 4.4,0 8,-3.6 8,-8 v -64 c 0,-4.4 -3.6,-8 -8,-8 z"
         style="fill:#1e2c33"
         inkscape:connector-curvature="0" />
      <path
         id="path4879"
         d="m 152,504 c 0,4.4 3.6,8 8,8 l 64,-24 c 4.4,0 8,-3.6 8,-8 v -16 c 0,-4.4 -3.6,-8 -8,-8 l -64,-24 c -4.4,0 -8,3.6 -8,8 z"
         style="fill:#263740"
         inkscape:connector-curvature="0" />
      <path
         id="path4881"
         d="m 224,456 -64,-24 c -1.628,0 -3.148,0.5 -4.416,1.344 L 216,456 c 4.4,0 8,7.6 8,12 v 8 c 0,4.4 -3.6,12 -8,12 l -60.416,22.656 C 156.852,511.5 158.372,512 160,512 l 64,-24 c 4.4,0 8,-3.6 8,-8 v -16 c 0,-4.4 -3.6,-8 -8,-8 z"
         style="fill:#1e2c33"
         inkscape:connector-curvature="0" />
      <path
         id="path4883"
         d="m 292,488 c 0,4.4 -3.6,8 -8,8 h -56 c -4.4,0 -8,-3.6 -8,-8 v -32 c 0,-4.4 3.6,-8 8,-8 h 56 c 4.4,0 8,3.6 8,8 z"
         style="fill:#263740"
         inkscape:connector-curvature="0" />
      <path
         id="path4885"
         d="m 284,448 h -8 c 4.4,0 8,3.6 8,8 v 32 c 0,4.4 -3.6,8 -8,8 h 8 c 4.4,0 8,-3.6 8,-8 v -32 c 0,-4.4 -3.6,-8 -8,-8 z"
         style="fill:#1e2c33"
         inkscape:connector-curvature="0" />
      <g
         id="g4887" />
      <g
         id="g4889" />
      <g
         id="g4891" />
      <g
         id="g4893" />
      <g
         id="g4895" />
      <g
         id="g4897" />
      <g
         id="g4899" />
      <g
         id="g4901" />
      <g
         id="g4903" />
      <g
         id="g4905" />
      <g
         id="g4907" />
      <g
         id="g4909" />
      <g
         id="g4911" />
      <g
         id="g4913" />
      <g
         id="g4915" />
    </g>
    <g
       id="g5137"
       transform="matrix(0.26458333,0,0,0.26458333,212.34438,82.754704)">
      <circle
         id="circle5046"
         r="256"
         cy="256"
         cx="256"
         style="fill:#ffc200" />
      <g
         id="g5052">
        <path
           id="path5048"
           d="M 256,0 C 249.26,0 242.608,0.34 236,0.852 368.02,11.068 472,121.352 472,256 472,390.648 368.02,500.932 236,511.148 242.608,511.66 249.26,512 256,512 397.384,512 512,397.388 512,256 512,114.612 397.384,0 256,0 Z"
           style="fill:#f2b800"
           inkscape:connector-curvature="0" />
        <path
           id="path5050"
           d="m 256,461.916 c -61.608,0 -120.028,-26.048 -160.28,-71.448 -3.94,-4.44 -5.92,-10.164 -5.568,-16.1 0.36,-5.928 3.004,-11.376 7.448,-15.32 4.08,-3.612 9.32,-5.604 14.768,-5.604 6.368,0 12.436,2.736 16.66,7.5 31.812,35.884 78.088,56.456 126.968,56.456 48.752,0 94.932,-20.464 126.696,-56.156 4.232,-4.744 10.288,-7.456 16.636,-7.456 5.452,0 10.712,2 14.788,5.624 4.444,3.952 7.08,9.4 7.42,15.332 0.352,5.936 -1.64,11.656 -5.584,16.096 -40.2,45.168 -98.508,71.076 -159.952,71.076 z"
           style="fill:#f2b800"
           inkscape:connector-curvature="0" />
      </g>
      <path
         id="path5054"
         d="m 256,450.78 c -58.424,0 -113.808,-24.676 -151.952,-67.708 -4.08,-4.592 -3.656,-11.628 0.94,-15.712 4.604,-4.084 11.636,-3.656 15.712,0.944 33.924,38.268 83.244,60.216 135.3,60.216 51.928,0 101.14,-21.828 135.012,-59.892 4.084,-4.584 11.116,-5 15.716,-0.916 4.592,4.084 5,11.12 0.916,15.716 C 369.548,426.236 314.28,450.78 256,450.78 Z"
         style="fill:#f5f5f5"
         inkscape:connector-curvature="0" />
      <g
         id="g5060">
        <path
           id="path5056"
           d="m 204,228 c -6.624,0 -12,-5.376 -12,-12 0,-19.852 -16.148,-36 -36,-36 -19.852,0 -36,16.148 -36,36 0,6.624 -5.376,12 -12,12 -6.624,0 -12,-5.376 -12,-12 0,-33.084 26.916,-60 60,-60 33.084,0 60,26.916 60,60 0,6.624 -5.376,12 -12,12 z"
           style="fill:#263740"
           inkscape:connector-curvature="0" />
        <path
           id="path5058"
           d="m 404,228 c -6.624,0 -12,-5.376 -12,-12 0,-19.852 -16.148,-36 -36,-36 -19.852,0 -36,16.148 -36,36 0,6.624 -5.376,12 -12,12 -6.624,0 -12,-5.376 -12,-12 0,-33.084 26.916,-60 60,-60 33.084,0 60,26.916 60,60 0,6.624 -5.376,12 -12,12 z"
           style="fill:#263740"
           inkscape:connector-curvature="0" />
      </g>
      <path
         id="path5062"
         d="m 256,120 c 72.8,0 144.292,-1.48 214.08,-4.328 C 424.328,46.024 345.556,0 256,0 166.444,0 87.672,46.024 41.924,115.672 111.708,118.52 183.2,120 256,120 Z"
         style="fill:#e16b5a"
         inkscape:connector-curvature="0" />
      <path
         id="path5064"
         d="m 446.032,116.532 c 8.008,-0.292 16.08,-0.536 24.048,-0.86 C 424.328,46.024 345.556,0 256,0 c -3.732,0 -7.436,0.108 -11.128,0.264 83.756,3.652 157.048,48.908 201.16,116.268 z"
         style="fill:#cc6152"
         inkscape:connector-curvature="0" />
      <g
         id="g5070">
        <path
           id="path5066"
           d="m 116.908,118.116 c 28.196,0.744 56.572,1.32 85.236,1.604 C 214.872,46.704 234.26,0 256,0 199.224,0 148.808,46.372 116.908,118.116 Z"
           style="fill:#f5f5f5"
           inkscape:connector-curvature="0" />
        <path
           id="path5068"
           d="m 309.86,119.728 c 28.664,-0.284 57.04,-0.868 85.236,-1.604 C 363.192,46.372 312.772,0 256,0 c 21.744,0 41.128,46.704 53.86,119.728 z"
           style="fill:#f5f5f5"
           inkscape:connector-curvature="0" />
      </g>
      <g
         id="g5072" />
      <g
         id="g5074" />
      <g
         id="g5076" />
      <g
         id="g5078" />
      <g
         id="g5080" />
      <g
         id="g5082" />
      <g
         id="g5084" />
      <g
         id="g5086" />
      <g
         id="g5088" />
      <g
         id="g5090" />
      <g
         id="g5092" />
      <g
         id="g5094" />
      <g
         id="g5096" />
      <g
         id="g5098" />
      <g
         id="g5100" />
    </g>
    <g
       id="g5308"
       transform="matrix(0.26458333,0,0,0.26458333,25.231725,98.762833)">
      <path
         id="path5223"
         d="m 216,356 c 0,-57.816 38.816,-98.192 94.4,-98.192 17.572,0 36.04,4.268 53.648,12.372 0.516,-0.236 1.024,-0.468 1.54,-0.7 1.368,-0.608 2.724,-1.18 4.072,-1.74 1.108,-0.452 2.208,-0.9 3.304,-1.312 1.364,-0.524 2.736,-1.008 4.1,-1.484 1.092,-0.384 2.204,-0.76 3.308,-1.112 1.396,-0.44 2.78,-0.84 4.176,-1.24 l 0.636,-0.18 c 0.88,-0.248 1.752,-0.492 2.624,-0.72 1.44,-0.368 2.872,-0.684 4.3,-1 l 0.864,-0.192 c 0.768,-0.172 1.544,-0.344 2.308,-0.496 1.336,-0.256 2.672,-0.468 4.008,-0.676 l 1.34,-0.216 c 0.716,-0.116 1.424,-0.236 2.144,-0.324 1.588,-0.208 3.196,-0.348 4.796,-0.492 l 0.916,-0.088 c 0.576,-0.06 1.144,-0.116 1.716,-0.156 2.472,-0.164 4.944,-0.252 7.4,-0.252 31.508,0 57.608,12.976 74.328,34.752 C 494.556,278.092 496,263.22 496,248 496,111.032 384.96,0 248,0 111.04,0 0,111.032 0,248 c 0,136.968 111.04,248 248,248 21.548,0 42.444,-2.756 62.376,-7.92 C 267.704,462.236 216,416.62 216,356 Z"
         style="fill:#ffc200"
         inkscape:connector-curvature="0" />
      <path
         id="path5225"
         d="m 229.368,408.376 c -41.864,-4.52 -80.592,-24.164 -108.336,-55.444 -4.224,-4.76 -10.288,-7.5 -16.66,-7.5 -5.448,0 -10.692,1.992 -14.768,5.608 -4.44,3.944 -7.084,9.384 -7.444,15.32 -0.356,5.936 1.624,11.66 5.572,16.1 40.252,45.408 98.672,71.452 160.276,71.452 5.432,0 10.828,-0.276 16.204,-0.68 -13.74,-13.024 -26.084,-28.028 -34.844,-44.856 z"
         style="fill:#f2b800"
         inkscape:connector-curvature="0" />
      <g
         id="g5231">
        <path
           id="path5227"
           d="m 196,196 c -6.624,0 -12,-5.372 -12,-12 0,-19.848 -16.148,-36 -36,-36 -19.852,0 -36,16.152 -36,36 0,6.628 -5.376,12 -12,12 -6.624,0 -12,-5.372 -12,-12 0,-33.084 26.916,-60 60,-60 33.084,0 60,26.916 60,60 0,6.628 -5.376,12 -12,12 z"
           style="fill:#263740"
           inkscape:connector-curvature="0" />
        <path
           id="path5229"
           d="m 396,196 c -6.624,0 -12,-5.372 -12,-12 0,-19.848 -16.148,-36 -36,-36 -19.852,0 -36,16.152 -36,36 0,6.628 -5.376,12 -12,12 -6.624,0 -12,-5.372 -12,-12 0,-33.084 26.916,-60 60,-60 33.084,0 60,26.916 60,60 0,6.628 -5.376,12 -12,12 z"
           style="fill:#263740"
           inkscape:connector-curvature="0" />
      </g>
      <path
         id="path5233"
         d="m 364,288 c -64.428,-34.108 -132,-4.908 -132,68 0,72.908 92,128 132,140 40,-12 132,-67.092 132,-140 0,-72.908 -67.572,-102.108 -132,-68 z"
         style="fill:#e16b5a"
         inkscape:connector-curvature="0" />
      <path
         id="path5235"
         d="M 364,288 V 496 C 404,484 496,428.908 496,356 496,283.092 428.428,253.892 364,288 Z"
         style="fill:#cc6152"
         inkscape:connector-curvature="0" />
      <g
         id="g5241">
        <path
           id="path5237"
           d="m 456,248 c 0,5.672 -0.256,11.28 -0.632,16.856 14.704,5.932 27.128,15.416 36.564,27.7 C 494.556,278.092 496,263.22 496,248 496,111.032 384.96,0 248,0 241.256,0 234.6,0.344 228,0.872 355.592,11.068 456,117.772 456,248 Z"
           style="fill:#f2b800"
           inkscape:connector-curvature="0" />
        <path
           id="path5239"
           d="m 296.984,479.464 c -21.696,8.34 -44.852,13.736 -68.984,15.664 6.6,0.528 13.256,0.872 20,0.872 21.548,0 42.444,-2.756 62.376,-7.92 -4.392,-2.66 -8.876,-5.54 -13.392,-8.616 z"
           style="fill:#f2b800"
           inkscape:connector-curvature="0" />
      </g>
      <path
         id="path5243"
         d="m 236.2,420.1 c -47.652,-3.056 -92.152,-24.432 -123.5,-59.788 -4.076,-4.6 -11.104,-5.032 -15.712,-0.944 -4.596,4.08 -5.02,11.112 -0.94,15.712 38.144,43.032 93.532,67.704 151.952,67.704 1.928,0 3.852,-0.092 5.772,-0.148 -6.436,-7.044 -12.388,-14.552 -17.572,-22.536 z"
         style="fill:#f5f5f5"
         inkscape:connector-curvature="0" />
      <g
         id="g5245" />
      <g
         id="g5247" />
      <g
         id="g5249" />
      <g
         id="g5251" />
      <g
         id="g5253" />
      <g
         id="g5255" />
      <g
         id="g5257" />
      <g
         id="g5259" />
      <g
         id="g5261" />
      <g
         id="g5263" />
      <g
         id="g5265" />
      <g
         id="g5267" />
      <g
         id="g5269" />
      <g
         id="g5271" />
      <g
         id="g5273" />
    </g>
    <g
       id="g5392"
       transform="matrix(0.26458333,0,0,0.26458333,237.71211,252.41572)">
      <circle
         id="circle5310"
         r="256"
         cy="256"
         cx="256"
         style="fill:#273b7a" />
      <path
         id="path5312"
         d="M 154.721,355.837 305.99,507.106 C 407.273,487.055 487.057,407.269 507.108,305.987 L 357.136,156.015 Z"
         style="fill:#121149"
         inkscape:connector-curvature="0" />
      <circle
         id="circle5314"
         r="142.222"
         cy="256"
         cx="256"
         style="fill:#ffc61b" />
      <path
         id="path5316"
         d="M 398.222,256 C 398.222,177.454 334.548,113.778 256,113.778 v 284.444 c 78.548,0 142.222,-63.676 142.222,-142.222 z"
         style="fill:#eaa22f"
         inkscape:connector-curvature="0" />
      <circle
         id="circle5318"
         r="28.444"
         cy="227.556"
         cx="199.11099"
         style="fill:#ffedb5" />
      <circle
         id="circle5320"
         r="14.222"
         cy="227.556"
         cx="199.11099"
         style="fill:#272525" />
      <circle
         id="circle5322"
         r="28.444"
         cy="227.556"
         cx="312.88901"
         style="fill:#ffedb5" />
      <circle
         id="circle5324"
         r="14.222"
         cy="227.556"
         cx="312.88901"
         style="fill:#272525" />
      <path
         id="path5326"
         d="m 318.919,335.46 c -2.953,0 -5.685,-1.91 -6.592,-4.882 -7.058,-23.104 -30.222,-39.238 -56.329,-39.238 -26.105,0 -49.268,16.134 -56.329,39.238 -1.114,3.641 -4.967,5.691 -8.609,4.579 -3.643,-1.114 -5.692,-4.968 -4.579,-8.609 8.818,-28.85 37.405,-48.999 69.517,-48.999 32.116,0 60.702,20.149 69.516,48.999 1.114,3.641 -0.938,7.497 -4.579,8.609 -0.67,0.205 -1.349,0.303 -2.016,0.303 z"
         style="fill:#c92f00"
         inkscape:connector-curvature="0" />
      <path
         id="path5328"
         d="m 325.516,326.547 c -8.816,-28.85 -37.402,-48.999 -69.518,-48.999 -0.191,0 -0.381,0.01 -0.572,0.01 v 13.802 c 0.191,-0.002 0.381,-0.022 0.572,-0.022 26.107,0 49.269,16.134 56.329,39.238 0.907,2.972 3.639,4.882 6.592,4.882 0.667,0 1.345,-0.098 2.017,-0.303 3.643,-1.112 5.692,-4.967 4.58,-8.608 z"
         style="fill:#930000"
         inkscape:connector-curvature="0" />
      <g
         id="g5330" />
      <g
         id="g5332" />
      <g
         id="g5334" />
      <g
         id="g5336" />
      <g
         id="g5338" />
      <g
         id="g5340" />
      <g
         id="g5342" />
      <g
         id="g5344" />
      <g
         id="g5346" />
      <g
         id="g5348" />
      <g
         id="g5350" />
      <g
         id="g5352" />
      <g
         id="g5354" />
      <g
         id="g5356" />
      <g
         id="g5358" />
    </g>
    <g
       id="g5488"
       transform="matrix(0.26458333,0,0,0.26458333,-144.08455,91.683334)">
      <circle
         id="circle5394"
         r="229.409"
         cy="273.26001"
         cx="243.172"
         style="fill:#fddf6d" />
      <path
         id="path5396"
         d="M 292.329,468.801 C 165.63,468.801 62.921,366.092 62.921,239.393 62.921,171.703 92.244,110.868 138.874,68.878 64.604,106.852 13.76,184.117 13.76,273.259 c 0,126.699 102.709,229.408 229.408,229.408 59.009,0 112.807,-22.286 153.455,-58.892 -31.29,15.999 -66.737,25.026 -104.294,25.026 z"
         style="fill:#fcc56b"
         inkscape:connector-curvature="0" />
      <g
         id="g5402">
        <path
           id="path5398"
           d="m 166.174,18.24 27.935,56.601 c 2.327,4.716 6.827,7.985 12.03,8.74 l 62.463,9.076 c 13.106,1.904 18.338,18.01 8.855,27.254 l -45.199,44.058 c -3.765,3.671 -5.484,8.959 -4.595,14.142 l 10.67,62.21 c 2.239,13.052 -11.462,23.006 -23.184,16.844 L 159.28,227.793 c -4.655,-2.448 -10.216,-2.448 -14.87,0 l -55.869,29.372 c -11.722,6.162 -25.422,-3.792 -23.184,-16.844 l 10.67,-62.21 c 0.888,-5.183 -0.83,-10.473 -4.595,-14.142 L 26.233,119.911 C 16.75,110.667 21.982,94.562 35.088,92.657 l 62.463,-9.076 c 5.204,-0.757 9.703,-4.024 12.03,-8.74 L 137.516,18.24 c 5.862,-11.876 22.797,-11.876 28.658,0 z"
           style="fill:#ffff00"
           inkscape:connector-curvature="0" />
        <path
           id="path5400"
           d="m 422.946,93.963 18.112,36.697 c 1.509,3.057 4.426,5.177 7.8,5.667 l 40.498,5.885 c 8.496,1.234 11.89,11.677 5.741,17.67 l -29.305,28.564 c -2.441,2.38 -3.555,5.809 -2.979,9.17 l 6.917,40.333 c 1.451,8.463 -7.431,14.916 -15.031,10.92 l -36.222,-19.044 c -3.018,-1.587 -6.624,-1.587 -9.641,0 l -36.222,19.044 c -7.599,3.996 -16.483,-2.458 -15.031,-10.92 l 6.917,-40.333 c 0.576,-3.361 -0.538,-6.789 -2.979,-9.17 l -29.305,-28.564 c -6.148,-5.993 -2.755,-16.435 5.741,-17.67 l 40.498,-5.885 c 3.375,-0.49 6.291,-2.609 7.8,-5.667 l 18.112,-36.697 c 3.8,-7.701 14.78,-7.701 18.579,0 z"
           style="fill:#ffff00"
           inkscape:connector-curvature="0" />
      </g>
      <g
         id="g5408">
        <path
           id="path5404"
           d="m 157.705,86.771 11.423,23.146 c 0.952,1.929 2.791,3.265 4.92,3.574 l 25.543,3.712 c 5.359,0.779 7.5,7.364 3.621,11.144 l -18.484,18.017 c -1.541,1.501 -2.242,3.663 -1.879,5.784 l 4.363,25.44 c 0.916,5.337 -4.687,9.407 -9.481,6.888 l -22.846,-12.011 c -1.904,-1 -4.177,-1 -6.081,0 l -22.846,12.011 c -4.793,2.52 -10.395,-1.55 -9.481,-6.888 l 4.363,-25.44 c 0.363,-2.119 -0.34,-4.282 -1.879,-5.784 l -18.484,-18.017 c -3.877,-3.78 -1.738,-10.365 3.621,-11.144 l 25.543,-3.712 c 2.128,-0.31 3.968,-1.646 4.92,-3.574 l 11.423,-23.146 c 2.399,-4.855 9.324,-4.855 11.721,0 z"
           style="fill:#fc4c59"
           inkscape:connector-curvature="0" />
        <path
           id="path5406"
           d="m 416.666,144.781 5.867,11.889 c 0.489,0.991 1.434,1.677 2.527,1.835 l 13.119,1.906 c 2.753,0.399 3.851,3.783 1.86,5.724 l -9.493,9.256 c -0.791,0.771 -1.152,1.881 -0.966,2.97 l 2.241,13.067 c 0.47,2.741 -2.408,4.832 -4.869,3.538 l -11.734,-6.17 c -0.978,-0.514 -2.145,-0.514 -3.123,0 l -11.734,6.17 c -2.463,1.294 -5.34,-0.796 -4.869,-3.538 l 2.241,-13.067 c 0.187,-1.089 -0.174,-2.2 -0.966,-2.97 l -9.493,-9.254 c -1.992,-1.941 -0.892,-5.325 1.86,-5.724 l 13.119,-1.906 c 1.093,-0.159 2.038,-0.845 2.527,-1.835 l 5.867,-11.889 c 1.232,-2.496 4.788,-2.496 6.019,-0.002 z"
           style="fill:#fc4c59"
           inkscape:connector-curvature="0" />
      </g>
      <path
         id="path5410"
         d="m 289.948,424.751 v 0 c -51.285,0 -92.86,-41.575 -92.86,-92.86 v 0 h 185.72 v 0 c 0,51.285 -41.573,92.86 -92.86,92.86 z"
         style="fill:#7f184c"
         inkscape:connector-curvature="0" />
      <path
         id="path5412"
         d="m 219.746,331.891 v 14.495 c 0,6.112 4.955,11.066 11.066,11.066 h 118.272 c 6.112,0 11.066,-4.955 11.066,-11.066 v -14.495 z"
         style="fill:#f2f2f2"
         inkscape:connector-curvature="0" />
      <path
         id="path5414"
         d="m 291.898,386.227 c -25.101,-11.662 -52.956,-9.967 -75.544,2.128 16.973,22.122 43.664,36.397 73.702,36.397 v 0 c 13.237,0 25.817,-2.789 37.212,-7.78 -8.36,-12.936 -20.347,-23.766 -35.37,-30.745 z"
         style="fill:#fc4c59"
         inkscape:connector-curvature="0" />
      <path
         id="path5416"
         d="m 501.611,166.563 c 5.407,-5.27 7.317,-13.005 4.984,-20.186 -2.334,-7.181 -8.426,-12.317 -15.898,-13.403 L 450.2,127.09 c -0.335,-0.049 -0.623,-0.259 -0.773,-0.562 L 431.316,89.83 c -3.342,-6.771 -10.108,-10.976 -17.657,-10.976 -7.551,0 -14.318,4.206 -17.659,10.976 l -0.004,0.006 c -21.01,-17.548 -44.618,-31.213 -70.343,-40.684 -4.838,-1.783 -10.201,0.697 -11.982,5.534 -1.782,4.837 0.697,10.201 5.534,11.982 25.12,9.248 48.05,22.845 68.268,40.438 l -9.584,19.419 c -0.149,0.304 -0.439,0.514 -0.773,0.562 l -40.498,5.885 c -7.472,1.086 -13.563,6.222 -15.897,13.402 -2.333,7.181 -0.423,14.916 4.984,20.186 l 29.305,28.565 c 0.241,0.235 0.352,0.576 0.296,0.908 l -6.919,40.333 c -1.277,7.441 1.725,14.822 7.832,19.26 3.452,2.509 7.491,3.783 11.558,3.783 3.13,0 6.275,-0.754 9.182,-2.282 l 36.222,-19.044 c 0.299,-0.158 0.655,-0.157 0.954,0 l 36.222,19.044 c 3.915,2.058 8.261,2.703 12.42,2 0.299,4.7 0.467,9.412 0.467,14.13 0,121.351 -98.726,220.075 -220.075,220.075 -121.349,0 -220.076,-98.722 -220.076,-220.073 0,-40.087 10.752,-78.912 31.182,-112.982 l 10.643,10.375 c 1.567,1.527 2.281,3.727 1.911,5.882 l -10.67,62.21 c -1.64,9.567 2.217,19.052 10.069,24.756 4.436,3.224 9.626,4.862 14.853,4.862 4.023,0 8.066,-0.971 11.803,-2.934 l 55.869,-29.372 c 1.936,-1.017 4.248,-1.018 6.184,0 l 55.869,29.372 c 8.59,4.516 18.806,3.778 26.655,-1.926 7.852,-5.704 11.709,-15.191 10.069,-24.756 l -10.67,-62.21 c -0.37,-2.156 0.345,-4.355 1.911,-5.883 l 45.2,-44.058 c 6.948,-6.774 9.404,-16.715 6.403,-25.945 -2.998,-9.229 -10.827,-15.832 -20.432,-17.227 l -62.464,-9.076 c -2.164,-0.314 -4.034,-1.674 -5.004,-3.635 l -6.168,-12.498 c 15.324,-3.32 31.037,-5.028 46.859,-5.028 5.154,0 9.333,-4.179 9.333,-9.333 0,-5.154 -4.179,-9.333 -9.333,-9.333 -18.719,0 -37.306,2.184 -55.36,6.469 L 174.539,14.11 C 170.248,5.407 161.55,0 151.845,0 142.14,0 133.443,5.407 129.148,14.109 l -27.935,56.602 c -0.968,1.962 -2.838,3.32 -5.004,3.635 l -62.463,9.078 c -9.604,1.396 -17.433,7.996 -20.432,17.227 -2.999,9.229 -0.545,19.172 6.405,25.946 l 20.85,20.324 C 16.904,184.781 4.427,228.292 4.427,273.259 4.427,404.902 111.525,512 243.168,512 c 131.643,0 238.741,-107.098 238.741,-238.741 0,-16.566 -1.721,-33.106 -5.091,-49.189 l -4.807,-28.033 c -0.057,-0.333 0.054,-0.674 0.295,-0.91 z M 31.066,106.417 c 0.383,-1.182 1.675,-3.987 5.364,-4.523 l 62.463,-9.076 c 8.246,-1.197 15.372,-6.374 19.057,-13.846 l 27.935,-56.601 c 1.65,-3.344 4.717,-3.704 5.959,-3.704 1.243,0 4.309,0.361 5.959,3.704 l 27.935,56.601 c 3.688,7.472 10.812,12.649 19.057,13.846 l 62.463,9.076 c 3.691,0.536 4.981,3.342 5.366,4.523 0.385,1.181 0.988,4.21 -1.682,6.812 l -45.199,44.058 c -5.965,5.816 -8.687,14.191 -7.279,22.403 l 10.67,62.21 c 0.631,3.675 -1.639,5.77 -2.644,6.499 -1.004,0.729 -3.698,2.24 -6.998,0.505 l -55.869,-29.372 c -3.688,-1.94 -7.732,-2.908 -11.778,-2.908 -4.044,0 -8.091,0.969 -11.778,2.908 l -55.869,29.372 c -3.299,1.735 -5.993,0.224 -6.998,-0.506 -1.005,-0.729 -3.274,-2.825 -2.644,-6.499 l 10.67,-62.212 C 86.635,171.474 83.913,163.1 77.947,157.284 L 32.748,113.229 c -2.67,-2.603 -2.066,-5.631 -1.682,-6.812 z m 428.212,75.345 c -4.64,4.524 -6.759,11.04 -5.663,17.43 l 4.542,26.482 c 0.035,0.352 0.085,0.706 0.161,1.059 0.051,0.236 0.093,0.474 0.143,0.711 l 2.072,12.081 c 0.034,0.204 0.107,0.628 -0.408,1.003 -0.514,0.375 -0.9,0.174 -1.081,0.078 l -36.222,-19.042 c -2.869,-1.508 -6.015,-2.262 -9.163,-2.262 -3.146,0 -6.294,0.754 -9.162,2.262 l -36.222,19.044 c -0.183,0.097 -0.567,0.296 -1.081,-0.078 -0.515,-0.375 -0.442,-0.8 -0.408,-1.004 l 6.92,-40.336 c 1.095,-6.389 -1.023,-12.904 -5.664,-17.428 l -29.305,-28.565 c -0.149,-0.144 -0.458,-0.445 -0.26,-1.053 0.197,-0.607 0.623,-0.669 0.827,-0.699 l 40.498,-5.885 c 6.415,-0.932 11.957,-4.959 14.828,-10.772 l 12.712,-25.758 c 0.035,-0.07 0.071,-0.139 0.103,-0.209 l 5.295,-10.729 c 0.091,-0.185 0.282,-0.572 0.921,-0.572 0.638,0 0.829,0.387 0.92,0.572 l 18.112,36.697 c 2.871,5.812 8.412,9.839 14.827,10.771 l 40.498,5.885 c 0.205,0.03 0.632,0.092 0.829,0.699 0.197,0.607 -0.112,0.907 -0.26,1.053 z"
         inkscape:connector-curvature="0" />
      <path
         id="path5418"
         d="m 187.756,331.891 c 0,56.349 45.843,102.193 102.193,102.193 56.35,0 102.193,-45.843 102.193,-102.193 0,-2.475 -0.983,-4.849 -2.733,-6.599 -1.751,-1.751 -4.124,-2.734 -6.6,-2.734 H 197.087 c -5.153,0 -9.331,4.179 -9.331,9.333 z m 185.202,9.332 c -4.654,41.681 -40.106,74.195 -83.01,74.195 -42.904,0 -78.356,-32.514 -83.01,-74.195 z"
         inkscape:connector-curvature="0" />
      <circle
         id="circle5420"
         r="9.3330002"
         cy="48.580002"
         cx="288.13" />
      <g
         id="g5422" />
      <g
         id="g5424" />
      <g
         id="g5426" />
      <g
         id="g5428" />
      <g
         id="g5430" />
      <g
         id="g5432" />
      <g
         id="g5434" />
      <g
         id="g5436" />
      <g
         id="g5438" />
      <g
         id="g5440" />
      <g
         id="g5442" />
      <g
         id="g5444" />
      <g
         id="g5446" />
      <g
         id="g5448" />
      <g
         id="g5450" />
    </g>
    <g
       id="g5569"
       transform="matrix(0.26458333,0,0,0.26458333,45.281524,-62.530951)">
      <g
         id="g5494">
        <g
           id="g5492">
          <path
             id="path5490"
             d="m 501.611,166.563 c 5.407,-5.27 7.317,-13.005 4.984,-20.186 -2.334,-7.181 -8.426,-12.317 -15.898,-13.403 L 450.2,127.09 c -0.335,-0.049 -0.623,-0.259 -0.773,-0.562 L 431.316,89.83 c -3.342,-6.771 -10.108,-10.976 -17.657,-10.976 -7.551,0 -14.318,4.206 -17.659,10.976 l -0.004,0.006 c -21.01,-17.548 -44.618,-31.213 -70.343,-40.684 -4.838,-1.783 -10.201,0.697 -11.982,5.534 -1.782,4.837 0.697,10.201 5.534,11.982 25.12,9.248 48.05,22.845 68.268,40.438 l -9.584,19.419 c -0.149,0.304 -0.439,0.514 -0.773,0.563 l -40.498,5.885 c -7.472,1.086 -13.563,6.222 -15.897,13.402 -2.333,7.181 -0.423,14.916 4.984,20.186 l 29.305,28.565 c 0.241,0.235 0.352,0.576 0.296,0.908 l -6.919,40.333 c -1.277,7.441 1.725,14.822 7.832,19.26 3.452,2.509 7.491,3.783 11.558,3.783 3.13,0 6.275,-0.754 9.182,-2.282 l 36.222,-19.044 c 0.299,-0.158 0.655,-0.157 0.954,0 l 36.222,19.044 c 3.915,2.058 8.261,2.703 12.42,2 0.299,4.7 0.467,9.412 0.467,14.13 0,121.351 -98.726,220.075 -220.075,220.075 -121.349,0 -220.076,-98.723 -220.076,-220.074 0,-40.087 10.752,-78.912 31.182,-112.982 l 10.643,10.375 c 1.567,1.527 2.281,3.727 1.911,5.882 l -10.67,62.21 c -1.64,9.567 2.217,19.052 10.069,24.756 4.436,3.224 9.626,4.862 14.853,4.862 4.023,0 8.066,-0.971 11.803,-2.934 l 55.869,-29.372 c 1.936,-1.017 4.248,-1.018 6.184,0 l 55.869,29.372 c 8.59,4.516 18.806,3.778 26.655,-1.926 7.852,-5.704 11.709,-15.191 10.069,-24.756 l -10.67,-62.21 c -0.37,-2.156 0.345,-4.355 1.911,-5.883 l 45.2,-44.058 c 6.948,-6.774 9.404,-16.715 6.403,-25.945 -2.998,-9.229 -10.827,-15.832 -20.432,-17.227 l -62.464,-9.076 c -2.164,-0.314 -4.034,-1.674 -5.004,-3.635 l -6.168,-12.498 c 15.324,-3.32 31.037,-5.028 46.859,-5.028 5.154,0 9.333,-4.179 9.333,-9.333 0,-5.154 -4.179,-9.333 -9.333,-9.333 -18.719,0 -37.306,2.184 -55.36,6.469 L 174.539,14.11 C 170.248,5.407 161.55,0 151.845,0 142.14,0 133.443,5.407 129.148,14.109 l -27.935,56.602 c -0.968,1.962 -2.838,3.32 -5.004,3.635 l -62.463,9.078 c -9.604,1.396 -17.433,7.996 -20.432,17.227 -2.999,9.229 -0.545,19.172 6.405,25.946 l 20.85,20.324 C 16.904,184.781 4.427,228.292 4.427,273.259 4.427,404.902 111.525,512 243.168,512 c 131.643,0 238.741,-107.098 238.741,-238.741 0,-16.566 -1.721,-33.106 -5.091,-49.189 l -4.807,-28.033 c -0.057,-0.333 0.054,-0.674 0.295,-0.91 z M 32.748,113.229 c -2.669,-2.603 -2.066,-5.631 -1.681,-6.812 0.383,-1.182 1.675,-3.987 5.364,-4.523 l 62.463,-9.076 c 8.246,-1.197 15.372,-6.374 19.057,-13.846 l 27.935,-56.601 c 1.65,-3.344 4.717,-3.704 5.959,-3.704 1.243,0 4.309,0.361 5.959,3.704 l 27.935,56.601 c 3.688,7.472 10.812,12.649 19.057,13.846 l 62.463,9.076 c 3.691,0.536 4.981,3.342 5.366,4.523 0.385,1.181 0.988,4.21 -1.682,6.812 l -45.199,44.058 c -5.965,5.816 -8.687,14.191 -7.279,22.403 l 10.67,62.21 c 0.631,3.675 -1.639,5.77 -2.644,6.499 -1.004,0.729 -3.698,2.24 -6.998,0.505 l -55.869,-29.372 c -3.688,-1.94 -7.732,-2.908 -11.778,-2.908 -4.044,0 -8.091,0.969 -11.778,2.908 l -55.869,29.372 c -3.299,1.735 -5.993,0.224 -6.998,-0.506 -1.005,-0.729 -3.274,-2.825 -2.644,-6.499 l 10.67,-62.212 c 1.409,-8.213 -1.313,-16.587 -7.279,-22.403 z m 426.53,68.533 c -4.64,4.524 -6.759,11.04 -5.663,17.43 l 4.542,26.482 c 0.035,0.352 0.085,0.706 0.161,1.059 0.051,0.236 0.093,0.474 0.143,0.711 l 2.072,12.081 c 0.034,0.204 0.107,0.628 -0.408,1.003 -0.514,0.375 -0.9,0.174 -1.081,0.078 l -36.222,-19.042 c -2.869,-1.508 -6.015,-2.262 -9.163,-2.262 -3.146,0 -6.294,0.754 -9.162,2.262 l -36.222,19.044 c -0.183,0.097 -0.567,0.296 -1.081,-0.078 -0.515,-0.375 -0.442,-0.8 -0.408,-1.004 l 6.92,-40.336 c 1.095,-6.389 -1.023,-12.904 -5.664,-17.428 l -29.305,-28.565 c -0.149,-0.144 -0.458,-0.445 -0.26,-1.053 0.197,-0.607 0.623,-0.669 0.828,-0.699 l 40.497,-5.885 c 6.415,-0.932 11.957,-4.959 14.828,-10.772 l 12.712,-25.758 c 0.035,-0.07 0.071,-0.139 0.103,-0.209 l 5.295,-10.729 c 0.091,-0.185 0.282,-0.572 0.921,-0.572 0.639,0 0.829,0.387 0.92,0.572 l 18.112,36.697 c 2.871,5.812 8.412,9.839 14.826,10.771 l 40.498,5.885 c 0.205,0.03 0.632,0.092 0.829,0.699 0.197,0.607 -0.112,0.907 -0.26,1.053 z"
             inkscape:connector-curvature="0" />
        </g>
      </g>
      <g
         id="g5500">
        <g
           id="g5498">
          <path
             id="path5496"
             d="m 389.408,325.292 c -1.751,-1.751 -4.124,-2.734 -6.6,-2.734 H 197.087 c -5.153,0 -9.331,4.179 -9.331,9.333 0,56.349 45.843,102.193 102.193,102.193 56.35,0 102.193,-45.843 102.193,-102.193 -10e-4,-2.475 -0.984,-4.849 -2.734,-6.599 z m -99.46,90.126 c -42.904,0 -78.356,-32.514 -83.01,-74.195 h 166.019 c -4.653,41.681 -40.105,74.195 -83.009,74.195 z"
             inkscape:connector-curvature="0" />
        </g>
      </g>
      <g
         id="g5506">
        <g
           id="g5504">
          <circle
             id="circle5502"
             r="9.3330002"
             cy="48.580002"
             cx="288.13" />
        </g>
      </g>
      <g
         id="g5508" />
      <g
         id="g5510" />
      <g
         id="g5512" />
      <g
         id="g5514" />
      <g
         id="g5516" />
      <g
         id="g5518" />
      <g
         id="g5520" />
      <g
         id="g5522" />
      <g
         id="g5524" />
      <g
         id="g5526" />
      <g
         id="g5528" />
      <g
         id="g5530" />
      <g
         id="g5532" />
      <g
         id="g5534" />
      <g
         id="g5536" />
    </g>
    <g
       id="g5734"
       transform="matrix(0.26458333,0,0,0.26458333,193.82619,-51.191665)">
      <circle
         id="circle5655"
         r="256"
         cy="256"
         cx="256"
         style="fill:#273b7a" />
      <path
         id="path5657"
         d="M 154.721,355.837 305.99,507.106 C 407.273,487.055 487.057,407.269 507.108,305.987 L 357.136,156.015 Z"
         style="fill:#121149"
         inkscape:connector-curvature="0" />
      <circle
         id="circle5659"
         r="142.222"
         cy="256"
         cx="256"
         style="fill:#ffc61b" />
      <path
         id="path5661"
         d="M 398.222,256 C 398.222,177.454 334.548,113.778 256,113.778 v 284.444 c 78.548,0 142.222,-63.676 142.222,-142.222 z"
         style="fill:#eaa22f"
         inkscape:connector-curvature="0" />
      <path
         id="path5663"
         d="m 340.154,234.453 c -1.146,0 -2.31,-0.288 -3.381,-0.891 -18.925,-10.669 -42.141,-9.692 -42.379,-9.683 -2.608,0.124 -5.075,-1.239 -6.353,-3.529 -1.276,-2.286 -1.146,-5.099 0.334,-7.258 0.753,-1.098 18.856,-26.796 54.412,-19.118 3.724,0.805 6.087,4.475 5.284,8.197 -0.805,3.725 -4.487,6.092 -8.197,5.284 -12.438,-2.693 -21.983,0.028 -28.638,3.701 9.435,1.329 21.352,4.212 32.308,10.39 3.317,1.87 4.489,6.075 2.62,9.394 -1.264,2.249 -3.603,3.513 -6.01,3.513 z"
         style="fill:#272525"
         inkscape:connector-curvature="0" />
      <circle
         id="circle5665"
         r="31.030001"
         cy="216.35001"
         cx="199.11099"
         style="fill:#ffedb5" />
      <circle
         id="circle5667"
         r="15.515"
         cy="216.35001"
         cx="199.11099"
         style="fill:#272525" />
      <path
         id="path5669"
         d="m 250.983,350.323 c -7.63,0 -15.817,-0.679 -24.602,-2.195 -3.753,-0.648 -6.27,-4.215 -5.622,-7.968 0.648,-3.753 4.224,-6.277 7.968,-5.622 34.351,5.927 62.65,-1.136 84.109,-21.001 15.986,-14.8 21.938,-31.234 21.997,-31.399 1.271,-3.587 5.21,-5.461 8.802,-4.196 3.589,1.272 5.466,5.215 4.194,8.804 -0.283,0.802 -7.171,19.827 -25.624,36.911 -13.936,12.905 -36.864,26.666 -71.222,26.666 z"
         style="fill:#c92f00"
         inkscape:connector-curvature="0" />
      <path
         id="path5671"
         d="m 343.638,277.944 c -3.593,-1.265 -7.532,0.609 -8.802,4.196 -0.059,0.165 -6.01,16.599 -21.997,31.399 -15.413,14.267 -34.373,21.892 -56.551,22.883 v 13.769 c 31.42,-1.333 52.712,-14.307 65.919,-26.531 18.453,-17.084 25.341,-36.109 25.624,-36.911 1.274,-3.589 -0.604,-7.531 -4.193,-8.805 z"
         style="fill:#930000"
         inkscape:connector-curvature="0" />
      <g
         id="g5673" />
      <g
         id="g5675" />
      <g
         id="g5677" />
      <g
         id="g5679" />
      <g
         id="g5681" />
      <g
         id="g5683" />
      <g
         id="g5685" />
      <g
         id="g5687" />
      <g
         id="g5689" />
      <g
         id="g5691" />
      <g
         id="g5693" />
      <g
         id="g5695" />
      <g
         id="g5697" />
      <g
         id="g5699" />
      <g
         id="g5701" />
    </g>
    <g
       id="g5818"
       transform="matrix(0.26458333,0,0,0.26458333,-149.57858,265.28855)">
      <circle
         id="circle5736"
         r="256"
         cy="256"
         cx="256"
         style="fill:#ffc200" />
      <g
         id="g5742">
        <path
           id="path5738"
           d="M 256,0 C 249.256,0 242.6,0.34 236,0.852 368.024,11.072 472,121.356 472,256 472,390.644 368.024,500.932 236,511.148 242.6,511.66 249.256,512 256,512 397.384,512 512,397.384 512,256 512,114.616 397.384,0 256,0 Z"
           style="fill:#f2b800"
           inkscape:connector-curvature="0" />
        <path
           id="path5740"
           d="m 430.712,269.596 c -1.712,-5.068 -5.288,-9.152 -10.076,-11.524 -2.748,-1.36 -5.808,-2.08 -8.864,-2.08 -7.664,0 -14.54,4.26 -17.932,11.128 C 372.264,310.716 316.872,340 256,340 195.128,340 139.736,310.716 118.16,267.124 114.756,260.26 107.892,256 100.228,256 c -3.048,0 -6.108,0.72 -8.86,2.076 -4.788,2.376 -8.368,6.46 -10.08,11.528 -1.712,5.064 -1.344,10.488 1.028,15.268 14.584,29.472 39.48,53.608 70.568,70.204 -0.54,4.28 -0.884,8.588 -0.884,12.924 0,57.348 46.652,104 104,104 57.348,0 104,-46.652 104,-104 0,-4.336 -0.344,-8.644 -0.884,-12.924 31.084,-16.588 55.976,-40.728 70.568,-70.2 2.372,-4.792 2.732,-10.216 1.028,-15.28 z"
           style="fill:#f2b800"
           inkscape:connector-curvature="0" />
      </g>
      <g
         id="g5748">
        <path
           id="path5744"
           d="m 99.212,195.072 c -3.944,-0.484 -7.572,-2.92 -9.392,-6.796 -2.828,-5.992 -0.256,-13.14 5.744,-15.964 l 81.308,-38.316 c 5.992,-2.832 13.144,-0.256 15.964,5.744 2.828,5.992 0.256,13.14 -5.744,15.964 L 105.78,194.02 c -2.124,0.996 -4.388,1.32 -6.568,1.052 z"
           style="fill:#263740"
           inkscape:connector-curvature="0" />
        <path
           id="path5746"
           d="m 412.788,195.072 c 3.952,-0.484 7.572,-2.92 9.392,-6.796 2.828,-5.992 0.256,-13.14 -5.736,-15.964 l -81.312,-38.316 c -5.992,-2.832 -13.148,-0.256 -15.968,5.744 -2.828,5.992 -0.256,13.14 5.744,15.964 l 81.312,38.316 c 2.124,0.996 4.396,1.32 6.568,1.052 z"
           style="fill:#263740"
           inkscape:connector-curvature="0" />
      </g>
      <path
         id="path5750"
         d="m 256,360 c -33.744,0 -65.084,-7.964 -91.348,-21.544 C 161.644,347.764 160,357.692 160,368 c 0,53.02 42.98,96 96,96 53.02,0 96,-42.98 96,-96 0,-10.308 -1.644,-20.236 -4.652,-29.544 C 321.084,352.036 289.744,360 256,360 Z"
         style="fill:#e16b5a"
         inkscape:connector-curvature="0" />
      <path
         id="path5752"
         d="m 256,380 c 34.736,0 67.52,-7.948 95.416,-22.008 -0.704,-6.736 -2.048,-13.284 -4.068,-19.536 C 321.084,352.036 289.744,360 256,360 c -33.744,0 -65.084,-7.964 -91.348,-21.544 -2.02,6.252 -3.364,12.8 -4.068,19.536 C 188.48,372.052 221.264,380 256,380 Z"
         style="fill:#cc6152"
         inkscape:connector-curvature="0" />
      <path
         id="path5754"
         d="m 256,372 c -73.892,0 -139.252,-35.592 -166.516,-90.676 -2.936,-5.94 -0.508,-13.14 5.428,-16.084 5.936,-2.932 13.132,-0.508 16.08,5.428 C 133.884,316.924 192.156,348 256,348 c 63.844,0 122.116,-31.076 145.008,-77.324 2.936,-5.936 10.144,-8.368 16.08,-5.424 5.936,2.932 8.376,10.132 5.428,16.08 C 395.252,336.408 329.892,372 256,372 Z"
         style="fill:#f5f5f5"
         inkscape:connector-curvature="0" />
      <g
         id="g5756" />
      <g
         id="g5758" />
      <g
         id="g5760" />
      <g
         id="g5762" />
      <g
         id="g5764" />
      <g
         id="g5766" />
      <g
         id="g5768" />
      <g
         id="g5770" />
      <g
         id="g5772" />
      <g
         id="g5774" />
      <g
         id="g5776" />
      <g
         id="g5778" />
      <g
         id="g5780" />
      <g
         id="g5782" />
      <g
         id="g5784" />
    </g>
  </g>
</svg>
