<?xml version="1.0" encoding="UTF-8" standalone="no"?>
<!-- Created with Inkscape (http://www.inkscape.org/) -->

<svg
   xmlns:dc="http://purl.org/dc/elements/1.1/"
   xmlns:cc="http://creativecommons.org/ns#"
   xmlns:rdf="http://www.w3.org/1999/02/22-rdf-syntax-ns#"
   xmlns:svg="http://www.w3.org/2000/svg"
   xmlns="http://www.w3.org/2000/svg"
   xmlns:sodipodi="http://sodipodi.sourceforge.net/DTD/sodipodi-0.dtd"
   xmlns:inkscape="http://www.inkscape.org/namespaces/inkscape"
   width="210mm"
   height="297mm"
   viewBox="0 0 210 297"
   version="1.1"
   id="svg8"
   inkscape:version="0.92.1 r15371"
   sodipodi:docname="superstarz emotion bunch.svg">
  <defs
     id="defs2">
    <inkscape:perspective
       id="perspective4554"
       inkscape:persp3d-origin="105 : 99 : 1"
       inkscape:vp_z="210 : 148.5 : 1"
       inkscape:vp_y="0 : 1000 : 0"
       inkscape:vp_x="0 : 148.5 : 1"
       sodipodi:type="inkscape:persp3d" />
    <filter
       height="1.0486857"
       y="-0.024342858"
       width="1.0473333"
       x="-0.023666666"
       id="filter16428"
       style="color-interpolation-filters:sRGB"
       inkscape:collect="always">
      <feGaussianBlur
         id="feGaussianBlur16430"
         stdDeviation="1.6101785"
         inkscape:collect="always" />
    </filter>
    <filter
       height="1.0486857"
       y="-0.024342857"
       width="1.0473332"
       x="-0.023666667"
       id="filter16428-6-6"
       style="color-interpolation-filters:sRGB"
       inkscape:collect="always">
      <feGaussianBlur
         id="feGaussianBlur16430-6-4"
         stdDeviation="1.6101785"
         inkscape:collect="always" />
    </filter>
    <filter
       height="1.0486857"
       y="-0.024342857"
       width="1.0473332"
       x="-0.023666667"
       id="filter6714"
       style="color-interpolation-filters:sRGB"
       inkscape:collect="always">
      <feGaussianBlur
         id="feGaussianBlur6716"
         stdDeviation="1.6101785"
         inkscape:collect="always" />
    </filter>
    <filter
       inkscape:collect="always"
       style="color-interpolation-filters:sRGB"
       id="filter13174"
       x="-0.097176589"
       width="1.1943532"
       y="-0.09924569"
       height="1.1984915">
      <feGaussianBlur
         inkscape:collect="always"
         stdDeviation="3.6386874"
         id="feGaussianBlur13176" />
    </filter>
    <filter
       inkscape:collect="always"
       style="color-interpolation-filters:sRGB"
       id="filter13170"
       x="-0.15125509"
       width="1.3025101"
       y="-0.15402108"
       height="1.3080422">
      <feGaussianBlur
         inkscape:collect="always"
         stdDeviation="3.6386874"
         id="feGaussianBlur13172" />
    </filter>
    <filter
       inkscape:collect="always"
       style="color-interpolation-filters:sRGB"
       id="filter13378"
       x="-0.068877779"
       width="1.1377556"
       y="-0.15835656"
       height="1.3167131">
      <feGaussianBlur
         inkscape:collect="always"
         stdDeviation="1.1012154"
         id="feGaussianBlur13380" />
    </filter>
    <filter
       inkscape:collect="always"
       style="color-interpolation-filters:sRGB"
       id="filter5599-8"
       x="-0.059999902"
       width="1.1199998"
       y="-0.060000099"
       height="1.1200002">
      <feGaussianBlur
         inkscape:collect="always"
         stdDeviation="3.9687565"
         id="feGaussianBlur5601-2" />
    </filter>
    <filter
       inkscape:collect="always"
       style="color-interpolation-filters:sRGB"
       id="filter6939"
       x="-0.11022518"
       width="1.2204504"
       y="-0.13096564"
       height="1.2619313">
      <feGaussianBlur
         inkscape:collect="always"
         stdDeviation="3.2080122"
         id="feGaussianBlur6941" />
    </filter>
    <filter
       inkscape:collect="always"
       style="color-interpolation-filters:sRGB"
       id="filter6714-9"
       x="-0.023666667"
       width="1.0473332"
       y="-0.024342857"
       height="1.0486857">
      <feGaussianBlur
         inkscape:collect="always"
         stdDeviation="1.6101785"
         id="feGaussianBlur6716-6" />
    </filter>
  </defs>
  <sodipodi:namedview
     id="base"
     pagecolor="#ffffff"
     bordercolor="#666666"
     borderopacity="1.0"
     inkscape:pageopacity="0.0"
     inkscape:pageshadow="2"
     inkscape:zoom="0.0875"
     inkscape:cx="4444.6299"
     inkscape:cy="-580.17621"
     inkscape:document-units="mm"
     inkscape:current-layer="layer1"
     showgrid="false"
     inkscape:window-width="1366"
     inkscape:window-height="748"
     inkscape:window-x="-8"
     inkscape:window-y="-8"
     inkscape:window-maximized="1" />
  <metadata
     id="metadata5">
    <rdf:RDF>
      <cc:Work
         rdf:about="">
        <dc:format>image/svg+xml</dc:format>
        <dc:type
           rdf:resource="http://purl.org/dc/dcmitype/StillImage" />
        <dc:title />
      </cc:Work>
    </rdf:RDF>
  </metadata>
  <g
     inkscape:label="Layer 1"
     inkscape:groupmode="layer"
     id="layer1">
    <g
       id="layer1-9"
       inkscape:label="Layer 1"
       transform="matrix(2.3454028,0,0,2.269802,863.98308,275.6955)">
      <path
         d="m -46.113098,67.190475 a 81.642853,79.374992 0 0 1 -78.056732,79.298385 81.642853,79.374992 0 0 1 -84.91394,-72.332098 81.642853,79.374992 0 0 1 70.59713,-85.652689 81.642853,79.374992 0 0 1 91.115824,64.807592"
         sodipodi:open="true"
         sodipodi:end="6.1074307"
         sodipodi:start="0"
         sodipodi:ry="79.374992"
         sodipodi:rx="81.642853"
         sodipodi:cy="67.190475"
         sodipodi:cx="-127.75595"
         sodipodi:type="arc"
         id="path10300-9-0"
         style="opacity:1;fill:#ffe600;fill-opacity:1;stroke-width:0.37188879;filter:url(#filter16428)" />
      <path
         d="m -51.993034,67.457748 a 75.762917,72.693253 0 0 1 -72.435066,72.623092 75.762917,72.693253 0 0 1 -78.79842,-66.243223 75.762917,72.693253 0 0 1 65.5127,-78.4424962 75.762917,72.693253 0 0 1 84.553648,59.3521272"
         sodipodi:open="true"
         sodipodi:end="6.1074307"
         sodipodi:start="0"
         sodipodi:ry="72.693253"
         sodipodi:rx="75.762917"
         sodipodi:cy="67.457748"
         sodipodi:cx="-127.75595"
         sodipodi:type="arc"
         id="path10300-9-0-3"
         style="opacity:1;fill:#ffe680;fill-opacity:1;stroke-width:0.34283689" />
      <ellipse
         ry="23.778784"
         rx="18.360992"
         style="fill:#ffffff;stroke-width:0.73460221"
         cx="-163.06085"
         cy="48.314857"
         id="circle5318-4" />
      <ellipse
         ry="11.889392"
         rx="9.1804962"
         style="fill:#272525;stroke-width:0.73460221"
         cx="-163.06085"
         cy="48.314857"
         id="circle5320-3" />
      <ellipse
         ry="23.778784"
         rx="18.360992"
         style="fill:#ffffff;stroke-width:0.73460221"
         cx="-89.615517"
         cy="48.314857"
         id="circle5322-3" />
      <ellipse
         ry="11.889392"
         rx="9.1804962"
         style="fill:#272525;stroke-width:0.73460221"
         cx="-89.615517"
         cy="48.314857"
         id="circle5324-3" />
      <path
         inkscape:connector-curvature="0"
         style="fill:#e8d174;fill-opacity:1;stroke-width:0.26458332"
         d="m -127.18278,131.51569 c -27.22985,0 -51.95675,-23.20926 -52.9156,-49.665469 -0.0212,-0.574675 0.19261,-1.132417 0.5916,-1.546225 0.399,-0.413808 0.94827,-0.646642 1.52295,-0.646642 h 100.541675 c 1.13877,0 2.07328,0.9017 2.11561,2.040467 0.42333,11.699873 -4.55824,23.829429 -13.6705,33.276119 -10.13778,10.51242 -24.054865,16.54175 -38.185735,16.54175 z"
         id="path4576-4" />
      <path
         inkscape:connector-curvature="0"
         style="fill:#f5f5f5;stroke-width:0.26458332"
         d="m -77.756175,81.666222 c 0.88159,24.341658 -22.394345,47.624998 -49.741685,47.624998 -27.33569,0 -49.9184,-23.28334 -50.8,-47.624998 z"
         id="path4580-8" />
      <path
         inkscape:connector-curvature="0"
         style="fill:#e6e6e6;stroke-width:0.26458332"
         d="m -86.739315,108.56905 c 1.00542,-1.34197 1.93675,-2.72627 2.79083,-4.14867 h -0.67416 V 81.666222 h -2.11667 V 104.42038 H -105.78932 V 81.666222 h -2.11667 v 22.754158 h -19.05 V 81.666222 h -2.11667 v 22.754158 h -19.05 V 81.666222 h -2.11666 v 22.754158 h -19.05 V 81.666222 h -2.11667 V 103.8563 c 0.66358,1.09643 1.36948,2.17063 2.11667,3.21944 v -0.53975 h 19.05 v 17.11432 c 0.69638,0.36089 1.40229,0.7059 2.11666,1.0361 v -18.15042 h 19.05 v 22.71184 c 0.52494,0.0169 1.04669,0.0423 1.5748,0.0423 0.18098,0 0.36089,-0.0138 0.54187,-0.0159 v -22.73718 h 19.05 v 18.66371 c 0.71332,-0.30691 1.42028,-0.62653 2.11667,-0.9652 v -17.69851 h 19.050005 z"
         id="path4588-4" />
    </g>
    <g
       id="layer1-7"
       inkscape:label="Layer 1"
       transform="translate(1649.4882,239.63691)">
      <path
         transform="matrix(2.1230321,0,0,2.2289927,-182.99172,-695.59905)"
         d="m 111.57705,397.49335 a 81.642853,79.374992 0 0 1 -78.056733,79.29838 81.642853,79.374992 0 0 1 -84.913938,-72.3321 81.642853,79.374992 0 0 1 70.597123,-85.65269 81.642853,79.374992 0 0 1 91.115828,64.8076"
         sodipodi:open="true"
         sodipodi:end="6.1074307"
         sodipodi:start="0"
         sodipodi:ry="79.374992"
         sodipodi:rx="81.642853"
         sodipodi:cy="397.49335"
         sodipodi:cx="29.934195"
         sodipodi:type="arc"
         id="path10300-9-0-1"
         style="opacity:1;fill:#00bae8;fill-opacity:1;stroke-width:0.37188879;filter:url(#filter16428-6-6)" />
      <path
         d="M 41.40667,191.00641 A 160.84711,162.03273 0 0 1 -112.37531,352.88275 160.84711,162.03273 0 0 1 -279.66688,205.22709 160.84711,162.03273 0 0 1 -140.58131,30.379337 160.84711,162.03273 0 0 1 38.9288,162.6748"
         sodipodi:open="true"
         sodipodi:end="6.1074307"
         sodipodi:start="0"
         sodipodi:ry="162.03273"
         sodipodi:rx="160.84711"
         sodipodi:cy="191.00641"
         sodipodi:cx="-119.44044"
         sodipodi:type="arc"
         id="path10300-9-0-3-8"
         style="opacity:1;fill:#ffffff;fill-opacity:1;stroke-width:0.74579614" />
      <ellipse
         ry="53.002735"
         rx="38.980984"
         style="fill:#00bae8;fill-opacity:0.22651936;stroke-width:1.59802997"
         cx="-194.39388"
         cy="148.33704"
         id="circle5318-4-9" />
      <ellipse
         ry="26.501368"
         rx="19.490492"
         style="fill:#272525;stroke-width:1.59802997"
         cx="-194.39388"
         cy="148.33704"
         id="circle5320-3-1" />
      <ellipse
         ry="53.002735"
         rx="38.980984"
         style="fill:#c6f0fa;fill-opacity:1;stroke-width:1.59802997"
         cx="-38.467049"
         cy="148.33704"
         id="circle5322-3-1" />
      <ellipse
         ry="26.501368"
         rx="19.490492"
         style="fill:#272525;stroke-width:1.59802997"
         cx="-38.467049"
         cy="148.33704"
         id="circle5324-3-6" />
      <path
         inkscape:connector-curvature="0"
         style="opacity:0.23699999;fill:#808080;fill-opacity:0.9447514;stroke-width:1.22243595"
         d="m 18.172184,85.359812 h -102.64693 c -9.32807,0 -17.362854,6.607781 -21.015064,16.075838 h -27.9035 c -3.65223,-9.469398 -11.68925,-16.075838 -21.01731,-16.075838 h -102.64689 c -12.7504,0 -23.12282,12.321641 -23.12282,27.464988 v 15.02204 c 0,48.75518 33.39757,88.41922 74.44738,88.41922 37.43905,0 68.49786,-32.99766 73.67674,-75.78843 h 25.23154 c 5.17893,42.79077 36.237694,75.78843 73.676764,75.78843 41.05095,0 74.44734,-39.66544 74.44734,-88.41922 V 112.8248 c 0,-15.143347 -10.37579,-27.464988 -23.12725,-27.464988 z"
         id="path4661-7-4" />
      <path
         inkscape:connector-curvature="0"
         style="opacity:0.91000001;fill:#00ccff;fill-opacity:1;stroke-width:1.17322004"
         d="m 16.082984,93.051411 h -101.08858 c -9.18648,0 -17.099244,6.180241 -20.696044,15.035729 h -27.47984 c -3.59678,-8.856737 -11.51176,-15.035729 -20.69817,-15.035729 h -101.08854 c -12.55685,0 -22.77175,11.524409 -22.77175,25.687989 v 14.0501 c 0,45.60071 32.89052,82.69848 73.31709,82.69848 36.87064,0 67.45791,-30.8627 72.55817,-70.8849 h 24.84847 c 5.10029,40.0222 35.687544,70.8849 72.558194,70.8849 40.42772,0 73.31704,-37.09907 73.31704,-82.69848 v -14.0501 c 0,-14.16358 -10.2182,-25.687989 -22.77604,-25.687989 z"
         id="path4661-7-8-3" />
      <path
         inkscape:connector-curvature="0"
         style="opacity:0.13900003;fill:#356e7d;fill-opacity:1;stroke-width:0.57556593"
         d="m -119.35277,319.28483 c -34.60637,0 -67.42201,-15.36194 -90.03229,-42.13677 -2.21318,-2.6185 -3.32539,-5.99424 -3.12765,-9.49503 0.20232,-3.49607 1.68739,-6.70905 4.18366,-9.03505 2.29182,-2.13018 5.23523,-3.30496 8.29547,-3.30496 3.57703,0 6.98554,1.61356 9.35824,4.42314 17.8694,21.16274 43.8635,33.29518 71.32032,33.29518 27.384924,0 53.325114,-12.06873 71.167554,-33.11824 2.37719,-2.79781 5.77897,-4.39723 9.34474,-4.39723 3.0625,0 6.01716,1.17952 8.3067,3.31679 2.4963,2.3307 3.97698,5.54368 4.16796,9.04211 0.19767,3.5008 -0.9212,6.87418 -3.13661,9.49271 -22.58111,26.63801 -55.33383,41.91735 -89.848094,41.91735 z"
         id="path5050-2-7" />
      <path
         inkscape:connector-curvature="0"
         style="fill:#10cdfc;fill-opacity:1;stroke-width:0.57556593"
         d="m -119.35277,312.71732 c -32.81785,0 -63.92811,-14.55277 -85.3543,-39.93107 -2.29181,-2.70815 -2.05365,-6.85766 0.528,-9.26622 2.58617,-2.40856 6.53619,-2.15615 8.82573,0.55673 19.05576,22.5687 46.75973,35.51265 76.00057,35.51265 29.168964,0 56.812244,-12.87317 75.838814,-35.32158 2.29406,-2.70343 6.24406,-2.94877 8.82797,-0.54021 2.57942,2.40855 2.80861,6.55807 0.51454,9.26857 -21.39927,25.24623 -52.44434,39.72113 -85.181324,39.72113 z"
         id="path5054-5-6" />
      <path
         transform="matrix(0.972077,0,0,0.96314419,-264.66081,-49.013281)"
         inkscape:transform-center-y="-4.2577492"
         inkscape:transform-center-x="0.17384511"
         d="m 308.42858,198.72619 -28.43681,-14.51591 -28.07912,15.19628 5.01799,-31.53068 -23.12944,-22.00892 31.5381,-4.97112 13.78434,-28.79854 14.47362,28.45835 31.64864,4.21045 -22.59291,22.55935 z"
         inkscape:randomized="0"
         inkscape:rounded="0"
         inkscape:flatsided="false"
         sodipodi:arg2="1.5587584"
         sodipodi:arg1="0.93043986"
         sodipodi:r2="24.039404"
         sodipodi:r1="48.078808"
         sodipodi:cy="160.17262"
         sodipodi:cx="279.70239"
         sodipodi:sides="5"
         id="path19081-5"
         style="opacity:0.972;fill:#6daaba;fill-opacity:1;stroke-width:0.26458332"
         sodipodi:type="star" />
      <path
         transform="matrix(0.972077,0,0,0.96314419,-264.66081,-49.013281)"
         inkscape:transform-center-y="-4.2577495"
         inkscape:transform-center-x="0.17384528"
         d="m 296.51217,191.8076 -28.43681,-14.51591 -28.07912,15.19628 5.01799,-31.53068 -23.12945,-22.00892 31.53811,-4.97113 13.78433,-28.79854 14.47363,28.45836 31.64864,4.21045 -22.59291,22.55935 z"
         inkscape:randomized="0"
         inkscape:rounded="0"
         inkscape:flatsided="false"
         sodipodi:arg2="1.5587584"
         sodipodi:arg1="0.93043986"
         sodipodi:r2="24.039404"
         sodipodi:r1="48.078808"
         sodipodi:cy="153.25403"
         sodipodi:cx="267.78598"
         sodipodi:sides="5"
         id="path19081-3-7"
         style="opacity:0.88500001;fill:#2e6775;fill-opacity:1;stroke-width:0.26458332"
         sodipodi:type="star" />
    </g>
    <g
       id="layer1-0"
       inkscape:label="Layer 1"
       transform="matrix(2.4143368,0,0,2.3798488,1422.2678,43.961954)">
      <path
         d="m -84.32196,157.14882 a 81.642853,79.374992 0 0 1 -78.05673,79.29838 81.642853,79.374992 0 0 1 -84.91394,-72.33209 81.642853,79.374992 0 0 1 70.59712,-85.652693 81.642853,79.374992 0 0 1 91.115831,64.807593"
         sodipodi:open="true"
         sodipodi:end="6.1074307"
         sodipodi:start="0"
         sodipodi:ry="79.374992"
         sodipodi:rx="81.642853"
         sodipodi:cy="157.14882"
         sodipodi:cx="-165.96481"
         sodipodi:type="arc"
         id="path10300-9-0-5"
         style="opacity:1;fill:#808d79;fill-opacity:1;stroke-width:0.37188879;filter:url(#filter6714)" />
      <path
         d="m -90.201897,157.41609 a 75.762917,72.693253 0 0 1 -72.435063,72.62309 75.762917,72.693253 0 0 1 -78.79842,-66.24322 75.762917,72.693253 0 0 1 65.5127,-78.442496 75.762917,72.693253 0 0 1 84.553646,59.352126"
         sodipodi:open="true"
         sodipodi:end="6.1074307"
         sodipodi:start="0"
         sodipodi:ry="72.693253"
         sodipodi:rx="75.762917"
         sodipodi:cy="157.41609"
         sodipodi:cx="-165.96481"
         sodipodi:type="arc"
         id="path10300-9-0-3-85"
         style="opacity:1;fill:#dee3db;fill-opacity:1;stroke-width:0.34283689" />
      <path
         inkscape:connector-curvature="0"
         style="fill:#272525;stroke-width:0.53679067"
         d="m -120.32312,137.52821 c -0.60618,0 -1.22188,-0.15689 -1.78839,-0.48538 -10.0104,-5.8119 -22.29053,-5.27968 -22.41642,-5.27477 -1.37951,0.0675 -2.68443,-0.67495 -3.36043,-1.92241 -0.67494,-1.24529 -0.60618,-2.77766 0.17667,-3.95377 0.3983,-0.59813 9.9739,-14.59701 28.78129,-10.41445 1.96982,0.43852 3.21973,2.43774 2.79498,4.46529 -0.4258,2.02917 -2.3734,3.31858 -4.33581,2.87844 -6.5791,-1.46702 -11.62794,0.0144 -15.14811,2.0161 4.99066,0.72396 11.29417,2.29446 17.08936,5.65991 1.75453,1.01867 2.37446,3.30932 1.38585,5.11733 -0.66859,1.22514 -1.90581,1.91371 -3.17899,1.91371 z"
         id="path5663-5" />
      <ellipse
         ry="16.903473"
         rx="16.413359"
         style="fill:#ffffff;fill-opacity:0.98823529;stroke-width:0.53679067"
         cx="-194.92799"
         cy="127.66666"
         id="circle5665-1" />
      <ellipse
         ry="8.4517365"
         rx="8.2066793"
         style="fill:#272525;stroke-width:0.53679067"
         cx="-194.92799"
         cy="127.66666"
         id="circle5667-9" />
      <path
         d="m -141.22869,193.43452 a 21.712324,20.910513 0 0 1 -20.75862,20.89034 21.712324,20.910513 0 0 1 -22.58224,-19.05514 21.712324,20.910513 0 0 1 18.77479,-22.56431 21.712324,20.910513 0 0 1 24.23159,17.07289"
         sodipodi:open="true"
         sodipodi:end="6.1074307"
         sodipodi:start="0"
         sodipodi:ry="20.910513"
         sodipodi:rx="21.712324"
         sodipodi:cy="193.43452"
         sodipodi:cx="-162.94101"
         sodipodi:type="arc"
         id="path10300-9-0-3-8-9"
         style="opacity:1;fill:#818d79;fill-opacity:0.98823529;stroke-width:0.09843457" />
      <path
         inkscape:connector-curvature="0"
         style="fill:#d40000;stroke-width:0.26458332"
         d="m -102.46481,180.64646 c -17.04658,-9.02441 -34.92501,-1.29858 -34.92501,17.99168 0,19.29024 24.34167,33.86667 34.92501,37.04167 10.583325,-3.175 34.924995,-17.75143 34.924995,-37.04167 0,-19.29026 -17.87843,-27.01609 -34.924995,-17.99168 z"
         id="path5233-2-1" />
    </g>
    <path
       style="opacity:1;fill:#00ffff;fill-opacity:0;stroke-width:0.62317055"
       id="path4550"
       sodipodi:type="arc"
       sodipodi:cx="1360.8063"
       sodipodi:cy="346.04309"
       sodipodi:rx="1.7600943"
       sodipodi:ry="73.845818"
       sodipodi:start="0"
       sodipodi:end="0.0015558357"
       d="m 1362.5664,346.04309 a 1.7600943,73.845818 0 0 1 0,0.11489 l -1.7601,-0.11489 z"
       clip-path="none" />
    <path
       id="rect4603-4-7"
       style="opacity:1;fill:#fb257b;fill-opacity:1;stroke-width:0.23205499;filter:url(#filter5599-8)"
       d="m 1023.338,68.197257 c -43.97376,0 -79.37552,35.401253 -79.37552,79.375003 0,43.97379 35.40176,79.37501 79.37552,79.37501 43.9737,0 79.375,-35.40122 79.375,-79.37501 0,-31.23977 -17.8721,-58.143213 -43.987,-71.109863 -0.7689,0.77369 -3.6595,3.84032 -4.1253,3.44733 -0.3874,0.0122 -0.6889,-0.18872 -0.8356,-0.55655 -0.021,-0.007 -0.041,-0.013 -0.062,-0.0196 -0.2056,-0.0663 -0.4136,-0.1253 -0.6201,-0.18862 -0.2852,-0.0831 -0.5704,-0.16711 -0.8553,-0.25114 -0.049,-0.0145 -0.098,-0.0302 -0.1468,-0.045 -0.125,-0.0282 -0.2543,-0.0639 -0.3891,-0.1111 -0.1188,-0.0417 -0.1262,-0.0446 -0.1798,-0.0635 -0.091,-0.0283 -0.1824,-0.0554 -0.2734,-0.0837 -0.3228,-0.1003 -0.6469,-0.19619 -0.9705,-0.29403 -0.2218,-0.0687 -0.1118,-0.0342 -0.3291,-0.10234 -0.1584,-0.0497 -0.299,-0.10822 -0.4315,-0.17053 -0.018,-0.005 -0.036,-0.0111 -0.055,-0.0161 -0.2272,-0.0577 -0.4554,-0.11043 -0.6847,-0.15867 -0.246,-0.0533 -0.4931,-0.10102 -0.738,-0.15914 -0.2715,-0.066 -0.5416,-0.13777 -0.8067,-0.22686 -0.2748,-0.0937 -0.5469,-0.19576 -0.8164,-0.30387 -0.2632,-0.10554 -0.5251,-0.21394 -0.785,-0.32711 -0.056,-0.0238 -0.1104,-0.0491 -0.1659,-0.0729 -0.017,0.006 -0.034,0.0114 -0.051,0.0172 -0.1808,0.0556 -0.3654,0.0945 -0.5524,0.12141 -0.2855,0.0389 -0.5689,0.005 -0.8485,-0.0542 -0.2576,-0.0617 -0.5002,-0.16806 -0.7416,-0.2744 -0.2006,-0.0902 -0.4013,-0.18098 -0.601,-0.27287 -0.1888,-0.0866 -0.3767,-0.17441 -0.5669,-0.25786 -0.1612,-0.0724 -0.3249,-0.13885 -0.4915,-0.19793 -0.1374,-0.0485 -0.2779,-0.0879 -0.4201,-0.12039 -0.091,-0.0185 -0.041,-0.008 -0.1519,-0.0315 -0.2482,-0.0518 -0.4617,-0.12557 -0.6511,-0.21188 -0.1412,0.0752 -0.2991,0.0726 -0.4827,0.0244 -1.0804,1.72937 -3.0899,0.73033 -2.2154,-1.52445 0.027,-0.0687 0.9223,-1.1062 0.9457,-1.17608 0.024,-0.0675 -0.3433,-3.12218 -0.3323,-3.19315 0.019,-0.11737 -0.4461,3.71925 -0.4356,3.6008 0.8085,-5.49408 0.5466,-3.78085 0.026,-0.35862 0,-0.13605 0.01,-0.27225 0.016,-0.40825 0.01,-0.12398 -0.2278,1.65915 -0.2196,1.5353 0.4024,0.0737 1.0212,-1.7812 0.3286,-2.48616 -0.064,2.29613 0.023,1.30786 0.1515,-0.45164 0.036,-0.0927 0.073,-0.18516 0.108,-0.27803 0.043,-0.11472 0.089,-0.22812 0.139,-0.34001 0,-0.009 0,0.009 0,0 -0.085,-0.22019 -0.1195,-0.50935 -0.1137,-0.81339 -4.8426,-0.91882 -9.8401,-1.40922 -14.9582,-1.40922 z m 19.252,2.34355 c -2e-4,0 -8e-4,0.003 -10e-4,0.003 8e-4,0 0,0 0,-0.003 -5e-4,-1.3e-4 0,0 0,0 z m 16.058,6.07507 c -0.013,0.0254 -0.026,0.0511 -0.039,0.0765 0,0.006 -0.016,0.018 -0.021,0.0249 0.025,-0.0417 0.04,-0.0684 0.059,-0.10128 z"
       inkscape:connector-curvature="0"
       sodipodi:nodetypes="csssccccccccccccccccccccccccccccccccccccccccccccccsccsccccc"
       transform="matrix(2.3974293,0,0,2.3416423,-481.70917,97.685302)" />
    <path
       style="opacity:1;fill:#ff00ff;fill-opacity:0;stroke-width:0.6268962"
       id="path5713-4"
       sodipodi:type="arc"
       sodipodi:cx="1992.7037"
       sodipodi:cy="386.13455"
       sodipodi:rx="160.3923"
       sodipodi:ry="159.31531"
       sodipodi:start="0"
       sodipodi:end="6.2793107"
       d="m 2153.096,386.13455 a 160.3923,159.31531 0 0 1 -160.2369,159.31523 160.3923,159.31531 0 0 1 -160.5474,-159.00659 160.3923,159.31531 0 0 1 159.9259,-159.62327 160.3923,159.31531 0 0 1 160.8572,158.69735 l -160.3911,0.61728 z"
       clip-path="none" />
    <path
       style="opacity:1;fill:#00ffff;fill-opacity:0;stroke-width:0.69302148"
       id="path4550-3"
       sodipodi:type="arc"
       sodipodi:cx="752.87946"
       sodipodi:cy="396.70242"
       sodipodi:rx="1.9683281"
       sodipodi:ry="81.666489"
       sodipodi:start="0"
       sodipodi:end="0.0015558357"
       d="m 754.84778,396.70242 a 1.9683281,81.666489 0 0 1 0,0.12706 l -1.96832,-0.12706 z"
       clip-path="none" />
    <path
       id="rect4603-9"
       style="opacity:1;fill:#fb257b;fill-opacity:1;stroke-width:0.54982454"
       d="m 1973.6746,258.68212 c -105.424,0 -190.2972,82.89706 -190.2972,185.86788 0,102.97084 84.8732,185.86788 190.2972,185.86788 105.4239,0 190.296,-82.89704 190.296,-185.86788 0,-73.1524 -42.8473,-136.15064 -105.4558,-166.51388 -1.8433,1.8117 -8.7733,8.99266 -9.8901,8.07241 -2.9659,-2.18129 -2.1776,-1.01248 -2.0032,-1.30324 -0.047,-0.0163 -0.098,-0.0304 -0.1487,-0.0459 -0.4929,-0.15525 -0.9916,-0.29341 -1.4869,-0.44167 -0.6835,-0.19459 -1.3672,-0.39131 -2.0503,-0.58808 -0.1174,-0.0339 -0.2349,-0.0707 -0.3519,-0.10538 -0.2997,-0.0661 -0.6096,-0.14963 -0.9328,-0.26015 -0.2849,-0.0976 -0.3026,-0.10444 -0.4311,-0.14893 -0.2181,-0.0663 -0.4373,-0.12973 -0.6555,-0.196 -0.7738,-0.23487 -1.5508,-0.45941 -2.3267,-0.68851 -0.5317,-0.16088 -0.268,-0.0801 -0.7892,-0.23965 -0.3796,-0.11637 -0.7166,-0.25341 -1.0345,-0.39931 -0.043,-0.0118 -0.086,-0.0259 -0.1319,-0.0377 -0.5444,-0.13511 -1.0915,-0.25858 -1.6414,-0.37154 -0.5896,-0.12481 -1.182,-0.23654 -1.7692,-0.37265 -0.651,-0.15455 -1.2984,-0.32262 -1.9339,-0.53123 -0.6589,-0.21941 -1.3112,-0.4584 -1.9575,-0.71156 -0.6308,-0.24713 -1.2587,-0.50097 -1.8817,-0.76596 -0.1344,-0.0558 -0.2648,-0.11475 -0.3978,-0.17071 -0.04,0.0141 -0.082,0.0267 -0.1223,0.0403 -0.4334,0.1302 -0.8761,0.22128 -1.3243,0.28433 -0.6845,0.0911 -1.3639,0.0118 -2.0345,-0.12692 -0.6173,-0.14447 -1.199,-0.39354 -1.7777,-0.64255 -0.4807,-0.21122 -0.9621,-0.42376 -1.4408,-0.63894 -0.4524,-0.20278 -0.9032,-0.40842 -1.3592,-0.60384 -0.3864,-0.16953 -0.7789,-0.32514 -1.1781,-0.46347 -0.3296,-0.11358 -0.6664,-0.20584 -1.0074,-0.28191 -0.2181,-0.0433 -0.098,-0.0188 -0.3641,-0.0737 -0.5951,-0.1213 -1.1069,-0.29404 -1.5609,-0.49613 -0.3385,0.1761 -0.7172,0.17001 -1.1573,0.0569 -2.5902,4.04957 -7.4078,1.71017 -5.3113,-3.56972 0.065,-0.16087 2.2112,-2.59032 2.2673,-2.75395 0.058,-0.15807 -0.8231,-7.31106 -0.7967,-7.47722 0.046,-0.27484 -1.0695,8.70915 -1.0443,8.43178 1.9385,-12.86517 1.3105,-8.85339 0.062,-0.83975 0.024,-0.31859 0.024,-0.63755 0.039,-0.95598 0.024,-0.29034 -0.5461,3.88513 -0.5264,3.59512 0.9647,0.17258 22.5765,9.10316 20.9161,7.45242 -0.151,5.37672 -20.0732,-10.21158 -19.7652,-14.33169 0.086,-0.21707 0.175,-0.43358 0.259,-0.65105 0.103,-0.26863 0.2133,-0.53418 0.3332,-0.79621 0,-0.0211 0,0.0211 0,0 -0.2038,-0.51559 -0.2865,-1.19268 -0.2726,-1.90464 -11.61,-2.15155 -23.5909,-3.29989 -35.8614,-3.29989 z m 46.1553,5.48775 c -5e-4,0 0,0.007 0,0.007 0,0 0,0 0,-0.007 0,-3e-4 0,0 0,0 z m 38.6849,13.86625 c -0.031,0.0595 -6.0741,5.75154 -6.1058,5.81102 0,0.0141 -5.7456,14.0143 -5.7576,14.0307 0.06,-0.0976 11.1582,-14.57955 11.2042,-14.65655 z"
       inkscape:connector-curvature="0"
       sodipodi:nodetypes="csssccccccccccccccccccccccccccccccccccccccccccccccsccsccccc" />
    <rect
       style="opacity:1;fill:#ffd5d5;fill-opacity:1;stroke-width:0.52262145"
       id="rect4603-5-7-6"
       width="360.48178"
       height="354.5986"
       x="1793.0806"
       y="266.3703"
       ry="177.2993"
       clip-path="none" />
    <path
       id="path5410-0-9"
       d="m 1999.6127,578.84033 v 0 c -42.5357,0 -77.0182,-34.9966 -77.0182,-78.16693 v 0 h 154.0363 v 0 c 0,43.17033 -34.4808,78.16693 -77.0181,78.16693 z"
       style="fill:#7f184c;stroke-width:0.83556241"
       inkscape:connector-curvature="0"
       clip-path="none" />
    <path
       id="path5412-2-6"
       d="m 1941.3873,500.6734 v 12.20155 c 0,5.14492 4.1097,9.31506 9.178,9.31506 h 98.0947 c 5.0693,0 9.1781,-4.17099 9.1781,-9.31506 V 500.6734 Z"
       style="fill:#f2f2f2;stroke-width:0.83556241"
       inkscape:connector-curvature="0"
       clip-path="none" />
    <path
       id="path5414-9-7"
       d="m 1035.6673,191.62904 c -8.6838,-4.19224 -18.3203,-3.58292 -26.1347,0.76497 5.8719,7.9524 15.1057,13.08396 25.4975,13.08396 v 0 c 4.5794,0 8.9315,-1.00259 12.8736,-2.79674 -2.8922,-4.65023 -7.0391,-8.54338 -12.2364,-11.05219 z"
       style="fill:#ff2a7f;fill-opacity:1;stroke-width:0.35265148;filter:url(#filter13378)"
       inkscape:connector-curvature="0"
       clip-path="none"
       transform="matrix(2.3974293,0,0,2.3416423,-481.70917,97.685302)" />
    <path
       id="path5418-2-5"
       d="m 1914.8547,500.6734 c 0,47.43306 38.0223,86.02321 84.7587,86.02321 22.8813,0 43.6737,-9.24928 58.9384,-24.2575 11.5395,-11.34579 19.92,-25.98284 23.6557,-42.40307 1.4161,-6.22527 2.1649,-12.70684 2.1649,-19.36264 0,-2.08331 -0.8155,-4.08167 -2.2668,-5.55477 -1.4524,-1.474 -3.4204,-2.30139 -5.4741,-2.30139 h -154.0377 c -4.2738,0 -7.7391,3.51771 -7.7391,7.85616 z m 153.6064,7.85551 c -3.8601,35.08583 -33.2638,62.45523 -68.8484,62.45523 -35.5846,0 -64.9883,-27.3694 -68.8484,-62.45523 z"
       inkscape:connector-curvature="0"
       sodipodi:nodetypes="ssssssssscscc"
       style="stroke-width:0.83556241"
       clip-path="none" />
    <path
       id="path5233-2-2"
       d="m 1075.0418,93.048467 c -13.6475,-9.44742 -28.7709,-2.99471 -29.6798,15.364773 -0.9089,18.35947 18.4994,33.45842 27.0868,37.01319 8.8866,-2.48882 29.6685,-15.13612 30.5774,-33.49559 0.9089,-18.359483 -13.4865,-26.612893 -27.9844,-18.882373 z"
       style="fill:#ff2a7f;fill-opacity:0.839779;stroke-width:0.23488124;filter:url(#filter13170)"
       inkscape:connector-curvature="0"
       clip-path="none"
       transform="matrix(2.3974293,0,0,2.3416423,-481.70917,97.685302)" />
    <path
       id="path5233-2-9-1"
       d="m 2095.2075,323.85969 c -28.6104,-18.69634 -60.2524,-6.03497 -62.0879,30.17649 -1.8353,36.21146 38.858,66.08138 56.8517,73.13158 18.5979,-4.86999 62.0649,-29.72549 63.9003,-65.93691 1.8352,-36.21152 -28.3366,-52.55583 -58.6641,-37.37116 z"
       style="fill:#ff2a7f;fill-opacity:1;stroke-width:0.47734815"
       inkscape:connector-curvature="0"
       clip-path="none" />
    <path
       id="path5233-2-7-38"
       d="m 992.83395,78.494177 c -22.21728,-12.73229 -44.9639,-0.5263 -44.34131,28.155083 0.6226,28.68138 32.40233,49.3753 46.11753,53.67039 13.51023,-5.14627 44.34903,-27.79786 43.72643,-56.47924 -0.6226,-28.681403 -23.8679,-39.449503 -45.50265,-25.346233 z"
       style="fill:#ff2a7f;fill-opacity:0.839779;stroke-width:0.36601794;filter:url(#filter13174)"
       inkscape:connector-curvature="0"
       clip-path="none"
       transform="matrix(2.3974293,0,0,2.3416423,-481.70917,97.685302)" />
    <path
       id="path5233-2-9-6-5"
       d="m 1898.8277,294.4385 c -46.5024,-25.06266 -94.1537,-0.93567 -92.8965,55.63433 1.2572,56.56995 67.7706,97.31429 96.4833,105.75473 28.299,-10.18142 92.9123,-54.92983 91.6551,-111.49978 -1.2572,-56.56998 -49.9157,-77.75601 -95.2419,-49.88928 z"
       style="fill:#ff2a7f;fill-opacity:1;stroke-width:0.74385679"
       inkscape:connector-curvature="0"
       clip-path="none" />
    <path
       style="opacity:1;fill:#fb257b;fill-opacity:1;stroke-width:0.64364988"
       id="path5113-7"
       sodipodi:type="arc"
       sodipodi:cx="2713.1567"
       sodipodi:cy="-1429.5458"
       sodipodi:rx="2.8296022"
       sodipodi:ry="3.650965"
       sodipodi:start="0"
       sodipodi:end="6.1074307"
       d="m 2715.9863,-1429.5458 a 2.8296022,3.650965 0 0 1 -2.7053,3.6475 2.8296022,3.650965 0 0 1 -2.9429,-3.3271 2.8296022,3.650965 0 0 1 2.4467,-3.9397 2.8296022,3.650965 0 0 1 3.158,2.9809"
       transform="matrix(0.78193525,0.62335966,0.07793429,0.9969585,0,0)"
       inkscape:transform-center-x="-12.129011"
       inkscape:transform-center-y="-37.544247"
       sodipodi:open="true" />
    <path
       style="opacity:1;fill:#fb257b;fill-opacity:1;stroke-width:0.76630783"
       id="path5113-0-2"
       sodipodi:type="arc"
       sodipodi:cx="1450.7008"
       sodipodi:cy="-1931.9492"
       sodipodi:rx="3.1063058"
       sodipodi:ry="4.1267471"
       sodipodi:start="1.4827252"
       sodipodi:end="4.338157"
       d="m 1450.974,-1927.8385 a 3.1063058,4.1267471 0 0 1 -3.2969,-3.1653 3.1063058,4.1267471 0 0 1 1.8882,-4.7865"
       transform="matrix(0.31919089,0.94769044,-0.82438012,0.56603659,0,0)"
       inkscape:transform-center-x="-48.717587"
       inkscape:transform-center-y="3.5545224"
       sodipodi:open="true" />
    <ellipse
       id="circle5420-4-1-2"
       cy="275.10367"
       cx="2034.3726"
       style="fill:#fb257b;fill-opacity:1;stroke-width:0.6268962"
       rx="5.9201069"
       ry="5.7823491" />
    <path
       style="opacity:1;fill:#00ffff;fill-opacity:0;stroke-width:0.62317055"
       id="path4550-7-2"
       sodipodi:type="arc"
       sodipodi:cx="2197.7993"
       sodipodi:cy="276.58768"
       sodipodi:rx="1.7600943"
       sodipodi:ry="73.845818"
       sodipodi:start="0"
       sodipodi:end="0.0015558357"
       d="m 2199.5594,276.58768 a 1.7600943,73.845818 0 0 1 0,0.11489 l -1.7601,-0.11489 z"
       clip-path="none" />
    <path
       style="opacity:1;fill:#808d79;fill-opacity:1;stroke-width:0.37188879;filter:url(#filter6714-9)"
       id="path10300-9-0-6"
       sodipodi:type="arc"
       sodipodi:cx="1149.0476"
       sodipodi:cy="-93.071373"
       sodipodi:rx="81.642853"
       sodipodi:ry="79.374992"
       sodipodi:start="0"
       sodipodi:end="6.1074307"
       sodipodi:open="true"
       d="m 1230.6905,-93.071373 a 81.642853,79.374992 0 0 1 -78.0568,79.298384 81.642853,79.374992 0 0 1 -84.9139,-72.332098 81.642853,79.374992 0 0 1 70.5971,-85.652693 81.642853,79.374992 0 0 1 91.1158,64.8076"
       transform="matrix(2.9756994,0,0,3.1845289,-2270.1727,203.31712)" />
    <path
       style="opacity:1;fill:#dee3db;fill-opacity:1;stroke-width:1.05536985"
       id="path10300-9-0-3-1"
       sodipodi:type="arc"
       sodipodi:cx="1149.0476"
       sodipodi:cy="-92.220421"
       sodipodi:rx="225.44766"
       sodipodi:ry="231.49376"
       sodipodi:start="0"
       sodipodi:end="6.1074307"
       sodipodi:open="true"
       d="M 1374.4953,-92.220421 A 225.44766,231.49376 0 0 1 1158.9503,139.04991 225.44766,231.49376 0 0 1 924.46989,-71.903546 225.44766,231.49376 0 0 1 1119.416,-321.70594 a 225.44766,231.49376 0 0 1 251.6062,189.00856" />
    <path
       id="path5663-5-1"
       d="m 1284.8636,-155.55395 c -1.8039,0 -3.636,-0.49965 -5.3218,-1.54577 -29.7879,-18.50816 -66.3298,-16.81304 -66.7044,-16.79743 -4.105,0.21336 -7.9883,-2.14956 -9.9999,-6.12194 -2.0083,-3.96569 -1.8035,-8.84567 0.5258,-12.59099 1.1853,-1.90483 29.6794,-46.48467 85.6445,-33.16518 5.8616,1.39648 9.5809,7.76305 8.3171,14.21984 -1.267,6.46195 -7.0625,10.56812 -12.902,9.16648 -19.5774,-4.67177 -34.6015,0.0459 -45.0762,6.42033 14.8505,2.30541 33.6078,7.30671 50.8526,18.02424 5.2212,3.24376 7.0658,10.53856 4.124,16.29619 -1.9895,3.90137 -5.6711,6.09423 -9.4597,6.09423 z"
       style="fill:#272525;stroke-width:1.65242624"
       inkscape:connector-curvature="0" />
    <ellipse
       id="circle5665-1-7"
       cy="-186.95821"
       cx="1062.8621"
       style="fill:#ffffff;fill-opacity:0.98823529;stroke-width:1.65242624"
       rx="48.841221"
       ry="53.829597" />
    <ellipse
       id="circle5667-9-4"
       cy="-186.95821"
       cx="1062.8621"
       style="fill:#272525;stroke-width:1.65242624"
       rx="24.42061"
       ry="26.914799" />
    <path
       style="opacity:1;fill:#818d79;fill-opacity:0.98823529;stroke-width:0.30301544"
       id="path10300-9-0-3-8-9-8"
       sodipodi:type="arc"
       sodipodi:cx="1158.0455"
       sodipodi:cy="22.481308"
       sodipodi:rx="64.60936"
       sodipodi:ry="66.590134"
       sodipodi:start="0"
       sodipodi:end="6.1074307"
       sodipodi:open="true"
       d="m 1222.6549,22.481308 a 64.60936,66.590134 0 0 1 -61.7714,66.525864 64.60936,66.590134 0 0 1 -67.198,-60.681631 64.60936,66.590134 0 0 1 55.8681,-71.856687 64.60936,66.590134 0 0 1 72.106,54.369091" />
    <path
       id="path5233-2"
       d="m -121.36362,164.01551 c -17.04658,-9.02441 -34.92501,-1.29858 -34.92501,17.99168 0,19.29024 24.34167,33.86667 34.92501,37.04167 10.58332,-3.175 34.924996,-17.75143 34.924996,-37.04167 0,-19.29026 -17.878436,-27.01609 -34.924996,-17.99168 z"
       style="fill:#d40000;fill-opacity:1;stroke-width:0.26458332;filter:url(#filter6939)"
       inkscape:connector-curvature="0"
       transform="matrix(3.1518733,0,0,3.6279813,1650.8124,-667.77078)" />
    <path
       id="path5233-2-7"
       d="m 1266.9749,-47.322009 c -41.9229,-21.443981 -85.8912,-3.085808 -85.8912,42.751983 0,45.837473 59.8636,80.474002 85.8912,88.018469 26.0275,-7.544467 85.8911,-42.180996 85.8911,-88.018469 0,-45.837791 -43.9683,-64.195964 -85.8911,-42.751983 z"
       style="fill:#d40000;fill-opacity:0.99447512;stroke-width:0.63960326"
       inkscape:connector-curvature="0" />
  </g>
</svg>
