<?xml version="1.0" encoding="UTF-8" standalone="no"?>
<!-- Created with Inkscape (http://www.inkscape.org/) -->

<svg
   xmlns:dc="http://purl.org/dc/elements/1.1/"
   xmlns:cc="http://creativecommons.org/ns#"
   xmlns:rdf="http://www.w3.org/1999/02/22-rdf-syntax-ns#"
   xmlns:svg="http://www.w3.org/2000/svg"
   xmlns="http://www.w3.org/2000/svg"
   xmlns:sodipodi="http://sodipodi.sourceforge.net/DTD/sodipodi-0.dtd"
   xmlns:inkscape="http://www.inkscape.org/namespaces/inkscape"
   width="210mm"
   height="297mm"
   viewBox="0 0 210 297"
   version="1.1"
   id="svg19371"
   inkscape:version="0.92.1 r15371"
   sodipodi:docname="svg cool emotion.svg"
   inkscape:export-filename="C:\wamp64\www\fan\svg\super png\cool2ka.png"
   inkscape:export-xdpi="5.9079604"
   inkscape:export-ydpi="5.9079604">
  <defs
     id="defs19365">
    <filter
       inkscape:collect="always"
       style="color-interpolation-filters:sRGB"
       id="filter16428-6-6"
       x="-0.023666667"
       width="1.0473332"
       y="-0.024342857"
       height="1.0486857">
      <feGaussianBlur
         inkscape:collect="always"
         stdDeviation="1.6101785"
         id="feGaussianBlur16430-6-4" />
    </filter>
  </defs>
  <sodipodi:namedview
     id="base"
     pagecolor="#ffffff"
     bordercolor="#666666"
     borderopacity="1.0"
     inkscape:pageopacity="0.0"
     inkscape:pageshadow="2"
     inkscape:zoom="0.35"
     inkscape:cx="-307.14566"
     inkscape:cy="341.7162"
     inkscape:document-units="mm"
     inkscape:current-layer="layer1"
     showgrid="false"
     inkscape:window-width="1366"
     inkscape:window-height="748"
     inkscape:window-x="-8"
     inkscape:window-y="-8"
     inkscape:window-maximized="1" />
  <metadata
     id="metadata19368">
    <rdf:RDF>
      <cc:Work
         rdf:about="">
        <dc:format>image/svg+xml</dc:format>
        <dc:type
           rdf:resource="http://purl.org/dc/dcmitype/StillImage" />
        <dc:title />
      </cc:Work>
    </rdf:RDF>
  </metadata>
  <g
     inkscape:label="Layer 1"
     inkscape:groupmode="layer"
     id="layer1">
    <path
       style="opacity:1;fill:#00bae8;fill-opacity:1;stroke-width:0.37188879;filter:url(#filter16428-6-6)"
       id="path10300-9-0-1"
       sodipodi:type="arc"
       sodipodi:cx="29.934195"
       sodipodi:cy="397.49335"
       sodipodi:rx="81.642853"
       sodipodi:ry="79.374992"
       sodipodi:start="0"
       sodipodi:end="6.1074307"
       sodipodi:open="true"
       d="m 111.57705,397.49335 a 81.642853,79.374992 0 0 1 -78.056733,79.29838 81.642853,79.374992 0 0 1 -84.913938,-72.3321 81.642853,79.374992 0 0 1 70.597123,-85.65269 81.642853,79.374992 0 0 1 91.115828,64.8076"
       transform="matrix(2.388288,0,0,2.5271242,-218.90217,-816.37219)" />
    <path
       style="opacity:1;fill:#ffffff;fill-opacity:1;stroke-width:0.84225607"
       id="path10300-9-0-3-8"
       sodipodi:type="arc"
       sodipodi:cx="-147.41061"
       sodipodi:cy="188.81825"
       sodipodi:rx="180.94366"
       sodipodi:ry="183.70491"
       sodipodi:start="0"
       sodipodi:end="6.1074307"
       sodipodi:open="true"
       d="M 33.533051,188.81825 A 180.94366,183.70491 0 0 1 -139.46275,372.34586 180.94366,183.70491 0 0 1 -327.65607,204.94097 180.94366,183.70491 0 0 1 -171.19286,6.7070101 180.94366,183.70491 0 0 1 30.745591,156.69723" />
    <ellipse
       id="circle5318-4-9"
       cy="140.44179"
       cx="-231.72897"
       style="fill:#00bae8;fill-opacity:0.22651936;stroke-width:1.80471635"
       rx="43.851345"
       ry="60.091938" />
    <ellipse
       id="circle5320-3-1"
       cy="140.44179"
       cx="-231.72897"
       style="fill:#272525;stroke-width:1.80471635"
       rx="21.925673"
       ry="30.045969" />
    <ellipse
       id="circle5322-3-1"
       cy="140.44179"
       cx="-56.320255"
       style="fill:#c6f0fa;fill-opacity:1;stroke-width:1.80471635"
       rx="43.851345"
       ry="60.091938" />
    <ellipse
       id="circle5324-3-6"
       cy="140.44179"
       cx="-56.320255"
       style="fill:#272525;stroke-width:1.80471635"
       rx="21.925673"
       ry="30.045969" />
    <path
       id="path4661-7-4"
       d="M 7.3955362,69.04124 H -108.0763 c -10.49354,0 -19.5322,7.4916 -23.64072,18.226019 h -31.38982 C -167.2154,76.531311 -176.25657,69.04124 -186.7501,69.04124 h -115.4718 c -14.34346,0 -26.01184,13.969699 -26.01184,31.13849 v 17.03126 c 0,55.27627 37.57033,100.24544 83.74901,100.24544 42.11676,0 77.0561,-37.41115 82.88205,-85.92526 h 28.38402 c 5.82599,48.51411 40.765296,85.92526 82.882066,85.92526 46.1799502,0 83.74896,-44.97076 83.74896,-100.24544 v -17.03126 c 0,-17.168791 -11.67218,-31.13849 -26.0168298,-31.13849 z"
       style="opacity:0.23699999;fill:#808080;fill-opacity:0.9447514;stroke-width:1.38054359"
       inkscape:connector-curvature="0" />
    <path
       id="path4661-7-8-3"
       d="M 5.0452962,77.76161 H -108.67348 c -10.33425,0 -19.23565,7.006859 -23.28184,17.046789 h -30.91323 c -4.04618,-10.04134 -12.95007,-17.046789 -23.28423,-17.046789 h -113.71876 c -14.12573,0 -25.6169,13.065819 -25.6169,29.12381 v 15.92932 c 0,51.69988 36.99993,93.75955 82.4775,93.75955 41.47733,0 75.88621,-34.99064 81.62372,-80.36588 h 27.95308 c 5.73754,45.37524 40.146416,80.36588 81.623756,80.36588 45.4788402,0 82.47743,-42.06114 82.47743,-93.75955 v -15.92932 c 0,-16.057991 -11.4949,-29.12381 -25.6217498,-29.12381 z"
       style="opacity:0.91000001;fill:#00ccff;fill-opacity:1;stroke-width:1.32496226"
       inkscape:connector-curvature="0" />
    <path
       id="path5050-2-7"
       d="m -146.5561,321.40292 c -38.93015,0 -75.84584,-17.41663 -101.28109,-47.77262 -2.4897,-2.96873 -3.74088,-6.79598 -3.51844,-10.76499 0.2276,-3.96367 1.89822,-7.60638 4.70639,-10.2435 2.57816,-2.41509 5.88932,-3.74701 9.33192,-3.74701 4.02395,0 7.85832,1.82938 10.52748,5.01476 20.10204,23.99329 49.34389,37.74844 80.23121,37.74844 30.80645,0 59.987658,-13.68295 80.059388,-37.54784 2.67417,-3.17203 6.50097,-4.98538 10.51227,-4.98538 3.44514,0 6.76894,1.33728 9.34455,3.76042 2.80818,2.64244 4.47387,6.28517 4.68871,10.25151 0.22238,3.96905 -1.03629,7.7936 -3.52851,10.76236 -25.40241,30.20089 -62.247338,47.52385 -101.073878,47.52385 z"
       style="opacity:0.13900003;fill:#356e7d;fill-opacity:1;stroke-width:0.65000862"
       inkscape:connector-curvature="0" />
    <path
       id="path5054-5-6"
       d="m -146.5561,313.95701 c -36.91817,0 -71.9154,-16.49923 -96.01862,-45.27187 -2.57817,-3.07041 -2.31025,-7.77492 0.59396,-10.50563 2.9093,-2.73068 7.35284,-2.44454 9.92844,0.63119 21.43662,25.5873 52.60198,40.26252 85.49622,40.26252 32.81339,0 63.910478,-14.59497 85.314258,-40.04588 2.5807,-3.06501 7.02422,-3.34317 9.93095,-0.61246 2.90169,2.73069 3.15953,7.43519 0.57883,10.50825 -24.07293,28.62294 -58.996838,45.03388 -95.824038,45.03388 z"
       style="fill:#10cdfc;fill-opacity:1;stroke-width:0.65000862"
       inkscape:connector-curvature="0" />
    <path
       sodipodi:type="star"
       style="opacity:0.972;fill:#6daaba;fill-opacity:1;stroke-width:0.26458332"
       id="path19081-5"
       sodipodi:sides="5"
       sodipodi:cx="279.70239"
       sodipodi:cy="160.17262"
       sodipodi:r1="48.078808"
       sodipodi:r2="24.039404"
       sodipodi:arg1="0.93043986"
       sodipodi:arg2="1.5587584"
       inkscape:flatsided="false"
       inkscape:rounded="0"
       inkscape:randomized="0"
       d="m 308.42858,198.72619 -28.43681,-14.51591 -28.07912,15.19628 5.01799,-31.53068 -23.12944,-22.00892 31.5381,-4.97112 13.78434,-28.79854 14.47362,28.45835 31.64864,4.21045 -22.59291,22.55935 z"
       inkscape:transform-center-x="0.19555055"
       inkscape:transform-center-y="-4.8272407"
       transform="matrix(1.0935303,0,0,1.0919663,-310.77516,-83.304465)" />
    <path
       sodipodi:type="star"
       style="opacity:0.88500001;fill:#2e6775;fill-opacity:1;stroke-width:0.26458332"
       id="path19081-3-7"
       sodipodi:sides="5"
       sodipodi:cx="267.78598"
       sodipodi:cy="153.25403"
       sodipodi:r1="48.078808"
       sodipodi:r2="24.039404"
       sodipodi:arg1="0.93043986"
       sodipodi:arg2="1.5587584"
       inkscape:flatsided="false"
       inkscape:rounded="0"
       inkscape:randomized="0"
       d="m 296.51217,191.8076 -28.43681,-14.51591 -28.07912,15.19628 5.01799,-31.53068 -23.12945,-22.00892 31.53811,-4.97113 13.78433,-28.79854 14.47363,28.45836 31.64864,4.21045 -22.59291,22.55935 z"
       inkscape:transform-center-x="0.19555118"
       inkscape:transform-center-y="-4.8272407"
       transform="matrix(1.0935303,0,0,1.0919663,-310.77516,-83.304465)" />
  </g>
</svg>
