<?xml version="1.0" encoding="UTF-8" standalone="no"?>
<!-- Created with Inkscape (http://www.inkscape.org/) -->

<svg
   xmlns:dc="http://purl.org/dc/elements/1.1/"
   xmlns:cc="http://creativecommons.org/ns#"
   xmlns:rdf="http://www.w3.org/1999/02/22-rdf-syntax-ns#"
   xmlns:svg="http://www.w3.org/2000/svg"
   xmlns="http://www.w3.org/2000/svg"
   xmlns:sodipodi="http://sodipodi.sourceforge.net/DTD/sodipodi-0.dtd"
   xmlns:inkscape="http://www.inkscape.org/namespaces/inkscape"
   width="210mm"
   height="297mm"
   viewBox="0 0 210 297"
   version="1.1"
   id="svg4807"
   inkscape:version="0.92.1 r15371"
   sodipodi:docname="Svg Love emotion.svg"
   inkscape:export-filename="C:\Users\HP\Desktop\super png\love2.png"
   inkscape:export-xdpi="13.101444"
   inkscape:export-ydpi="13.101444">
  <defs
     id="defs4801">
    <inkscape:perspective
       sodipodi:type="inkscape:persp3d"
       inkscape:vp_x="0 : 148.5 : 1"
       inkscape:vp_y="0 : 1000 : 0"
       inkscape:vp_z="210 : 148.5 : 1"
       inkscape:persp3d-origin="105 : 99 : 1"
       id="perspective4554" />
    <filter
       inkscape:collect="always"
       style="color-interpolation-filters:sRGB"
       id="filter13174"
       x="-0.097176589"
       width="1.1943532"
       y="-0.09924569"
       height="1.1984915">
      <feGaussianBlur
         inkscape:collect="always"
         stdDeviation="3.6386874"
         id="feGaussianBlur13176" />
    </filter>
    <filter
       inkscape:collect="always"
       style="color-interpolation-filters:sRGB"
       id="filter13170"
       x="-0.15125509"
       width="1.3025101"
       y="-0.15402108"
       height="1.3080422">
      <feGaussianBlur
         inkscape:collect="always"
         stdDeviation="3.6386874"
         id="feGaussianBlur13172" />
    </filter>
    <filter
       inkscape:collect="always"
       style="color-interpolation-filters:sRGB"
       id="filter13378"
       x="-0.068877779"
       width="1.1377556"
       y="-0.15835656"
       height="1.3167131">
      <feGaussianBlur
         inkscape:collect="always"
         stdDeviation="1.1012154"
         id="feGaussianBlur13380" />
    </filter>
    <filter
       inkscape:collect="always"
       style="color-interpolation-filters:sRGB"
       id="filter5599-8"
       x="-0.059999902"
       width="1.1199998"
       y="-0.060000099"
       height="1.1200002">
      <feGaussianBlur
         inkscape:collect="always"
         stdDeviation="3.9687565"
         id="feGaussianBlur5601-2" />
    </filter>
  </defs>
  <sodipodi:namedview
     id="base"
     pagecolor="#ffffff"
     bordercolor="#666666"
     borderopacity="1.0"
     inkscape:pageopacity="0.0"
     inkscape:pageshadow="2"
     inkscape:zoom="0.35000001"
     inkscape:cx="-1847.9198"
     inkscape:cy="-596.71237"
     inkscape:document-units="mm"
     inkscape:current-layer="layer1"
     showgrid="false"
     inkscape:window-width="1366"
     inkscape:window-height="748"
     inkscape:window-x="-8"
     inkscape:window-y="-8"
     inkscape:window-maximized="1"
     showguides="true"
     inkscape:guide-bbox="true">
    <sodipodi:guide
       position="-3.7797619,-384.02381"
       orientation="0,1"
       id="guide4953"
       inkscape:locked="false" />
  </sodipodi:namedview>
  <metadata
     id="metadata4804">
    <rdf:RDF>
      <cc:Work
         rdf:about="">
        <dc:format>image/svg+xml</dc:format>
        <dc:type
           rdf:resource="http://purl.org/dc/dcmitype/StillImage" />
        <dc:title />
      </cc:Work>
    </rdf:RDF>
  </metadata>
  <g
     inkscape:label="Layer 1"
     inkscape:groupmode="layer"
     id="layer1">
    <path
       id="rect4603-4-7"
       style="opacity:1;fill:#fb257b;fill-opacity:1;stroke-width:0.23205499;filter:url(#filter5599-8)"
       d="m -498.87081,352.43533 c -43.97376,0 -79.37552,35.40125 -79.37552,79.375 0,43.97379 35.40176,79.37501 79.37552,79.37501 43.97374,0 79.37499,-35.40122 79.37499,-79.37501 0,-31.23977 -17.87213,-58.14321 -43.98698,-71.10986 -0.76888,0.77369 -3.65953,3.84032 -4.12533,3.44733 -0.38739,0.0122 -0.68885,-0.18872 -0.83561,-0.55655 -0.0205,-0.007 -0.041,-0.013 -0.0615,-0.0196 -0.20559,-0.0663 -0.4136,-0.1253 -0.62011,-0.18862 -0.2852,-0.0831 -0.57033,-0.16711 -0.85526,-0.25114 -0.049,-0.0145 -0.0978,-0.0302 -0.14676,-0.045 -0.12509,-0.0282 -0.25436,-0.0639 -0.38912,-0.1111 -0.11878,-0.0417 -0.12622,-0.0446 -0.17984,-0.0635 -0.091,-0.0283 -0.18237,-0.0554 -0.27336,-0.0837 -0.3228,-0.1003 -0.64695,-0.19619 -0.97049,-0.29403 -0.22182,-0.0687 -0.11184,-0.0342 -0.32918,-0.10234 -0.15835,-0.0497 -0.29894,-0.10822 -0.43149,-0.17053 -0.0184,-0.005 -0.0364,-0.0111 -0.0548,-0.0161 -0.22712,-0.0577 -0.4554,-0.11043 -0.68471,-0.15867 -0.24595,-0.0533 -0.49306,-0.10102 -0.73794,-0.15914 -0.27156,-0.066 -0.54163,-0.13777 -0.80667,-0.22686 -0.27487,-0.0937 -0.54694,-0.19576 -0.81649,-0.30387 -0.26311,-0.10554 -0.52502,-0.21394 -0.78497,-0.32711 -0.0556,-0.0238 -0.11038,-0.0491 -0.16588,-0.0729 -0.017,0.006 -0.0336,0.0114 -0.0506,0.0172 -0.1808,0.0556 -0.36536,0.0945 -0.55242,0.12141 -0.28547,0.0389 -0.56888,0.005 -0.84853,-0.0542 -0.25754,-0.0617 -0.50018,-0.16806 -0.74158,-0.2744 -0.20053,-0.0902 -0.40125,-0.18098 -0.60099,-0.27287 -0.18874,-0.0866 -0.37673,-0.17441 -0.56689,-0.25786 -0.16121,-0.0724 -0.32488,-0.13885 -0.49145,-0.19793 -0.13743,-0.0485 -0.27797,-0.0879 -0.42013,-0.12039 -0.0915,-0.0185 -0.0407,-0.008 -0.15192,-0.0315 -0.24819,-0.0518 -0.4617,-0.12557 -0.65113,-0.21188 -0.14118,0.0752 -0.29909,0.0726 -0.48265,0.0244 -1.08046,1.72937 -3.08996,0.73033 -2.21537,-1.52445 0.0266,-0.0687 0.92221,-1.1062 0.94562,-1.17608 0.0244,-0.0675 -0.34328,-3.12218 -0.33222,-3.19315 0.019,-0.11737 -0.44618,3.71925 -0.43564,3.6008 0.80854,-5.49408 0.54659,-3.78085 0.0258,-0.35862 0.005,-0.13605 0.01,-0.27225 0.016,-0.40825 0.006,-0.12398 -0.22778,1.65915 -0.21962,1.5353 0.4024,0.0737 1.02125,-1.7812 0.32866,-2.48616 -0.0635,2.29613 0.0229,1.30786 0.15141,-0.45164 0.0359,-0.0927 0.0726,-0.18516 0.10801,-0.27803 0.043,-0.11472 0.0891,-0.22812 0.13901,-0.34001 0.004,-0.009 -0.004,0.009 0,0 -0.0852,-0.22019 -0.11948,-0.50935 -0.11368,-0.81339 -4.84263,-0.91882 -9.84009,-1.40922 -14.95824,-1.40922 z m 19.25203,2.34355 c -2.6e-4,0 -7.9e-4,0.003 -10e-4,0.003 7.9e-4,0 0.002,0 0.003,-0.003 -5.3e-4,-1.3e-4 -10e-4,0 -0.002,0 z m 16.05795,6.07507 c -0.013,0.0254 -0.0256,0.0511 -0.0388,0.0765 -0.004,0.006 -0.0157,0.018 -0.0207,0.0249 0.0253,-0.0417 0.0401,-0.0684 0.0594,-0.10128 z"
       inkscape:connector-curvature="0"
       sodipodi:nodetypes="csssccccccccccccccccccccccccccccccccccccccccccccccsccsccccc" />
    <path
       style="opacity:1;fill:#ff00ff;fill-opacity:0;stroke-width:0.26458332"
       id="path5713-4"
       sodipodi:type="arc"
       sodipodi:cx="-490.09799"
       sodipodi:cy="407.42053"
       sodipodi:rx="66.901787"
       sodipodi:ry="68.035713"
       sodipodi:start="0"
       sodipodi:end="6.2793107"
       d="m -423.19621,407.42053 a 66.901787,68.035713 0 0 1 -66.83698,68.03568 66.901787,68.035713 0 0 1 -66.96646,-67.90387 66.901787,68.035713 0 0 1 66.70724,-68.16723 66.901787,68.035713 0 0 1 67.0957,67.77181 l -66.90128,0.26361 z"
       clip-path="none" />
    <path
       style="opacity:1;fill:#00ffff;fill-opacity:0;stroke-width:0.26301089"
       id="path4550-3"
       sodipodi:type="arc"
       sodipodi:cx="-587.99384"
       sodipodi:cy="442.92221"
       sodipodi:rx="0.73415893"
       sodipodi:ry="31.535906"
       sodipodi:start="0"
       sodipodi:end="0.0015558357"
       d="m -587.25968,442.92221 a 0.73415893,31.535906 0 0 1 0,0.0491 l -0.73416,-0.0491 z"
       clip-path="none" />
    <path
       id="rect4603-9"
       style="opacity:1;fill:#fb257b;fill-opacity:1;stroke-width:0.23205499"
       d="m -498.03523,352.99188 c -43.97375,0 -79.37552,35.40125 -79.37552,79.375 0,43.97378 35.40177,79.37502 79.37552,79.37502 43.97376,0 79.375,-35.40124 79.375,-79.37502 0,-31.23977 -17.87214,-58.14322 -43.98698,-71.10986 -0.76888,0.77369 -3.65952,3.84032 -4.12533,3.44733 -1.23706,-0.93152 -0.90823,-0.43238 -0.83561,-0.55655 -0.0205,-0.007 -0.041,-0.013 -0.0615,-0.0196 -0.20559,-0.0663 -0.4136,-0.1253 -0.62011,-0.18862 -0.28519,-0.0831 -0.57032,-0.16711 -0.85524,-0.25114 -0.0491,-0.0145 -0.0978,-0.0302 -0.14676,-0.045 -0.12509,-0.0282 -0.25436,-0.0639 -0.38914,-0.1111 -0.11877,-0.0417 -0.12622,-0.0446 -0.17983,-0.0636 -0.091,-0.0283 -0.18237,-0.0554 -0.27337,-0.0837 -0.3228,-0.1003 -0.64694,-0.19619 -0.97048,-0.29403 -0.22183,-0.0687 -0.11185,-0.0342 -0.32918,-0.10234 -0.15835,-0.0497 -0.29894,-0.10822 -0.4315,-0.17053 -0.0184,-0.005 -0.0364,-0.0111 -0.0548,-0.0161 -0.22711,-0.0577 -0.45539,-0.11043 -0.68471,-0.15867 -0.24594,-0.0533 -0.49306,-0.10101 -0.73794,-0.15914 -0.27156,-0.066 -0.54162,-0.13777 -0.80667,-0.22686 -0.27487,-0.0937 -0.54693,-0.19576 -0.81649,-0.30387 -0.2631,-0.10554 -0.52502,-0.21394 -0.78496,-0.32711 -0.0556,-0.0238 -0.11039,-0.049 -0.16588,-0.0729 -0.017,0.006 -0.0336,0.0114 -0.0506,0.0172 -0.1808,0.0556 -0.36537,0.0945 -0.55242,0.12142 -0.28547,0.0389 -0.56889,0.005 -0.84853,-0.0542 -0.25753,-0.0617 -0.50017,-0.16806 -0.74156,-0.2744 -0.20053,-0.0902 -0.40125,-0.18097 -0.60099,-0.27286 -0.18874,-0.0866 -0.37673,-0.17442 -0.5669,-0.25787 -0.16121,-0.0724 -0.32487,-0.13885 -0.49144,-0.19793 -0.13744,-0.0485 -0.27797,-0.0879 -0.42013,-0.12039 -0.0915,-0.0185 -0.0407,-0.008 -0.15193,-0.0315 -0.24819,-0.0518 -0.46169,-0.12557 -0.65112,-0.21187 -0.14119,0.0752 -0.2991,0.0726 -0.48266,0.0243 -1.08045,1.72937 -3.08995,0.73033 -2.21537,-1.52445 0.0267,-0.0687 0.92221,-1.1062 0.94563,-1.17608 0.0244,-0.0675 -0.34329,-3.12219 -0.33223,-3.19315 0.019,-0.11737 -0.44617,3.71925 -0.43563,3.6008 0.80854,-5.49408 0.54659,-3.78085 0.0259,-0.35862 0.005,-0.13605 0.01,-0.27226 0.016,-0.40825 0.006,-0.12399 -0.22778,1.65915 -0.21963,1.5353 0.40239,0.0737 9.41702,3.88751 8.72445,3.18256 -0.0635,2.29613 -8.37288,-4.36086 -8.24438,-6.12036 0.0358,-0.0927 0.0726,-0.18516 0.108,-0.27803 0.043,-0.11472 0.0891,-0.22812 0.13901,-0.34002 0.004,-0.009 -0.004,0.009 0,0 -0.0852,-0.22018 -0.11949,-0.50934 -0.11369,-0.81338 -4.84264,-0.91882 -9.84008,-1.40922 -14.95824,-1.40922 z m 19.25205,2.34355 c -2.6e-4,0 -7.9e-4,0.003 -10e-4,0.003 8e-4,0 0.002,0 0.003,-0.003 -5.3e-4,-1.3e-4 -10e-4,0 -0.002,0 z m 16.13597,5.92159 c -0.013,0.0254 -2.53356,2.4562 -2.54676,2.4816 -0.004,0.006 -2.39662,5.98482 -2.40162,5.99182 0.0253,-0.0417 4.65421,-6.22621 4.67342,-6.25909 z"
       inkscape:connector-curvature="0"
       sodipodi:nodetypes="csssccccccccccccccccccccccccccccccccccccccccccccccsccsccccc" />
    <rect
       style="opacity:1;fill:#ffd5d5;fill-opacity:1;stroke-width:0.22057386"
       id="rect4603-5-7-6"
       width="150.3618"
       height="151.43158"
       x="-573.36346"
       y="356.27512"
       ry="75.71579"
       clip-path="none" />
    <path
       id="path5410-0-9"
       d="m -487.21611,489.71567 v 0 c -17.74224,0 -32.12526,-14.94532 -32.12526,-33.38124 v 0 h 64.25052 v 0 c 0,18.43592 -14.38233,33.38124 -32.12526,33.38124 z"
       style="fill:#7f184c;stroke-width:0.35265148"
       inkscape:connector-curvature="0"
       clip-path="none" />
    <path
       id="path5412-2-6"
       d="m -511.50275,456.33443 v 5.21068 c 0,2.19714 1.71421,3.978 3.82833,3.978 h 40.91663 c 2.11446,0 3.82832,-1.78122 3.82832,-3.978 v -5.21068 z"
       style="fill:#f2f2f2;stroke-width:0.35265148"
       inkscape:connector-curvature="0"
       clip-path="none" />
    <path
       id="path5414-9-7"
       d="m -486.5415,475.86711 c -8.68378,-4.19224 -18.32033,-3.58292 -26.13473,0.76497 5.87188,7.9524 15.10573,13.08396 25.49748,13.08396 v 0 c 4.57939,0 8.93149,-1.00259 12.87363,-2.79674 -2.89218,-4.65023 -7.03912,-8.54338 -12.23638,-11.05219 z"
       style="fill:#ff2a7f;fill-opacity:1;stroke-width:0.35265148;filter:url(#filter13378)"
       inkscape:connector-curvature="0"
       clip-path="none" />
    <path
       id="path5418-2-5"
       d="m -522.5698,456.33443 c 0,20.25632 15.85955,36.73627 35.35403,36.73627 9.54404,0 18.21684,-3.94991 24.58392,-10.35918 4.81336,-4.84523 8.30899,-11.09599 9.86715,-18.10826 0.59073,-2.65851 0.90297,-5.42647 0.90297,-8.26883 0,-0.88968 -0.34006,-1.74308 -0.94548,-2.37217 -0.60577,-0.62947 -1.42671,-0.98281 -2.28329,-0.98281 h -64.2512 c -1.78271,0 -3.2281,1.50224 -3.2281,3.35498 z m 64.07131,3.3547 c -1.61008,14.98343 -13.87483,26.67155 -28.71762,26.67155 -14.84279,0 -27.10754,-11.68812 -28.7176,-26.67155 z"
       inkscape:connector-curvature="0"
       sodipodi:nodetypes="ssssssssscscc"
       style="stroke-width:0.35265148"
       clip-path="none" />
    <path
       id="path5233-2-2"
       d="m -447.167,377.28654 c -13.64748,-9.44742 -28.77091,-2.99471 -29.6798,15.36477 -0.90888,18.35947 18.49943,33.45842 27.08683,37.01319 8.88659,-2.48882 29.66846,-15.13612 30.57735,-33.49559 0.90888,-18.35948 -13.48651,-26.61289 -27.98438,-18.88237 z"
       style="fill:#ff2a7f;fill-opacity:0.839779;stroke-width:0.23488124;filter:url(#filter13170)"
       inkscape:connector-curvature="0"
       clip-path="none" />
    <path
       id="path5233-2-9-1"
       d="m -447.34223,380.82601 c -11.93376,-7.98429 -25.13211,-2.57724 -25.89766,12.88689 -0.76555,15.46413 16.20821,28.2201 23.7136,31.23089 7.75741,-2.07973 25.88813,-12.69429 26.65368,-28.1584 0.76555,-15.46416 -11.81958,-22.44401 -24.46962,-15.95938 z"
       style="fill:#ff2a7f;fill-opacity:1;stroke-width:0.20146614"
       inkscape:connector-curvature="0"
       clip-path="none" />
    <path
       id="path5233-2-7-38"
       d="m -529.37486,362.73225 c -22.21728,-12.73229 -44.9639,-0.5263 -44.34131,28.15508 0.6226,28.68138 32.40233,49.3753 46.11753,53.67039 13.51025,-5.14627 44.34906,-27.79786 43.72645,-56.47924 -0.6226,-28.6814 -23.86792,-39.4495 -45.50267,-25.34623 z"
       style="fill:#ff2a7f;fill-opacity:0.839779;stroke-width:0.36601794;filter:url(#filter13174)"
       inkscape:connector-curvature="0"
       clip-path="none" />
    <path
       id="path5233-2-9-6-5"
       d="m -529.25484,368.26167 c -19.39682,-10.70303 -39.27281,-0.39958 -38.7484,23.75868 0.52441,24.15824 28.26802,41.55813 40.24449,45.16263 11.80385,-4.34798 38.75495,-23.45782 38.23054,-47.61606 -0.52442,-24.15825 -20.82048,-33.20576 -39.72663,-21.30525 z"
       style="fill:#ff2a7f;fill-opacity:1;stroke-width:0.31394687"
       inkscape:connector-curvature="0"
       clip-path="none" />
    <path
       style="opacity:1;fill:#fb257b;fill-opacity:1;stroke-width:0.27289873"
       id="path5113-7"
       sodipodi:type="arc"
       sodipodi:cx="-702.10754"
       sodipodi:cy="802.43066"
       sodipodi:rx="1.1912702"
       sodipodi:ry="1.5589292"
       sodipodi:start="0"
       sodipodi:end="6.1074307"
       d="m -700.91627,802.43066 a 1.1912702,1.5589292 0 0 1 -1.13895,1.55743 1.1912702,1.5589292 0 0 1 -1.239,-1.42061 1.1912702,1.5589292 0 0 1 1.0301,-1.68222 1.1912702,1.5589292 0 0 1 1.32949,1.27282"
       transform="matrix(0.77471167,0.63231466,0.07613143,0.99709779,0,0)"
       inkscape:transform-center-x="-5.0591897"
       inkscape:transform-center-y="-16.033293"
       sodipodi:open="true" />
    <path
       style="opacity:1;fill:#fb257b;fill-opacity:1;stroke-width:0.32428321"
       id="path5113-0-2"
       sodipodi:type="arc"
       sodipodi:cx="31.276566"
       sodipodi:cy="578.90118"
       sodipodi:rx="1.323438"
       sodipodi:ry="1.7345665"
       sodipodi:start="1.4827252"
       sodipodi:end="4.338157"
       d="m 31.392972,580.62903 a 1.323438,1.7345665 0 0 1 -1.404645,-1.33046 1.323438,1.7345665 0 0 1 0.804445,-2.0119"
       transform="matrix(0.31249657,0.94991889,-0.81808542,0.57509672,0,0)"
       inkscape:transform-center-x="-20.320712"
       inkscape:transform-center-y="1.5179904"
       sodipodi:open="true" />
    <circle
       id="circle5420-4-1-2"
       r="2.4693563"
       cy="360.0047"
       cx="-472.71738"
       style="fill:#fb257b;fill-opacity:1;stroke-width:0.26458332" />
    <path
       style="opacity:1;fill:#00ffff;fill-opacity:0;stroke-width:0.26301089"
       id="path4550-7-2"
       sodipodi:type="arc"
       sodipodi:cx="-404.54984"
       sodipodi:cy="360.63846"
       sodipodi:rx="0.73415893"
       sodipodi:ry="31.535906"
       sodipodi:start="0"
       sodipodi:end="0.0015558357"
       d="m -403.81568,360.63846 a 0.73415893,31.535906 0 0 1 0,0.0491 l -0.73416,-0.0491 z"
       clip-path="none" />
  </g>
</svg>
